<?xml version="1.0" encoding="utf-8" ?>
<svg baseProfile="full" height="300mm" version="1.1" viewBox="0,0,200,300" width="200mm" xmlns="http://www.w3.org/2000/svg" xmlns:ev="http://www.w3.org/2001/xml-events" xmlns:xlink="http://www.w3.org/1999/xlink"><defs /><rect fill="#222222" height="300" width="200" x="0" y="0" /><text fill="#FFFFFF" style="font-size:12px; font-family:Arial; font-weight:bold;" x="10" y="20">Over 10km Runs</text><text fill="#FFFFFF" style="font-size:4px; font-family:Arial" x="10" y="280">ATHLETE</text><text fill="#FFFFFF" style="font-size:9px; font-family:Arial" x="10" y="290">ClF3</text><text fill="#FFFFFF" style="font-size:4px; font-family:Arial" x="120" y="280">STATISTICS</text><text fill="#FFFFFF" style="font-size:3px; font-family:Arial" x="120" y="285">Number: 4</text><text fill="#FFFFFF" style="font-size:3px; font-family:Arial" x="120" y="290">Weekly: 1.0</text><text fill="#FFFFFF" style="font-size:3px; font-family:Arial" x="141" y="285">Total: 51.6 km</text><text fill="#FFFFFF" style="font-size:3px; font-family:Arial" x="141" y="290">Avg: 12.9 km</text><text fill="#FFFFFF" style="font-size:3px; font-family:Arial" x="167" y="285">Min: 10.0 km</text><text fill="#FFFFFF" style="font-size:3px; font-family:Arial" x="167" y="290">Max: 21.1 km</text><polyline fill="none" points="59.27378492522985,51.042518723988906 59.22350510256365,52.42103438448976 59.7263033289928,53.53697252739221 60.078262087423354,56.031412444863236 59.575463860994205,58.460195864521665 59.324064747896045,61.611030414002016 60.02798226498999,66.07467476883903 59.97770244232379,69.48801986358012 60.6313401365187,72.0480116228282 60.53078049141914,72.57313632988371 60.12854191008955,72.9013389594329 58.72070687590167,73.16390089000924 55.150839467998594,73.09826042171335 51.430132591864094,73.360822236893 50.02229755767621,73.49210308675538 48.715022168820724,74.01722610174329 47.25690731219947,74.21414707359509 44.59207671158947,74.34542767354287 42.63116362830624,74.80490947022918 40.16745231859386,75.06747028548853 34.586392004508525,75.26439079586999 31.418763177702203,75.78951173412497 24.83210641075857,76.57719198745326 16.234256737865508,76.77411183447111 15.580619043204933,76.90539168435498 14.92698134877719,77.49615053329035 14.575022590579465,78.28382778694504 14.524742767680436,78.94022444085567 15.93257780186832,87.14510149447597 15.982857624534518,91.54285375881591 16.586215496528894,94.1027195341594 16.787334786960855,96.8594817094272 16.737054964527488,97.97530919749988 16.13369709230028,99.48495372969774 15.329219929873943,104.99839490940212 15.228660284774378,106.77055802720133 15.832018156768754,109.92105293396162 17.792931239819154,114.51548497570911 18.59740840224549,115.04055992446956 21.915876697050408,115.30309716798365 29.407570271752775,114.05604389094515 34.78751129517332,114.12167836041772 35.843387570697814,113.66223687195452 41.72612682078034,109.65851253771689 44.03899866249412,108.87089042572188 49.87145808991045,108.60834941413486 52.98880709405057,108.08326692975243 60.88273924984969,108.34580824890872 65.05596452974714,107.95199621241773 68.0224740661215,108.08326692975243 71.19010289316066,107.95199621241773 73.05045633087866,107.42691295908298 74.40801154240035,107.29564204954659 80.03935167915188,107.55818383014412 82.70418227952905,107.23000658044475 84.76565500814468,107.42691295908298 88.93888028804213,106.90182909031864 93.26294503547251,107.03310011522262 94.62050024722703,106.57365136002772 95.47525723231956,102.43859136829269 95.32441776432097,100.40386530329124 95.47525723231956,99.28804386188858 95.1735782965552,96.40002252449631 95.2238581192214,92.92124483938096 94.62050024722703,88.85169704936561 93.91658273013309,87.14510149447597 93.66518361703493,85.30722209019586 93.61490379436873,84.19136306043947 93.86630290769972,82.74730607387028 94.01714237546548,72.1792928573268 93.51434414903633,66.20595775311813 93.21266521327198,64.5649176837469 92.20706876018085,61.676672565052286 92.30762840528041,57.54119828098919 92.05622929218225,54.784194221690996 92.15678893751465,53.40568583115237 91.90538982418366,52.55232136894483 90.29643549933098,49.86093049662304 88.18468294828199,47.694677321152994 83.156700683292,41.39279035461368 82.10082440800034,40.40811250987463 79.88851221115328,38.89826894534053 76.51976409368217,35.025168710853904 75.91640622215346,34.959522655786714 73.8046536706388,35.484690828074235 71.39122218335979,35.61598277496523 69.2291898096446,36.141150178184034 62.99449180136435,35.484690828074235 60.6313401365187,35.484690828074235 57.76539024570957,35.94421247401624 56.357555211521685,36.600671150838025 55.25139911309816,38.57004141030484 54.44692195067182,39.68601404869696 53.391045675380155,40.6050482520659 51.73181152786128,41.65537074778695 48.916141459485516,44.806323463184526 48.56418270105496,45.72534716496011 48.161944119725376,48.08854231386795 48.413343233056366,51.76459888447425 48.76530199148692,52.749251773784636 49.2681002181489,53.340042468800675 49.82117826701142,53.40568583115237 52.53628869028762,52.749251773784636 55.20111929066479,52.880538662255276 58.16762882703915,52.749251773784636 58.821266521466896,53.0774689228565 58.6704270534683,56.49091302030138 59.22350510256365,58.26326796945068 59.22350510256365,59.83868870596052 59.575463860994205,61.873598959849915 59.92742261965759,69.15981473439024 60.48050066852011,72.57313632988371 60.27938137832098,73.29518179758452 59.324064747896045,73.68902428940055 57.31287184194662,73.95158575841924 46.35187050444074,74.21414707359509 42.12836540187709,74.87054968852317 38.91045675240457,74.67362900500302 36.64786473335698,74.73926924236002 32.122680694796145,75.65823155720136 26.994138784706593,75.65823155720136 21.563917938619852,76.11771200786461 16.737054964527488,76.90539168435498 15.42977957543917,77.43051069971989 14.776141880778596,77.9556290997134 14.67558223567903,78.94022444085567 15.93257780186832,90.75519980923855 16.88789443206042,93.44634508813033 17.038733900291845,94.56218107431778 16.988454077625647,96.9907556757098 16.18397691519931,100.01004628819646 15.480059398105368,104.93275910386001 15.379499752772972,107.29564204954659 15.580619043204933,108.60834941413486 16.787334786960855,111.89010100474115 17.3906926587224,114.25294727057917 17.742651417152956,114.84365689064725 18.3460092889145,115.23746287138783 19.251046096673235,115.5 20.256642549764365,115.5 27.7986159469001,114.71238815347897 30.664565837942064,114.05604389094515 33.32939643855207,114.05604389094515 34.93835076317191,113.79350591675029 38.65905763907358,112.28390958087402 42.37976451520808,109.33033682600944 43.28480132273398,108.87089042572188 45.245714406017214,108.87089042572188 50.97761418810114,108.21453760834993 56.75979379261844,108.47707885084674 60.581060313852504,108.28017293344601 62.39113392936997,107.95199621241773 69.2291898096446,108.34580824890872 74.00577296130359,107.75509006460197 77.32424125610851,107.62381925122463 80.59242972824723,107.16437110162224 85.57013217033818,107.49254839934292 93.46406432637013,106.57365136002772 94.82161953789182,106.04856649169233 94.92217918322422,104.538944068423 94.31882131122984,102.3073189976858 94.46966077922843,97.31894042319618 94.16798184346408,91.60849152537412 94.2685414890293,90.03318247271818 93.36350468103774,87.27637830621097 93.36350468103774,83.79752979826299 93.91658273013309,82.3534715428541 93.66518361703493,78.54638656391762 93.86630290769972,74.14850675937487 93.51434414903633,67.32186156779062 93.21266521327198,64.367992471467 92.40818805084564,62.858229636301985 92.10650911484845,61.74231470617815 91.80483017908409,57.93505461886525 91.75455035618506,55.04676676765666 91.95566964708269,53.0774689228565 91.80483017908409,52.2897473614139 91.30203195242211,51.305093462520745 88.43608206138015,47.694677321152994 84.36341642704792,42.96827040516655 83.40809979639016,42.04924104886595 82.2013840530999,39.94859544184874 79.23487451649271,37.38842029310763 77.72647983720526,35.550336806394625 70.58674502093345,34.5 69.43030910030939,34.565646122500766 68.1230337114539,35.156460792495636" stroke="#4dd2ff" stroke-linecap="round" stroke-linejoin="round" stroke-width="0.5"><title>2024-06-11 10.0km</title><desc>1718116966000</desc></polyline><polyline fill="none" points="159.6637895796448,109.85978351175436 162.00634517637081,108.86677550376044 166.05257757066283,109.06537739632768 168.57766996719874,110.33642606373178 168.51682436733972,111.3691487183969 167.72583156835753,113.15654401673237 168.42555596726015,115.06308601389173 170.43346076458693,114.86448851460591 174.38842475914862,114.26869514436112 177.15689955523703,110.41586640753667 177.76535555440933,107.47655818233034 177.67408715432975,101.79645334728411 177.82620115426835,97.70511529486976 177.46112755476497,94.60677937508444 175.69660515733995,89.87976276106201 175.27068595774472,88.33055450909887 176.21379275654908,86.50327185765491 178.06958355382085,85.15266372062615 178.9822675527539,83.64315254543908 178.67803955299314,80.94190104192239 178.52592555328738,78.95566952825175 177.2785907550715,77.0091485249286 176.73098035587464,74.86398673936492 174.02335115952883,73.4338694511971 166.66103356983513,70.49416021889192 164.80524277233053,70.89142008626368 162.58437837543897,70.65306423563743 158.41645478119608,71.60648638042039 149.56341999350116,71.9640188201447 145.6693015989149,70.81196815930889 144.17858440091368,70.9708719898772 139.85854680696502,72.83798502080026 137.5464140101103,74.98316283951863 134.86920761386864,76.57217250100803 130.48832441994455,78.55842147915973 126.38124642567709,80.46520680593676 124.40376442845445,81.69666520127794 122.39585963112768,83.16646305963513 120.63133723358624,86.0265874012257 120.66176003369037,88.25110769327148 121.23979323275853,91.54813097789884 125.83363602648024,95.7190065998875 127.65900402399711,96.91067356293206 128.72380202251952,98.14205725499778 131.88777321809903,98.85705167098786 134.86920761386864,100.16786986924126 136.48161601170432,102.94837233930593 137.66810520994477,105.4905210713041 139.55431880743708,107.51627877613646 140.8320764056407,108.94621627824381 144.6349264003802,109.14481811257428 148.71158159477636,109.34341980147292 151.7234387905337,109.82006326128612 154.82656438625418,111.0116682445514 160.42435957852285,109.34341980147292 162.00634517637081,109.06537739632768 165.53538997122087,109.26397914349218 168.4864015672356,109.89950375646004 169.21654876612592,110.89250798191642 169.09485756640788,111.80606865716982 168.03005956788547,112.60046674220939 167.8779455680633,113.87149883675738 168.9427435665857,115.5 173.62785476003774,114.14953631316894 175.6661823572358,113.2757032843947 176.9135171554517,111.28970865369774 178.06958355382085,106.92046925783507 178.10000635392498,98.34066700420226 178.2216975535266,93.21648892719531 177.0960539552616,91.54813097789884 175.33153155772015,89.87976276106201 175.1794175580144,88.60861818064586 175.97041035699658,86.30465343603282 178.89099915279076,83.80204885447165 179.5907235519262,81.77611393792904 178.86057635280304,78.71732076871558 177.4915503547527,77.0091485249286 177.0960539552616,74.78453597679618 171.4374131631339,72.71880797750782 168.15175076760352,71.40785704337759 166.29595997021534,70.81196815930889 164.5618603726616,70.9708719898772 160.60689637821633,70.85169412562391 156.62150958378334,71.72566391268629 155.67840278497897,70.05717369218473 154.58318198646884,67.47496619960293 154.58318198646884,64.85300726810237 154.674450386432,62.8666578590055 155.7088255850831,61.8734776955971 155.5262887851568,56.03350472287275 156.3477043841267,55.43758203837206 158.38603198120836,55.040299520856934 160.42435957852285,54.484103018039605 163.19283437461127,53.68953460545163 166.630610769731,53.212792439735495 173.5061635603197,51.70310338315903 180.2600251508411,50.74961122518289 181.3552459492348,50.43177976034349 181.2944003493758,49.08099187727203 180.89890395011753,44.86966879401007 179.28649555228185,41.929649740981404 177.82620115426835,41.49261715891771 173.41489516035654,42.20776101705269 169.9466959652491,43.16128322595614 165.38327597163152,41.6912684199051 163.22325717436615,40.419897833344294 159.298715980025,37.32090704201255 157.83842158212792,35.61247388928314 155.00910118583124,35.13569992443081 151.7234387905337,34.5 148.13354839535896,35.21516231028363 144.847885999945,35.29462467259145 139.76727840711828,35.33435584511608 134.53455681423657,35.61247388928314 131.12720321910456,35.493280476657674 128.32830562302843,36.36736428475706 122.91304723056965,36.60575028852327 117.37609763815999,36.96332890121266 113.93832124304026,37.91686956156627 109.6487064488465,41.85018932376988 108.58390845055692,45.58480374139617 110.044202848454,48.524783145141555 111.26111484679859,52.21957690140698 111.65661124605685,52.73604943565442 115.48988404078409,52.696320813993225 119.14062003581785,51.5441882564337 125.16433442744892,51.62364583130693 128.267460023053,51.6633746100415 131.7965048182523,51.6633746100415 133.43933601595927,51.5839170467807 138.1548700092826,53.68953460545163 138.00275600957684,56.708882181264926 138.5503664087737,58.933643083437346 139.7977012069896,60.006289136537816 141.37968680483755,60.284381864825264 143.205054802238,62.231022973690415 144.3915440007113,63.34338304467383 147.85974319581874,63.4625642101164 149.25919199397322,62.62829495163169 151.1149827913614,62.42965903534787 153.2141559884185,62.707749277411494 154.21810838708188,62.46938623031019 154.3093767868122,64.17765010221046 153.6096523879096,66.4023497022281 154.33979958691634,69.14347231466672 155.86093958478887,71.28867937141331 155.16121518588625,71.765389745211 148.1943939954508,72.0831961951917 144.847885999945,71.05032387020765 140.52784840599634,72.36127653345466 135.99485121236648,76.96942346083233 132.1007328176638,78.39952209647163 129.21056682185736,78.95566952825175 126.44209202553611,80.2665839602414 123.94742242910434,82.68977273546625 121.60486683237832,84.67597688920796 120.63133723358624,87.13884982914897 120.72260563343298,89.95920909955748 122.000363231753,92.54120242249337 127.6285812240094,96.35456296542543 129.36268082156312,98.26122312204097 133.1046852164436,99.65148769924417 135.44724081316963,100.6445294606965 136.8771124111954,102.03478181618266 138.39825240906794,105.9671713046846 141.13630440516863,109.18453846208286 143.144209202379,109.26397914349218 150.93244599166792,109.10509775739047 153.88345758756623,110.4953067281167 157.32123398268595,110.65418729948578 161.1545067774132,109.06537739632768 163.58833077398594,109.34341980147292 165.90046357095707,109.30369947533472 168.33428756752983,109.89950375646004 169.24697156611364,110.69390742780524 169.1557031662669,111.76634869186091 168.18217356759124,112.48130717783351 168.1213279677322,113.91121849374031 169.1557031662669,115.42056114570005 173.65827756002545,113.83177917395369 175.05772635806352,113.71262015087996 176.36590675625484,111.24998861277709 177.9174695541151,108.11208698520204 178.06958355382085,104.93442807297106 177.9783151539741,97.86400336187216 178.19127475377172,95.7190065998875 177.7349327543052,93.25621161030722 175.6053367573768,90.2372711005446 175.54449115728494,88.13193742616568 176.51802075619344,86.14575859389151 178.9822675527539,83.60342845361447 179.49945515196305,82.09390865158639 179.0126903525088,79.3131922747998 177.43070475489367,77.20777375739999 177.0960539552616,75.10233888711082 174.72307555854786,74.4270072572981 173.04982156085316,73.91057605220703 170.03796436509583,72.36127653345466 167.42160356871318,71.05032387020765 165.04862517188303,71.05032387020765 161.97592237626668,70.85169412562391 159.45082997973077,71.80511557185673 156.92573758319486,71.92429301672382 149.95891639287584,72.04347040937864 147.79889759595972,72.16264774947194 146.06479799828958,71.60648638042039 143.3571688020602,71.01059793302556 141.10588160541374,71.80511557185673 138.9458628082648,74.10920355524286 136.78584401111584,76.05574538273504 134.3824428145308,77.56529880934977 129.5147948213853,78.71732076871558 126.28997802571394,80.34603311598767 124.58630122814793,82.25280586865847 121.66571243235376,84.91432040961809 120.78345123352483,87.3771911841759 120.78345123352483,90.47560973156942 121.60486683237832,92.06452858319972 127.17223922454286,95.87789583098493 128.75422482239082,97.90372536407085 130.06240522058215,98.65844230016228 134.19990601483732,100.00898315239465 135.4168180130655,100.8034158051305 136.99880361091346,102.55115944659337 138.3069840092212,105.9274504839268 141.01461320533417,108.94621627824381 142.2923708036542,109.34341980147292 145.51718759909272,109.06537739632768 149.4113059937954,108.9859366567398 154.00514878740069,110.77334766683634 158.41645478119608,110.57474702553009 161.24577517737634,109.34341980147292 163.284102774458,109.62146192145883 166.90441596938763,109.5817416361242" stroke="#ff0000" stroke-linecap="round" stroke-linejoin="round" stroke-width="0.5"><title>2024-05-21 21.1km</title><desc>1716295585000</desc></polyline><polyline fill="none" points="58.31406313064508,200.18067107105162 58.812418488785625,202.84828200019547 59.410444918321446,209.09433271744638 59.460280454251915,213.06313180516008 59.16126723936759,215.21017226736876 59.16126723936759,217.48732505273074 59.85896474029869,220.28495392089826 60.25764902657829,223.14762568520382 60.25764902657829,223.86329074329115 60.00847134785727,224.383773697773 55.17442437517457,224.18859266137588 49.792186508886516,224.4488340243406 45.2073172153905,225.22955719797756 39.17721738363616,224.96931629255414 34.29333487502299,225.6199182701239 29.957643260713667,226.53075943808653 28.31307057919912,226.59581944992533 25.970800396520644,226.2054592355271 21.734779853606597,226.79099942860194 18.545305562438443,226.59581944992533 16.75122627359815,227.0512392669043 15.953857700806111,227.701838195062 15.505337878596038,229.19821211352246 15.405666806967929,232.646358907572 16.10336430813186,242.01477352768416 16.452213058946654,243.70627177561983 17.199746095808223,245.39776358261588 17.29941716743633,247.02419193825335 15.605008950224146,254.18040595686762 15.106653592549264,257.69341428688494 15.25616019940935,259.12463193770964 15.654844485921785,258.9945214326726 16.00369323650375,260.6209000060626 17.54859484662302,264.8494564302382 18.04695020453073,265.2397826863453 18.495470026740804,265.36989136220654 19.741358421742916,265.1747283341829 20.439055922906846,264.784402020945 21.834450925234705,263.41825722382055 23.180010391864926,262.7677106055198 24.525569858262315,262.24727262501256 26.568826826289296,261.9219985777745 29.160274687688798,261.9219985777745 30.256656475597993,262.1822178346338 31.10386058408767,262.5725464343559 32.44942005071789,263.87363928966806 32.99761094432324,264.1338574034744 38.67886202572845,263.0929840336903 40.02442149212584,262.70265589124756 41.12080327956937,261.987053406192 43.41323792655021,259.4499080335954 51.337088118772954,258.14880222137435 54.426891338313,258.14880222137435 56.868832592852414,257.62835882944637 59.80912920460105,257.36813690493 61.25435974309221,257.4982478861639 63.94547867635265,258.14880222137435 67.03528189565986,257.8885806016915 70.17492065089755,258.2789129741723 74.31127012241632,258.08374683067086 79.09548155916855,258.34396833594656 83.3315021020826,258.01869143059594 86.22196317859925,258.60418968915474 87.66719371709041,258.40902368861134 89.85995729221031,257.30308139990666 93.0992671190761,256.71758142637555 93.59762247698382,256.3272476819693 94.24548444221728,241.75454245624132 94.19564890651964,239.8678626290639 93.54778694128618,237.98117478835047 93.4979514053557,236.28965473891003 93.0992671190761,234.01259834616212 93.3982803337276,233.81742154079257 93.59762247698382,232.71141802382772 93.64745801291429,226.79099942860194 93.94647122733295,224.383773697773 93.89663569186814,223.99341153909336 93.24877372640185,223.27774669061182 93.04943158337846,222.69220186589519 93.24877372640185,221.0656844135956 93.59762247698382,220.02471011836315 93.59762247698382,218.39818289788673 93.34844479802996,217.29214098554803 91.75370765244588,213.84387499230797 91.45469443756156,204.47486616665265 90.75699693639763,201.67713771163835 89.95962836337276,199.92041548830457 88.31505568209104,197.57810838200385 85.17541692685336,194.65020712744445 80.69021870498545,189.05460881374893 78.34794852207415,187.1026393273496 76.6535403050948,185.08559517847607 75.9060072680004,184.6301323286316 75.30798083846457,184.5 72.86603958439082,184.82533075014362 67.03528189565986,185.93145351752173 64.64317617751658,185.93145351752173 60.45699117006734,186.25678321893793 57.26751687913202,186.19171729774098 56.071464019594714,186.51704680849798 55.57310866191983,186.84237608106923 53.52985169389285,190.3559170383669 51.03807490388863,193.47904122117325 48.496462577953935,196.27682131840265 48.19744936330244,197.3829155655112 48.34695597086102,203.30372616727254 48.64596918551251,204.08448651005165 49.54300882993266,204.47486616665265 51.68593686935492,204.08448651005165 53.380345086567104,204.1495498100121 57.61636562948115,203.56397976723383 58.5134052739013,203.62904314359184 59.01176063204184,204.01942320042872 59.01176063204184,208.118393083103 59.70945813320577,212.08720089143026 59.90880027622916,214.81980204614229 59.80912920460105,215.60054214525735 59.31077384669334,216.8367111623811 59.21110277506523,217.81263164040865 59.80912920460105,220.28495392089826 60.058306883787736,222.7572624400782 60.00847134785727,224.12353229676955 59.460280454251915,224.51389434112934 56.81899705668911,224.4488340243406 52.33379883482121,225.09943676440162 45.60600150190294,225.48979795101332 43.46307346248068,225.3596775935439 40.67228345759213,225.5548581153853 35.93790755677037,226.14039916626643 25.57211611024104,226.7259394453431 21.884286461165175,227.31147895235335 17.698101453715935,227.11629920257838 16.352541987318546,227.37653884998872 15.654844485921785,227.83195786637953 15.206324663944542,228.4174959154625 15.006982520688325,229.13315248282743 15.605008950224146,236.41977189452155 15.555173414526507,238.9570488098543 15.904022165108472,242.40511984878685 16.15319984406233,243.38098415129934 17.100075024180114,245.33270632458152 17.44892377476208,247.8048754335614 17.3492527033668,248.71567111066543 16.65155520220287,250.21197424040292 16.10336430813186,252.35883514463785 15.555173414526507,255.2213002103672 15.405666806967929,258.01869143059594 15.754515557782724,259.645073576452 16.850897345226258,262.1822178346338 17.648265918018296,264.8494564302382 18.04695020453073,265.2397826863453 18.644976634066552,265.30483702896163 20.18987824395299,265.10967397261993 27.216688791522756,265.5 32.29991344315931,264.06880288923276 34.29333487502299,263.80858473750413 36.78511166526005,263.15803869083175 38.52935541816987,262.3773821774521 42.86504703271203,259.645073576452 43.81192221282981,259.18968717579264 46.80205436074175,258.92946616592235 50.09119972377084,258.34396833594656 52.18429222749546,258.2138576025027 55.47343759005889,258.34396833594656 58.712747417157516,257.75846973463194 60.207813491113484,257.8235251729493 61.05501759960316,257.69341428688494 60.905510992277414,258.08374683067086 61.403866350185126,258.2789129741723 66.33758439449593,257.0428592846729 67.4339661821723,257.17297036136733 70.67327600903809,257.0428592846729 73.0653817274142,257.17297036136733 75.80633619637229,256.78263701705146 78.1984419147484,257.23802588530816 86.52097639348358,257.4982478861639 93.89663569186814,257.10791482773493 94.44482658570632,256.91274817008525 94.8933464079164,256.58747021632735 94.99301747931167,256.0019692996866 94.64416872872971,254.44062974891858 93.84680015593767,242.34006215250702 93.84680015593767,239.80280456115725 93.29860926233232,237.39564934631926 93.54778694128618,233.81742154079257 93.7471290845424,233.10177252066205 94.49466212140396,232.12588563500321 94.74383980059065,230.4994027276407 93.4979514053557,222.17171692920965 92.94976051175036,216.12103478235076 91.75370765244588,212.93300780738355 91.25535229430534,211.11126783341751 91.5045299732592,208.76901974427165 91.45469443756156,206.16650738069438 91.70387211651541,203.4338529863744 91.30518783023581,202.58802798070246 88.11571353906766,198.68419938831357 86.67048300104216,196.60214344173437 84.8265681762714,193.02358697904856 82.33479138626717,190.42098234966397 81.48758727754466,189.05460881374893" stroke="#4dd2ff" stroke-linecap="round" stroke-linejoin="round" stroke-width="0.5"><title>2024-05-17 10.0km</title><desc>1715955192000</desc></polyline><polyline fill="none" points="164.16845579096116,193.91782291643904 164.16845579096116,196.74971709781676 164.52155892411247,200.1084521865996 164.37022901000455,200.89873914880445 164.5720022288151,202.61102280108025 165.12687858077697,204.98186632193392 165.12687858077697,213.01629860760295 165.63131162780337,217.16517053742427 165.2782084948849,220.0627726695384 165.07643527607433,220.8530245552538 164.62244553351775,221.31400418063276 162.50382673554122,221.84083745913813 155.3408774661366,222.1042538669717 154.2311247624457,222.49937818929902 151.50718630780466,224.14572579431115 148.53103132988326,224.54084832253284 143.3353709441144,224.60670204352937 141.2167521463707,225.3310923371173 138.24059716821648,225.06767781989765 136.57596811256371,225.39694594225148 132.43961712578312,225.66036026654183 129.3625755382236,225.59450670002843 126.28553395089693,225.98962795478292 120.2323373851832,226.12133496260503 116.44908953155391,226.45060231318348 112.76672828756273,227.1749896358815 108.78170721512288,227.1749896358815 105.40200579934753,227.8335225529445 104.94801605679095,228.42620135328616 104.74624283821322,229.47985062515363 105.25067588523962,240.87227568903472 106.5117585028056,245.28429339962895 106.91530494065955,247.8524628780142 106.66308841714635,249.36701748892665 105.70466562756337,253.05460738283 105.25067588523962,255.8202799563296 105.1497892756015,258.45423801994184 105.90643884637393,261.74666390166385 106.66308841714635,262.866083209723 107.26840807381086,264.8415222488402 108.02505764435045,265.5 108.88259382452816,265.5 111.00121262250468,265.1049134650384 115.03667699964717,265.1707612448954 117.50839893054217,264.9073700674635 120.2323373851832,265.1049134650384 123.41026558238082,264.7098265828972 126.73952369322069,263.5904118651524 131.98562738345936,260.3638479676447 133.75114304875024,259.5078169250337 141.0654222322628,258.45423801994184 142.88138120179065,258.3883892563754 145.95842278935015,258.7176329776994 149.13635098654777,258.52008677393314 153.57536180131137,258.5859355178836 158.11525922524743,258.84933039871976 160.88964098482393,258.32254048314644 163.1091463919729,257.59820334176766 164.0675691817887,257.46650555415545 166.43840450327843,257.72990109052625 168.9605697391089,257.72990109052625 176.77928196988069,257.26895880064694 183.28646827768534,257.26895880064694 184.3457776766736,257.07141196046723 185.2033138568513,253.77895184396766 185.25375716155395,252.3961114056583 184.44666428607889,241.13568094649236 184.74932411452755,234.682207709644 184.3457776766736,231.1920254251745 184.44666428607889,226.7798694227531 184.29533437197097,224.7384094565059 183.6900147155393,222.89450216430123 183.43779819179326,220.78717028460233 182.78203523042612,220.52375310505158 180.20942669035867,220.65546171413735 173.60135377268307,221.24814997726935 169.21278626238927,221.37985837412998 164.47111561940983,221.24814997726935 159.72944497619756,221.70912919737748 154.78600111440755,221.84083745913813 153.47447519144043,222.43352415962727 151.86028944095597,223.88231058276142 150.95230995607562,224.14572579431115 139.80433961423114,225.06767781989765 137.88749403506517,225.39694594225148 131.58208094583824,225.46279953763587 128.85814249143004,225.92377443649457 127.29440004518256,225.85792090834002 122.80494592571631,226.45060231318348 120.4845539086964,226.38474886244512 118.92081146268174,226.64816260786029 105.95688215107657,227.63596277908073 105.20023258053698,227.8335225529445 104.89757275208831,228.4920545051864 104.8471294476185,229.41399761789944 105.40200579934753,232.1798156131117 105.45244910405017,237.25043774742517 105.80555223696865,241.79419341561152 106.5117585028056,244.16483031824464 106.91530494065955,247.39151046212646 106.86486163595691,248.379265060561 106.25954197952524,250.02551790251164 106.05776876048185,252.65950991233694 105.35156249441206,255.4251849159191 105.35156249441206,258.45423801994184 105.75510893203318,260.56139336148044 106.713531721849,262.3392980002973 107.36929468298331,264.8415222488402 107.87372773047537,265.3024567760003 109.13481034804136,265.3683045269281 112.5145117638167,264.9732178761915 118.16416189190932,265.1049134650384 123.41026558238082,264.64397873551934 125.62977098952979,264.1830435334996 128.05104961572215,262.997779415542 132.74227695446461,259.5078169250337 135.86976184649393,258.91517909485265 137.88749403506517,258.91517909485265 140.10699944244698,258.45423801994184 141.36808206047863,258.5859355178836 144.1929071242921,258.19084290781757 145.35310313268565,258.3883892563754 150.59920682292432,258.3883892563754 153.1213720587548,258.12499410583405 154.73555780947208,258.3883892563754 158.31703244429082,258.3883892563754 163.86579596274532,257.5323544527928 168.30480677750893,258.12499410583405 170.52431218512356,257.40065664603026 174.40844664815813,257.5323544527928 177.13238510256633,257.40065664603026 180.36075660423376,256.9397140186047 181.82361244084314,256.87386503315065 183.48824149672873,257.1372609169048 184.39622098137625,256.9397140186047 184.79976741899736,256.08367645696853 185.0519839427434,254.17404833092587 184.44666428607889,249.1694671769219 184.64843750512227,244.09897946199635 184.24489106750116,241.2015322369407 184.29533437197097,239.29184090235503 184.74932411452755,238.30406633971143 184.79976741899736,237.5138451269886 184.6988808098249,234.41879867133684 183.8413446296472,227.24084297099034 184.04311784845777,224.6725557547179 183.6900147155393,223.22377187819802 183.8413446296472,221.84083745913813 183.63957141083665,221.1822957645054 183.23602497274987,220.78717028460233 182.63070531655103,220.65546171413735 179.60410703369416,220.8530245552538 177.9394779780414,220.52375310505158 172.08805463113822,221.05058730964083 165.98441476072185,220.8530245552538 165.73219823720865,220.45789878611686 165.07643527607433,218.0212822020403 165.2782084948849,213.9382734563551 165.07643527607433,212.4235994918854 165.32865179958753,209.59180404353538 164.82421875256114,207.74783462757478 165.0259919713717,206.10142697187257 164.62244553351775,203.66473257626058 164.77377544762567,199.71330818446586 165.5304250183981,199.18644897465128 167.29594068345614,198.72544665960595 172.59248767839745,198.46201655318146 175.56864265655167,197.93515587691218 177.3341583213769,198.06687110388884 177.435044931015,197.73758296421147 176.67839536000974,196.55214366389555 174.00490021053702,192.99580700797378 167.85081703495234,186.21234611500404 166.99328085500747,184.96101690351497 166.33751789387316,184.56585958669893 163.9666825721506,184.5 161.69673386006616,185.4220333340636 158.31703244429082,185.94890867572394 156.90461991238408,185.75133049479336 154.78600111440755,185.88304929167498 153.67624841048382,185.68547108198982 151.154083175119,186.27820545079885 148.73280454892665,186.40992409308092 146.81595896952786,187.06851672637276 145.2522165235132,189.30772446264746 141.16630884143524,193.4568151985004 139.90522622363642,194.4446883009805 138.94680343405344,195.49841721760458 138.59370030113496,197.6717253072129 138.84591682464816,202.15002399781952 139.45123648131266,202.80859357197187 140.35921596596017,203.07202113160747 143.9406906007789,202.47930890554562 144.84867008565925,202.15002399781952 146.1601960081607,201.16216782751144 146.71507236012258,200.24016677675536 148.27881480637006,198.7913041622087 150.44787690858357,197.14486370488885 152.415165792685,194.51054643068346 154.1302381530404,193.39095691472176 154.9877743332181,193.1275236819929 159.2754552338738,192.86409029524657 163.56313613429666,193.3250986209605 163.81535265827551,193.65438999273465 164.01712587685324,194.64226266098558 164.21889909589663,198.5937316257623" stroke="#4dd2ff" stroke-linecap="round" stroke-linejoin="round" stroke-width="0.5"><title>2024-04-13 10.5km</title><desc>1712966396000</desc></polyline></svg>