<?xml version="1.0" encoding="utf-8" ?>
<svg baseProfile="full" height="200mm" version="1.1" viewBox="0,0,200,200" width="200mm" xmlns="http://www.w3.org/2000/svg" xmlns:ev="http://www.w3.org/2001/xml-events" xmlns:xlink="http://www.w3.org/1999/xlink"><defs /><rect fill="#1a1a1a" height="200" width="200" x="0" y="0" /><rect fill="#1a1a1a" height="200" width="180" x="10" y="0" /><text alignment-baseline="middle" fill="#e1ed5e" style="dominant-baseline: central; font-size:9.0px; font-family:Arial;" text-anchor="middle" x="100.0" y="100.0">2024</text><line stroke="#e1ed5e" stroke-width="0.3" x1="100.0" x2="100.0" y1="15.0" y2="10.0" /><path d="M 100.0 14.0 a86.0,86.0 0 0,1 42.35913384403234,11.155469271406648" fill="none" id="id1" stroke="none" /><text fill="#e1ed5e" style="font-size:6.75px; font-family:Arial;" text-anchor="middle"><textPath startOffset="22.145653131862478" xlink:href="#id1">January</textPath></text><line stroke="#e1ed5e" stroke-width="0.3" x1="143.13028292997686" x2="145.6673583964461" y1="26.7553504044142" y2="22.446841604673864" /><path d="M 143.63769802327073 25.89364864446614 a86.0,86.0 0 0,1 29.32050498858742,28.57503671076993" fill="none" id="id2" stroke="none" /><text fill="#e1ed5e" style="font-size:6.75px; font-family:Arial;" text-anchor="middle"><textPath startOffset="20.669276256404974" xlink:href="#id2">February</textPath></text><line stroke="#e1ed5e" stroke-width="0.3" x1="172.87174338648825" x2="177.1583165268699" y1="56.24261187166439" y2="53.66864786411523" /><path d="M 173.72905801456457 55.72781907015455 a86.0,86.0 0 0,1 12.242430191666344,42.057860355516425" fill="none" id="id3" stroke="none" /><text fill="#e1ed5e" style="font-size:6.75px; font-family:Arial;" text-anchor="middle"><textPath startOffset="22.145653131862474" xlink:href="#id3">March</textPath></text><line stroke="#e1ed5e" stroke-width="0.3" x1="184.99686870605535" x2="189.99668451229388" y1="99.2704041080226" y2="99.22748670261217" /><path d="M 185.99683186730306 99.26182062694052 a86.0,86.0 0 0,1 -10.086455211305974,41.156179273409016" fill="none" id="id4" stroke="none" /><text fill="#e1ed5e" style="font-size:6.75px; font-family:Arial;" text-anchor="middle"><textPath startOffset="21.40746469413373" xlink:href="#id4">April</textPath></text><path d="M 120.9064616781168 101.97986365728391 l 7.3630466837064645 0.6972881762777754 a28.39598994504573,28.39598994504573 0 0,0 -0.050122448113214854,0.48488921807584523 l -7.349991843111583 -0.823581916636552" fill="#ff5507" stroke="none" /><path d="M 120.86939407059847 102.33845913500097 l 8.784850808499902 0.9843608565377118 a29.839828619576572,29.839828619576572 0 0,0 -0.061410244728918095,0.5085649210699187 l -8.76665847751132 -1.135019454531039" fill="#ff6909" stroke="none" /><path d="M 120.7213421655516 103.40968896794604 l 4.361264607406712 0.7176444314929495 a25.419914309788286,25.419914309788286 0 0,0 -0.07454714581428934,0.4299681269237353 l -4.348302644100188 -0.7924055913372728" fill="#ff2a04" stroke="none" /><path d="M 120.65975698304385 103.76489593502545 l 4.391785670541188 0.8003296472506453 a25.464113452886167,25.464113452886167 0 0,0 -0.08205957005259787,0.4293703455889362 l -4.377399808206431 -0.875602557872896" fill="#ff2b04" stroke="none" /><path d="M 120.592083275326 104.11899336999214 l 15.169207256160908 3.034266289658552 a36.469700084259,36.469700084259 0 0,0 -0.12806472236962507,0.6128360564900063 l -15.114884822966918 -3.2942187974339676" fill="#ffc111" stroke="none" /><path d="M 120.43855184770803 104.8234425847677 l 8.130298300473108 1.918728261257129 a29.35363804549986,29.35363804549986 0 0,0 -0.11994801363950978,0.4894288280092316 l -8.096162760317302 -2.0580129138744603" fill="#ff6209" stroke="none" /><path d="M 120.26092885502905 105.52220625578681 l 3.340415683070976 0.9104451485897309 a24.462266209334157,24.462266209334157 0 0,0 -0.11390272748674994,0.4042005970482925 l -3.3242944635096463 -0.9676536695410319" fill="#ff1d02" stroke="none" /><path d="M 120.16314734710363 105.8691983318838 l 4.272072033957079 1.2435379072399648 a25.449380405186876,25.449380405186876 0 0,0 -0.12570016139302387,0.4184149555155288 l -4.250095552560426 -1.3166904663462173" fill="#ff2b04" stroke="none" /><path d="M 120.05942366710727 106.21446072829308 l 10.020092825904046 3.1042503709884315 a31.48992996189753,31.48992996189753 0 0,0 -0.1644003534060464,0.5149817655145297 l -9.965327756720745 -3.275801170194345" fill="#ff7f0b" stroke="none" /><path d="M 119.94978838288452 106.5578916946017 l 6.858160956170176 2.2544137266786923 a28.2191933726542,28.2191933726542 0 0,0 -0.15522515361952677,0.45889558497387034 l -6.818450380978284 -2.371810986126723" fill="#ff5207" stroke="none" /><path d="M 119.83427380445688 106.89939002012753 l 6.985432839287955 2.429896153133908 a28.39598994504573,28.39598994504573 0 0,0 -0.1641015481506975,0.4590212364429459 l -6.942691121093315 -2.5494523459577754" fill="#ff5507" stroke="none" /><path d="M 119.71291397450082 107.23885506374661 l 6.998011369070156 2.569766707280149 a28.45492213584291,28.45492213584291 0 0,0 -0.17231395191087998,0.4570832295726279 l -6.952866733344836 -2.6895182170469356" fill="#ff5507" stroke="none" /><path d="M 119.58574465831526 107.57618678355244 l 6.952866733344836 2.6895182170469356 a28.45492213584291,28.45492213584291 0 0,0 -0.18013500249879585,0.4540578791899141 l -6.905673055879915 -2.808477113450414" fill="#ff5507" stroke="none" /><path d="M 119.4528033332814 107.91128576633889 l 9.717073548985175 3.9518492189262733 a31.48992996189753,31.48992996189753 0 0,0 -0.2079447353843505,0.4989916652995504 l -9.647802969064339 -4.1180733936671015" fill="#ff7f0b" stroke="none" /><path d="M 119.31412917781788 108.2440532568976 l 6.788692819524207 2.8976892840269923 a28.38125689734644,28.38125689734644 0 0,0 -0.19510913722614873,0.4464478886014026 l -6.7379498002810925 -3.0137992424042395" fill="#ff5407" stroke="none" /><path d="M 119.16976305983485 108.57439118712176 l 6.7379498002810925 3.0137992424042395 a28.38125689734644,28.38125689734644 0 0,0 -0.20274425912102653,0.4430327956926437 l -6.68522107630501 -3.1290210203115723" fill="#ff5407" stroke="none" /><path d="M 119.0197475246899 108.90220220490707 l 6.698564830948331 3.1352665712503165 a28.39598994504573,28.39598994504573 0 0,0 -0.2104288107719474,0.4397152819816143 l -6.643756762216471 -3.2497943552970345" fill="#ff5507" stroke="none" /><line stroke="#e1ed5e" stroke-width="0.3" x1="174.33088141563837" x2="178.70328620479359" y1="141.23008692659167" y2="143.65538615756765" /><path d="M 175.20536237346943 141.71514677278685 a86.0,86.0 0 0,1 -30.301960400862466,31.631185727798858" fill="none" id="id5" stroke="none" /><text fill="#e1ed5e" style="font-size:6.75px; font-family:Arial;" text-anchor="middle"><textPath startOffset="22.145653131862474" xlink:href="#id5">May</textPath></text><path d="M 118.18653347947321 110.5 l 3.100484040609886 1.790065295464255 a24.580130590928512,24.580130590928512 0 0,0 -0.21411200445354336,0.3636089929173299 l -3.069298326026577 -1.8430254566751345" fill="#ff1e03" stroke="none" /><path d="M 118.00360718960297 110.81064883170644 l 2.9429897529390647 1.7671807876761585 a24.43280011393557,24.43280011393557 0 0,0 -0.2190016999762054,0.35772281829442293 l -2.9122200885074547 -1.8174407220951385" fill="#ff1c02" stroke="none" /><path d="M 117.62189284568427 111.42229804090321 l 4.722687607508376 3.0611890492939913 a26.628024221130417,26.628024221130417 0 0,0 -0.25192084059836023,0.38144026122813723 l -4.669442327989289 -3.1418091888611897" fill="#ff3c05" stroke="none" /><path d="M 117.423217284605 111.72311816256416 l 5.818467403463092 3.914924538999806 a28.01293070486408,28.01293070486408 0 0,0 -0.2718725133110734,0.39667012192935264 l -5.750405153336699 -4.014229395999203" fill="#ff4f07" stroke="none" /><path d="M 117.21940702142032 112.02048342749411 l 6.064502913813073 4.233494026873109 a28.39598994504573,28.39598994504573 0 0,0 -0.28245207437214787,0.3973042150467798 l -5.990935740910965 -4.336975468629393" fill="#ff5507" stroke="none" /><path d="M 116.79662413953412 112.60449989151573 l 3.7709023182456978 2.8297554000373477 a25.714575263774172,25.714575263774172 0 0,0 -0.26798018807861396,0.35079466847451196 l -3.721770152812779 -2.894070981752737" fill="#ff2f04" stroke="none" /><path d="M 116.1254893667686 113.45245675266167 l 5.667922838645115 4.728382818658985 a28.38125689734644,28.38125689734644 0 0,0 -0.31530959660248226,0.37143391196302067 l -5.585918678535518 -4.824983513071563" fill="#ff5407" stroke="none" /><path d="M 115.89218393027572 113.72728997021213 l 5.585918678535518 4.824983513071563 a28.38125689734644,28.38125689734644 0 0,0 -0.32163929202464453,0.3659664718135699 l -5.502268322552288 -4.920162262696426" fill="#ff5407" stroke="none" /><path d="M 115.6541949942343 113.99807769240083 l 3.6901440247057242 3.2997495414490983 a25.95030402696288,25.95030402696288 0 0,0 -0.2997906390854009,0.32952242794502073 l -3.6329556847784437 -3.3626095449517908" fill="#ff3204" stroke="none" /><path d="M 115.41159269507618 114.26474011684316 l 5.416996422839289 5.013891017919191 a28.38125689734644,28.38125689734644 0 0,0 -0.33401247968627173,0.35470967858179603 l -5.330128109416758 -5.106142156445483" fill="#ff5407" stroke="none" /><path d="M 115.16444852881244 114.52719865689866 l 5.330128109416758 5.106142156445483 a28.38125689734644,28.38125689734644 0 0,0 -0.3400523254905741,0.3489236429281365 l -5.2416889827753765 -5.196888491441357" fill="#ff5407" stroke="none" /><path d="M 114.91283532996324 114.78537596483092 l 10.47291551249132 10.383403951961673 a35.747780746993584,35.747780746993584 0 0,0 -0.4357962242215637,0.43207149254999777 l -10.29312736813979 -10.561655454740333" fill="#ffb811" stroke="none" /><path d="M 114.13192950727249 115.5334660781643 l 6.811323379519942 7.486837562325262 a31.121603769415174,31.121603769415174 0 0,0 -0.3982601597232023,0.3561266906185 l -6.681798192973362 -7.60265978282715" fill="#ff7a0b" stroke="none" /><path d="M 113.86319453409587 115.77377054828091 l 20.541423265734704 23.372368939346345 a52.11619674090953,52.11619674090953 0 0,0 -0.6770651384588718,0.5848327407437376 l -20.137178647512975 -23.7215458125548" fill="#84ff25" stroke="none" /><path d="M 113.59037401385872 116.0094264158162 l 4.576631510798404 5.391260411944274 a28.07186289566126,28.07186289566126 0 0,0 -0.370048197019401,0.30870736717378167 l -4.483408979617108 -5.469029963029926" fill="#ff5007" stroke="none" /><path d="M 113.31354834802062 116.24036423190432 l 4.679558122475358 5.708300023912486 a28.38125689734644,28.38125689734644 0 0,0 -0.37942933382284233,0.30564141293441094 l -4.580878018297263 -5.7877897306403" fill="#ff5407" stroke="none" /><path d="M 113.03279911837588 116.46651593811092 l 4.590021487395659 5.799342205152555 a28.39598994504573,28.39598994504573 0 0,0 -0.3848198262189523,0.2992382244297691 l -4.489791716541475 -5.877281481203116" fill="#ff5507" stroke="none" /><path d="M 112.45986205192187 116.90419585922612 l 4.388238783460525 5.953488695424762 a28.39598994504573,28.39598994504573 0 0,0 -0.39486515681824863,0.28585192240383467 l -4.285392616268308 -6.027941389201674" fill="#ff5507" stroke="none" /><path d="M 112.16784306229584 117.11559508785304 l 5.395155644385601 7.588962067680197 a30.31128614595399,30.31128614595399 0 0,0 -0.4266745227419452,0.2978519540872375 l -5.264086030469897 -7.680458837572556" fill="#ff6f0a" stroke="none" /><path d="M 111.8722381534696 117.32195027204791 l 3.3400292693329563 4.873202521940814 a26.90795212741701,26.90795212741701 0 0,0 -0.3832508743342173,0.2578682921951454 l -3.2558821069017356 -4.929820488193081" fill="#ff4006" stroke="none" /><path d="M 111.5731344415666 117.5232005979908 l 3.881076426680872 5.876444372459583 a28.04239680026267,28.04239680026267 0 0,0 -0.4039632351442627,0.2618440884751668 l -3.7796275592796 -5.942202302638645" fill="#ff5007" stroke="none" /><path d="M 111.27062007382361 117.71928675628689 l 2.46703723534568 3.8785922979566045 a25.596710882179817,25.596710882179817 0 0,0 -0.3727805891794881,0.23264265838116838 l -2.400092517376477 -3.920370753179321" fill="#ff2d04" stroke="none" /><path d="M 110.96478420261333 117.91015095944535 l 3.9155355491814965 6.395733055667545 a28.49912127894079,28.49912127894079 0 0,0 -0.41943546924845393,0.25185894792381713 l -3.805167323375606 -6.462006004127286" fill="#ff5608" stroke="none" /><line stroke="#e1ed5e" stroke-width="0.3" x1="143.1302829299769" x2="145.66735839644613" y1="173.24464959558577" y2="177.55315839532614" /><path d="M 143.63769802327073 174.10635135553383 a86.0,86.0 0 0,1 -40.68552437913181,11.842963189579606" fill="none" id="id6" stroke="none" /><text fill="#e1ed5e" style="font-size:6.75px; font-family:Arial;" text-anchor="middle"><textPath startOffset="21.407464694133747" xlink:href="#id6">June</textPath></text><path d="M 110.65571695917076 118.09573695890943 l 2.2427312318520274 3.8086479395642163 a25.419914309788286,25.419914309788286 0 0,0 -0.37791851018376865,0.21819135358634198 l -2.1770202538078602 -3.84658619042673" fill="#ff2a04" stroke="none" /><path d="M 110.34350942703117 118.27599006163325 l 3.6864209631146423 6.513552615789261 a28.484388231241496,28.484388231241496 0 0,0 -0.4276128065103346,0.23718961550798442 l -3.5740639684482134 -6.5758751467303895" fill="#ff5607" stroke="none" /><path d="M 110.02825361518725 118.45085714620011 l 2.9760414540425093 5.475581076903456 a27.232079176801484,27.232079176801484 0 0,0 -0.4126453411163968,0.21971040180321227 l -2.881607297139559 -5.525861946429237" fill="#ff4406" stroke="none" /><path d="M 109.71004243097381 118.62028667847754 l 3.4947152327011675 6.701577254180139 a28.55805346973797,28.55805346973797 0 0,0 -0.4366292176181352,0.22294598962216708 l -3.3791587933694496 -6.760581195475142" fill="#ff5708" stroke="none" /><path d="M 109.3889696526874 118.78422872680471 l 4.657047303922418 9.317214240157746 a31.41626472340106,31.41626472340106 0 0,0 -0.48446834938776384,0.23697774670413574 l -4.496418705272585 -9.395785736959105" fill="#ff7e0b" stroke="none" /><path d="M 109.06512990194946 118.94263497670748 l 4.222944866055157 8.824330593127081 a30.782743672331407,30.782743672331407 0 0,0 -0.4786149155722229,0.22401594717161896 l -4.070841236611429 -8.895522771869235" fill="#ff750a" stroke="none" /><path d="M 108.73861861582097 119.09545874513695 l 3.6294247169788636 7.930948013473774 a29.721964237982217,29.721964237982217 0 0,0 -0.4657666700725865,0.20833150721059773 l -3.49274464405065 -7.992083271594222" fill="#ff6709" stroke="none" /><path d="M 108.4095320186766 119.2426549942271 l 2.9558531531577303 6.763570471399842 a28.38125689734644,28.38125689734644 0 0,0 -0.4481061576065407,0.19126987264301973 l -2.839311920380758 -6.813314993702266" fill="#ff5407" stroke="none" /><path d="M 107.74402155503746 119.51999308798841 l 2.7653979441884577 6.970609310995762 a28.49912127894079,28.49912127894079 0 0,0 -0.4562950032638464,0.17650470959555178 l -2.645330678431082 -7.017053908729355" fill="#ff5608" stroke="none" /><path d="M 107.407793817531 119.65005319985036 l 5.202310430470558 13.79974648848347 a35.747780746993584,35.747780746993584 0 0,0 -0.5760684194796364,0.2115403030119643 l -4.964652859336795 -13.887017640504157" fill="#ffb811" stroke="none" /><path d="M 107.06938296918513 119.77432235084164 l 3.5858581591413596 10.030283470613886 a31.651993486589767,31.651993486589767 0 0,0 -0.5132057659739229,0.17851960575621226 l -3.4131466211224146 -10.09036150893869" fill="#ff810b" stroke="none" /><path d="M 106.72888874123015 119.89276391827305 l 3.3612176960430977 9.93684286910698 a31.48992996189753,31.48992996189753 0 0,0 -0.5135516669054884,0.16881463334406532 l -3.190143291489875 -9.993078423853065" fill="#ff7f0b" stroke="none" /><path d="M 106.38641147887787 120.00534299687104 l 2.42845177526336 7.607090597933093 a28.985311853017503,28.985311853017503 0 0,0 -0.47530303074874825,0.14725009390325824 l -2.2975081116429874 -7.647657279642996" fill="#ff5d08" stroke="none" /><path d="M 106.0420521117495 120.11202640906438 l 2.1237113725703636 7.0691444595962025 a28.38125689734644,28.38125689734644 0 0,0 -0.46780418624009207,0.13617098076322856 l -2.002047173948665 -7.104559134661949" fill="#ff5407" stroke="none" /><path d="M 105.69591212413111 120.21278271476187 l 2.002047173948665 7.104559134661949 a28.38125689734644,28.38125689734644 0 0,0 -0.47007281017845526,0.1281204347350763 l -1.8797929628355143 -7.137880063541168" fill="#ff5407" stroke="none" /><path d="M 105.3480935250658 120.30758222061773 l 2.0186199880349434 7.6650288905891175 a28.926379662220327,28.926379662220327 0 0,0 -0.48127256857772865,0.1223376049307171 l -1.8867421262318174 -7.698551727355105" fill="#ff5c08" stroke="none" /><path d="M 104.9986988182912 120.39639698878246 l 1.757146088066816 7.169755666885437 a28.381934617540605,28.381934617540605 0 0,0 -0.47420515580723993,0.11191112557681247 l -1.6338087785196969 -7.198862936108474" fill="#ff5407" stroke="none" /><path d="M 104.64783097203109 120.47920084513623 l 1.6540420175251274 7.288014320449541 a28.473353178514728,28.473353178514728 0 0,0 -0.47758976734999403,0.1040884669313438 l -1.5286898335559975 -7.315334245514603" fill="#ff5607" stroke="none" /><path d="M 104.29559338865022 120.5559693870025 l 3.0156312225268653 14.430887070582296 a35.74260944725113,35.74260944725113 0 0,0 -0.6016732407570301,0.12035149899327782 l -2.7674614962388766 -14.480527966238435" fill="#ffb811" stroke="none" /><path d="M 103.94208987418118 120.62667999033965 l 0.8404252285807285 4.397459925832738 a25.47704906876615,25.47704906876615 0 0,0 -0.43027735220508273,0.07841086686450514 l -0.7648131428245886 -4.411238966628607" fill="#ff2b04" stroke="none" /><path d="M 103.58742460773223 120.69131181640829 l 1.2597930570002884 7.266151575800539 a28.374553360643258,28.374553360643258 0 0,0 -0.4806412843429457,0.07908934043316974 l -1.1348742696042706 -7.286706914729379" fill="#ff5407" stroke="none" /><path d="M 103.2317021107853 120.74984581791261 l 0.2314323209099202 1.4859615185867443 a22.503875843905465,22.503875843905465 0 0,0 -0.3822175019067971,0.05617281039774911 l -0.2058897133954376 -1.4897154022833758" fill="#ff0000" stroke="none" /><path d="M 102.875027216393 120.80226474461374 l 2.157758486123374 15.612465519401125 a36.760869305940155,36.760869305940155 0 0,0 -0.625848860164203,0.08102866487894639 l -1.8894318040683953 -15.647205780480467" fill="#ffc512" stroke="none" /><path d="M 102.51750503828377 120.84855314841334 l 0.7647712354620744 6.333402915363535 a27.379409653794426,27.379409653794426 0 0,0 -0.4670980721104301,0.052339313253317976 l -0.655937261750845 -6.3455979891238234" fill="#ff4606" stroke="none" /><line stroke="#e1ed5e" stroke-width="0.3" x1="101.45913802915013" x2="101.54496967792366" y1="184.9874750549273" y2="189.98673829345242" /><path d="M 101.47630435890484 185.9873277026323 a86.0,86.0 0 0,1 -42.54439059252881,-10.42667462771756" fill="none" id="id7" stroke="none" /><text fill="#e1ed5e" style="font-size:6.75px; font-family:Arial;" text-anchor="middle"><textPath startOffset="22.145653131862474" xlink:href="#id7">July</textPath></text><path d="M 100.36049292484886 120.99690560180557 l 0.30368754533208686 17.68827702916881 a38.69088382150001,38.69088382150001 0 0,0 -0.664180470180937,0.005701190525635264 l -2.166508424608768e-15 -17.69088382150001" fill="#ffdd14" stroke="none" /><path d="M 100.0 121.0 l 1.2850951803264683e-15 10.493598490774659 a31.49359849077466,31.49359849077466 0 0,0 -0.5406294968549882,-0.004640654014576721 l 0.18013657200613478 -10.492052234954517" fill="#ff7f0b" stroke="none" /><path d="M 99.63950707515114 120.99690560180557 l -0.2028483544062826 11.814899698062431 a32.81664090721898,32.81664090721898 0 0,0 -0.5631752599944335,-0.014505396977276305 l 0.4056369284714601 -11.809676583735106" fill="#ff910d" stroke="none" /><path d="M 99.27912038922189 120.98762331915562 l -0.5062190061768631 14.738014031454682 a35.74670523451153,35.74670523451153 0 0,0 -0.6130972556602956,-0.02632903415318486 l 0.7591420224379974 -14.72715242887567" fill="#ffb811" stroke="none" /><path d="M 98.91894614982273 120.97215588758144 l -0.366994197338388 7.119589385076822 a28.12904185378222,28.12904185378222 0 0,0 -0.4820187895326825,-0.02899705342004055 l 0.4891573390035169 -7.112240353832091" fill="#ff5107" stroke="none" /><path d="M 98.55909050195518 120.95050786540614 l -0.5063083397940701 7.36161214119947 a28.379002741048446,28.379002741048446 0 0,0 -0.48572826107101774,-0.03759843936711719 l 0.6326055956403239 -7.3518359348372995" fill="#ff5407" stroke="none" /><path d="M 98.19965949673042 120.92268563240118 l -0.42134045929411945 4.8966148114828805 a25.914708983721386,25.914708983721386 0 0,0 -0.4428952556670416,-0.041942641188130236 l 0.5053352783461763 -4.888660414789566" fill="#ff3204" stroke="none" /><path d="M 97.84075906011543 120.88869738790638 l -1.257209045378041 12.162357065925423 a33.227162548312116,33.227162548312116 0 0,0 -0.5668618777492728,-0.06351805576253572 l 1.4658068247281129 -12.138983249655917" fill="#ff960d" stroke="none" /><path d="M 97.48249496171623 120.84855314841334 l -0.5413485293570371 4.483142402689964 a25.515708585929097,25.515708585929097 0 0,0 -0.4344015099829114,-0.05624197248849917 l 0.6182278612307426 -4.473188834001068" fill="#ff2c04" stroke="none" /><path d="M 96.76829788921471 120.74984581791261 l -1.6171989516922383 10.383577370115258 a31.50875879685723,31.50875879685723 0 0,0 -0.5337321121388954,-0.08782541594356494 l 1.7952085668841973 -10.354285955676026" fill="#ff7f0b" stroke="none" /><path d="M 96.41257539226777 120.69131181640829 l -1.7914660217069218 10.33269994963618 a31.48685075492838,31.48685075492838 0 0,0 -0.5317758244111795,-0.0969072695924557 l 1.9685765796691586 -10.300424506112359" fill="#ff7f0b" stroke="none" /><path d="M 96.05791012581884 120.62667999033965 l -2.7753961936529596 14.52204565599292 a35.7848785611004,35.7848785611004 0 0,0 -0.6023847779141364,-0.12049382635245917 l 3.024277457098054 -14.472262432977601" fill="#ffb811" stroke="none" /><path d="M 95.70440661134978 120.55596938700252 l -0.6267932397422119 2.999432553873455 a24.064223459642324,24.064223459642324 0 0,0 -0.40363447225530935,-0.08797025457814757 l 0.6781901286166576 -2.988230841161589" fill="#ff1702" stroke="none" /><path d="M 95.35216902796893 120.47920084513623 l -3.354925369186109 14.782420201907847 a36.158346587229815,36.158346587229815 0 0,0 -0.6041333900660952,-0.14257383508566182 l 3.608190912992092 -14.722650223175958" fill="#ffbd11" stroke="none" /><path d="M 95.00130118170881 120.39639698878247 l -2.722824895913126 11.110054741599615 a32.438841365065976,32.438841365065976 0 0,0 -0.5397123555645563,-0.13719277025576262 l 2.9131425447030614 -11.06167673950859" fill="#ff8c0c" stroke="none" /><path d="M 94.6519064749342 120.30758222061772 l -1.5051926238663096 5.715461560978645 a26.910338881144295,26.910338881144295 0 0,0 -0.44571030333391487,-0.12148032515933799 l 1.6030843281349196 -5.688780741675163" fill="#ff4006" stroke="none" /><path d="M 93.61358852112213 120.00534299687104 l -2.883029272147343 9.031048132442136 a30.480067940397106,30.480067940397106 0 0,0 -0.4970823916446657,-0.16340085544446137 l 3.0376344014397523 -8.980226355595653" fill="#ff710a" stroke="none" /><path d="M 93.27111125876986 119.89276391827306 l -4.646543566360873 13.73668041726151 a35.50126739288899,35.50126739288899 0 0,0 -0.5756179348745227,-0.20022979789596965 l 4.881667273280417 -13.65489218679695" fill="#ffb410" stroke="none" /><path d="M 92.93061703081489 119.77432235084164 l -6.514373465117951 18.22186198916035 a40.35131303025817,40.35131303025817 0 0,0 -0.6502534321161845,-0.23878206722159878 l 6.826216048888254 -18.10734907293003" fill="#fff216" stroke="none" /><path d="M 92.59220618246901 119.65005319985036 l -3.3478088941707536 8.880460835411519 a30.490543137311303,30.490543137311303 0 0,0 -0.48817934925722184,-0.18883825957955272 l 3.4997605059215036 -8.821682687693926" fill="#ff720a" stroke="none" /><path d="M 92.25597844496254 119.51999308798841 l -3.8161513689466795 9.61919434432622 a31.348522170079704,31.348522170079704 0 0,0 -0.4985094822366989,-0.20273946657635397 l 3.9807153123738193 -9.552267621170575" fill="#ff7d0b" stroke="none" /><path d="M 91.59046798132341 119.24265499422711 l -5.1276087333520595 11.732972248889428 a33.80449175545667,33.80449175545667 0 0,0 -0.5297431028570463,-0.23694735184771212 l 5.3282652390647405 -11.64322114613186" fill="#ff9e0e" stroke="none" /><path d="M 91.26138138417905 119.09545874513695 l -8.859689357900175 19.3600201663702 a42.290948225965664,42.290948225965664 0 0,0 -0.6575462808025848,-0.307764860873706 l 9.19072435257425 -19.20507907392597" fill="#f4ff19" stroke="none" /><path d="M 90.28995756902619 118.62028667847754 l -6.662603061885629 12.776419868308526 a35.4092742430546,35.4092742430546 0 0,0 -0.5365536709057522,-0.28568460825161324 l 6.880945548577943 -12.66016479233434" fill="#ffb310" stroke="none" /><path d="M 89.97174638481275 118.45085714620012 l -3.52677094089721 6.4888613027612525 a28.38535268460684,28.38535268460684 0 0,0 -0.4261260669076706,-0.23636494611233586 l 3.637641195960983 -6.4273634412157685" fill="#ff5407" stroke="none" /><line stroke="#e1ed5e" stroke-width="0.3" x1="58.13341422392154" x2="55.67067388415222" y1="173.97424548756322" y2="178.32567169271397" /><path d="M 57.64086615596768 174.84453072859336 a86.0,86.0 0 0,1 -31.369924170532247,-30.572349798747897" fill="none" id="id8" stroke="none" /><text fill="#e1ed5e" style="font-size:6.75px; font-family:Arial;" text-anchor="middle"><textPath startOffset="22.145653131862474" xlink:href="#id8">August</textPath></text><path d="M 89.34428304082925 118.09573695890944 l -3.580744684774942 6.0808873003082295 a28.056835187007977,28.056835187007977 0 0,0 -0.4129261290938636,-0.24795027618951804 l 3.6846035704262325 -6.018523023582793" fill="#ff5007" stroke="none" /><path d="M 89.03521579738668 117.91015095944536 l -3.560252623171774 5.815405096579124 a27.818675470948882,27.818675470948882 0 0,0 -0.40514042136066214,-0.25283758698505915 l 3.6595571733221486 -5.753431712752518" fill="#ff4c07" stroke="none" /><path d="M 88.1277618465304 117.32195027204791 l -5.0118763390100405 7.312477360354683 a29.86516946161936,29.86516946161936 0 0,0 -0.4203947950372398,-0.293468216441119 l 5.136666225221045 -7.225364328108435" fill="#ff6909" stroke="none" /><path d="M 87.83215693770417 117.11559508785305 l -5.129188129739269 7.214845450305763 a29.852263311834776,29.852263311834776 0 0,0 -0.4151156081129846,-0.30051168747095297 l 5.252284748226208 -7.125732991461744" fill="#ff6909" stroke="none" /><path d="M 87.54013794807813 116.9041958592261 l -2.6776123939477965 3.632695462740157 a25.512879840770832,25.512879840770832 0 0,0 -0.35031250696976346,-0.262881036059157 l 2.7395778898283263 -3.586195399416985" fill="#ff2c04" stroke="none" /><path d="M 86.96720088162412 116.46651593811092 l -4.578811594281024 5.785178871400528 a28.377927228566396,28.377927228566396 0 0,0 -0.3793848194444978,-0.30560555530222483 l 4.677447184080784 -5.705725022304892" fill="#ff5407" stroke="none" /><path d="M 86.68645165197938 116.24036423190432 l -2.8166269679614544 3.4358269237741688 a25.442779999817592,25.442779999817592 0 0,0 -0.335391167343904,-0.27979524039850584 l 2.875192469467251 -3.3869694994637927" fill="#ff2b04" stroke="none" /><path d="M 85.86807049272751 115.53346607816431 l -2.981009882382651 3.2766520568075332 a25.429770718699114,25.429770718699114 0 0,0 -0.320379059737124,-0.2965380747110436 l 3.0368187134337425 -3.2249962359641122" fill="#ff2b04" stroke="none" /><path d="M 85.60350026404147 115.28858382429668 l -3.1494764065435747 3.344634802014965 a25.594103132737043,25.594103132737043 0 0,0 -0.31727853547867635,-0.3039456598577385 l 3.2064274278875655 -3.2900770118516443" fill="#ff2d04" stroke="none" /><path d="M 85.34317274990678 115.03919595460226 l -5.2496594832636685 5.386613099587177 a28.521603909729915,28.521603909729915 0 0,0 -0.3477029072258909,-0.34473110536332735 l 5.341354310619522 -5.29570198399519" fill="#ff5608" stroke="none" /><path d="M 84.83555147118756 114.52719865689866 l -5.3629280793994525 5.13756378572357 a28.426678883403362,28.426678883403362 0 0,0 -0.33454704058504703,-0.3552773637316589 l 5.450330953720752 -5.044744962047421" fill="#ff5507" stroke="none" /><path d="M 84.3458050057657 113.99807769240083 l -6.960237637170619 6.223887414113068 a30.337113178570853,30.337113178570853 0 0,0 -0.3438046327588494,-0.3911865607336185 l 7.066053333888061 -6.103488575568149" fill="#ff6f0a" stroke="none" /><path d="M 83.8745106332314 113.45245675266167 l -2.269352586771136 1.8931746402061116 a23.95534623714454,23.95534623714454 0 0,0 -0.2607176466066335,-0.31803313676373507 l 2.3015170526163997 -1.8539392217438813" fill="#ff1502" stroke="none" /><path d="M 83.64595745247003 113.17365903436017 l -5.745399717909968 4.628087317241728 a28.37758836846931,28.37758836846931 0 0,0 -0.3023342445458163,-0.3819894415030959 l 5.8240003930973465 -4.528777931823951" fill="#ff5407" stroke="none" /><path d="M 83.20337586046588 112.60449989151573 l -5.134460596523342 3.85299495269085 a27.41936567915491,27.41936567915491 0 0,0 -0.27928318776493666,-0.3789012820923893 l 5.199845803872109 -3.764287361329581" fill="#ff4706" stroke="none" /><path d="M 82.98947788004972 112.3143062007846 l -11.968911011274864 8.664568556065696 a35.77597980029003,35.77597980029003 0 0,0 -0.35586009597989054,-0.5005617905764753 l 12.115886205784715 -8.457829538779716" fill="#ffb811" stroke="none" /><path d="M 82.78059297857968 112.02048342749411 l -6.057798134695213 4.228813570329454 a28.387813103572622,28.387813103572622 0 0,0 -0.2755108409465001,-0.4019785506821785 l 6.129498712457038 -4.124200284577224" fill="#ff5407" stroke="none" /><path d="M 82.576782715395 111.72311816256416 l -8.732663915627002 5.8757260088417995 a31.525377674662032,31.525377674662032 0 0,0 -0.2982534332261655,-0.45159371178566104 l 8.832241787773896 -5.724952418717078" fill="#ff800b" stroke="none" /><path d="M 82.37810715431573 111.42229804090323 l -6.261331812200666 4.058519633403637 a28.461625672546088,28.461625672546088 0 0,0 -0.26222957310495476,-0.4122684440953794 l 6.3300790769315105 -3.950437514629585" fill="#ff5507" stroke="none" /><path d="M 81.99639281039703 110.81064883170644 l -17.024210513882394 10.222549268288384 a40.85759948139672,40.85759948139672 0 0,0 -0.35590138505408253,-0.6043983592964566 l 17.197185609066246 -9.928799740698368" fill="#fff817" stroke="none" /><line stroke="#e1ed5e" stroke-width="0.3" x1="26.387840678322732" x2="22.057713659400548" y1="142.50000000000003" y2="145.00000000000006" /><path d="M 25.521815274538298 143.00000000000003 a86.0,86.0 0 0,1 -11.493303480769221,-40.785679425670985" fill="none" id="id9" stroke="none" /><text fill="#e1ed5e" style="font-size:6.75px; font-family:Arial;" text-anchor="middle"><textPath startOffset="21.40746469413373" xlink:href="#id9">September</textPath></text><path d="M 81.81346652052679 110.50000000000001 l -6.395405432227398 3.6923890478732875 a28.38477809574657,28.38477809574657 0 0,0 -0.24000902528936224,-0.42407295046567783 l 6.457847822538139 -3.5820593273084884" fill="#ff5407" stroke="none" /><path d="M 81.63589988554817 110.18625677009913 l -13.530869878985753 7.50534543218282 a36.47302975303904,36.47302975303904 0 0,0 -0.2990000802668627,-0.5501264706101283 l 13.657715308867946 -7.271964128098105" fill="#ffc111" stroke="none" /><path d="M 81.4637452351635 109.86951160357371 l -6.520818906087279 3.471968780905939 a28.387533175666338,28.387533175666338 0 0,0 -0.2253320343852149,-0.43210388707606223 l 6.579459009447443 -3.359518650725374" fill="#ff5407" stroke="none" /><path d="M 81.29705330413844 109.54985784667822 l -6.597973439617258 3.3689722506906192 a28.40832150597004,28.40832150597004 0 0,0 -0.2180407488495776,-0.43622755740635727 l 6.654834101678572 -3.255212837120509" fill="#ff5507" stroke="none" /><path d="M 81.1358732173502 109.22738970284198 l -17.884331475125563 8.748122719762879 a40.909268279678145,40.909268279678145 0 0,0 -0.3031586040952642,-0.6334848854388531 l 18.03186933718074 -8.43982533225892" fill="#fff917" stroke="none" /><path d="M 80.9802524753101 108.90220220490708 l -11.043091186494772 5.168724273641824 a33.192849280220464,33.192849280220464 0 0,0 -0.2371163356075114,-0.5181419859877858 l 11.130191986957339 -4.978393305439349" fill="#ff960d" stroke="none" /><path d="M 80.83023694016515 108.57439118712176 l -8.443673223873608 3.7767476338511226 a30.249834604000235,30.249834604000235 0 0,0 -0.20795481863849058,-0.4758413215575394 l 8.507261924529066 -3.6312442425177336" fill="#ff6e0a" stroke="none" /><path d="M 80.5471966667186 107.91128576633889 l -20.68879598210701 8.413953216496283 a43.33429846488659,43.33429846488659 0 0,0 -0.27432947892073634,-0.691489492159393 l 20.83018413599387 -8.057562707123324" fill="#e8ff1a" stroke="none" /><path d="M 80.41425534168474 107.57618678355246 l -6.88097464095578 2.6617088112928107 a28.3778388302802,28.3778388302802 0 0,0 -0.17184715994623237,-0.4558450084281807 l 6.925652484716449 -2.543195522670485" fill="#ff5407" stroke="none" /><path d="M 80.28708602549918 107.23885506374661 l -4.149018598262938 1.5235770991779538 a25.419914309788286,25.419914309788286 0 0,0 -0.14690268943492574,-0.41091296761740564 l 4.174561457741807 -1.4521291751796266" fill="#ff2a04" stroke="none" /><path d="M 80.16572619554312 106.89939002012753 l -8.356511889263816 2.906828618999321 a29.847651867904897,29.847651867904897 0 0,0 -0.16418280583694178,-0.48537729208417546 l 8.405180116673126 -2.762949652440984" fill="#ff6909" stroke="none" /><path d="M 80.05021161711548 106.5578916946017 l -11.378416831122488 3.740311616465641 a32.977407923713685,32.977407923713685 0 0,0 -0.17216607098313133,-0.5393077652187689 l 11.440947617882875 -3.54443481755548" fill="#ff930d" stroke="none" /><path d="M 79.94057633289273 106.21446072829308 l -35.7050668102242 11.061520967676792 a58.37925951702263,58.37925951702263 0 0,0 -0.2883481729794625,-0.959817287687919 l 35.88969130320729 -10.446966076398148" fill="#42ff2d" stroke="none" /><path d="M 79.83685265289637 105.86919833188381 l -7.500938027463166 2.183413739952388 a28.812257474741592,28.812257474741592 0 0,0 -0.13415742774361092,-0.4760773827715246 l 7.537313947281351 -2.0543284332778677" fill="#ff5a08" stroke="none" /><path d="M 79.73907114497094 105.5222062557868 l -14.228749356400206 3.8781089095247676 a35.747780746993584,35.747780746993584 0 0,0 -0.1562867766885745,-0.5934463473242162 l 14.293225613893513 -3.633282057827749" fill="#ffb811" stroke="none" /><path d="M 79.64726062577567 105.17358676015961 l -7.444742934411773 1.892424541486687 a28.681501676410356,28.681501676410356 0 0,0 -0.11720145724189744,-0.4782219406422911 l 7.476131918169964 -1.7643467762362963" fill="#ff5908" stroke="none" /><path d="M 79.56144815229197 104.8234425847677 l -10.451147156072361 2.466442271834749 a31.73824074782144,31.73824074782144 0 0,0 -0.12058889928304944,-0.5313369403862562 l 10.491946916913077 -2.2866709975094666" fill="#ff820c" stroke="none" /><path d="M 79.48165901384964 104.47187691870673 l -7.214564848056555 1.5723808296350048 a28.38392357898001,28.38392357898001 0 0,0 -0.09967121430953416,-0.4769628418568675 l 7.2404937731904555 -1.448301536492728" fill="#ff5407" stroke="none" /><path d="M 79.407916724674 104.11899336999214 l -6.035639757993726 1.2072969895486954 a27.155202133906563,27.155202133906563 0 0,0 -0.08750920058233055,-0.4578851153151513 l 6.055475250858214 -1.1035093092002295" fill="#ff4306" stroke="none" /><path d="M 79.34024301695615 103.76489593502545 l -4.36236215598278 0.7949677027492646 a25.434205366056602,25.434205366056602 0 0,0 -0.07458905616231376,-0.430209854673893 l 4.375366029637328 -0.719964815154779" fill="#ff2b04" stroke="none" /><path d="M 79.2786578344484 103.40968896794605 l -61.65303166015367 10.144982897948216 a83.4821333733698,83.4821333733698 0 0,0 -0.22054591393660455,-1.4160629764366301 l 61.81809906622855 -9.085131739580136" fill="#4cd7ff" stroke="none" /><path d="M 79.17382384314188 102.69636545807758 l -11.715572445079115 1.5168154069471045 a32.81335543758204,32.81335543758204 0 0,0 -0.06752975070630922,-0.5592432091652653 l 11.739884282045084 -1.3154785208584399" fill="#ff910d" stroke="none" /><path d="M 79.13060592940153 102.33845913500099 l -13.683268977901434 1.5332388295417128 a34.76890232480477,34.76890232480477 0 0,0 -0.06137142977234055,-0.5937129113743554 l 13.707572800155441 -1.298121395884426" fill="#ffab0f" stroke="none" /><path d="M 79.0935383218832 101.97986365728391 l -14.680961704771965 1.390302337180239 a35.746646302320734,35.746646302320734 0 0,0 -0.0526094922814254,-0.6114020466047727 l 14.702664819751131 -1.1380792431998044" fill="#ffb811" stroke="none" /><path d="M 79.06263194458094 101.62068470465958 l -11.765974526133034 0.9107608415462961 a32.80117120713472,32.80117120713472 0 0,0 -0.03863671641957146,-0.5617693771469152 l 11.779875203717673 -0.7086480402450376" fill="#ff910d" stroke="none" /><path d="M 79.03789590574601 101.26102812881392 l -4.555443924286117 0.2740441943198782 a25.563679389238,25.563679389238 0 0,0 -0.022591488433620494,-0.4382688402475994 l 4.55947700217631 -0.195803560695548" fill="#ff2c04" stroke="none" /><path d="M 79.00696218219943 100.54070618675478 l -12.199602698227851 0.31421849053635786 a33.203648604184046,33.203648604184046 0 0,0 -0.009784907169564296,-0.5699217876408575 l 12.20319903699608 -0.10474978692644793" fill="#ff960d" stroke="none" /><line stroke="#e1ed5e" stroke-width="0.3" x1="15.003131293944662" x2="10.003315487706104" y1="100.72959589197737" y2="100.7725132973878" /><path d="M 14.003168132696942 100.73817937305945 a86.0,86.0 0 0,1 10.791469493833604,-42.45332614584628" fill="none" id="id10" stroke="none" /><text fill="#e1ed5e" style="font-size:6.75px; font-family:Arial;" text-anchor="middle"><textPath startOffset="22.145653131862435" xlink:href="#id10">October</textPath></text><path d="M 79.00077361379809 99.81974689727619 l -14.78990279149338 -0.12695352762623635 a35.790447653130734,35.790447653130734 0 0,0 0.010547220638845832,-0.6143227254961506 l 14.785544139255869 0.38082316909143943" fill="#ffb811" stroke="none" /><path d="M 79.01933749520258 99.09900007780938 l -7.6578541597415795 -0.32886120733778607 a28.664912264700952,28.664912264700952 0 0,0 0.02533215285712916,-0.4914369978892465 l 7.65108041742788 0.4602699986037446" fill="#ff5808" stroke="none" /><path d="M 79.03789590574601 98.7389718711861 l -16.636110373374123 -1.0007870889558357 a37.66618562096639,37.66618562096639 0 0,0 0.04436724906114961,-0.6450900640763987 l 16.61647916314791 1.2862205771865594" fill="#ffd013" stroke="none" /><path d="M 79.0935383218832 98.0201363427161 l -2.9591967282426923 -0.28023900682981995 a23.972436572475722,23.972436572475722 0 0,0 0.0423143271488924,-0.4093527307023574 l 2.953950008612136 0.33099625981509007" fill="#ff1602" stroke="none" /><path d="M 79.13060592940154 97.66154086499901 l -17.79434489359116 -1.9938934607785301 a38.90570639000342,38.90570639000342 0 0,0 0.08006778394142089,-0.6630761105115472 l 17.75749502339007 2.2990632482135136" fill="#ffe015" stroke="none" /><path d="M 79.17382384314186 97.30363454192245 l -17.227565129521974 -2.2304532138862037 a38.37135348299771,38.37135348299771 0 0,0 0.09018270007544572,-0.6525170932841221 l 17.18673791289132 2.525858615370393" fill="#ffd914" stroke="none" /><path d="M 79.22317932658666 96.9465228501225 l -17.498412014816594 -2.5716639752662513 a38.68637550890402,38.68637550890402 0 0,0 0.1022029708482222,-0.656216388309968 l 17.451687551830105 2.8716685455076694" fill="#ffdd14" stroke="none" /><path d="M 79.2786578344484 96.59031103205396 l -17.02282986543511 -2.8011001764108623 a38.25175060177484,38.25175060177484 0 0,0 0.11217814485961138,-0.6470137293683016 l 16.972236903083264 3.0929069386997563" fill="#ffd814" stroke="none" /><path d="M 79.34024301695615 96.23510406497455 l -43.489664849705214 -7.9252656525755 a65.20589083372914,65.20589083372914 0 0,0 0.2101297332268199,-1.0994875566162474 l 43.34720882419624 8.670655774225061" fill="#35ff6a" stroke="none" /><path d="M 79.48165901384962 95.52812308129327 l -15.978578132008053 -3.4824567342218136 a37.35366821316896,37.35366821316896 0 0,0 0.14192461925665276,-0.6253460592944782 l 15.916442651193739 3.7562371274552997" fill="#ffcc13" stroke="none" /><path d="M 79.56144815229197 95.17655741523228 l -14.35493784638788 -3.3877262452782637 a35.74926878481121,35.74926878481121 0 0,0 0.14608253236468285,-0.5960665828343086 l 14.2946677875069 3.63364865272069" fill="#ffb811" stroke="none" /><path d="M 79.64726062577567 94.8264132398404 l -13.479325653861613 -3.4263918707186707 a34.907997028133806,34.907997028133806 0 0,0 0.15261530148666952,-0.5795051579668734 l 13.418520871570218 3.6572775330583287" fill="#ffad10" stroke="none" /><path d="M 79.73907114497095 94.47779374421319 l -8.954318280040058 -2.4405392653096363 a30.28095080074114,30.28095080074114 0 0,0 0.1409960490815172,-0.5003452373590421 l 8.91110373888396 2.5938924265716916" fill="#ff6f0a" stroke="none" /><path d="M 79.83685265289637 94.1308016681162 l -8.482184877487889 -2.4690403971497608 a29.83423006145084,29.83423006145084 0 0,0 0.14735791103961995,-0.49050656028772355 l 8.43855064644464 2.614284561028208" fill="#ff6809" stroke="none" /><path d="M 79.94057633289273 93.78553927170692 l -10.914794232374337 -3.3814311537631365 a32.42658346938016,32.42658346938016 0 0,0 0.1692903664303804,-0.5302996616655226 l 10.8551391501667 3.5682998491200504" fill="#ff8c0c" stroke="none" /><path d="M 80.05021161711548 93.44210830539832 l -17.77365192275118 -5.8425524165935165 a39.70930574371373,39.70930574371373 0 0,0 0.21842874822091224,-0.6457457818700854 l 17.670737752957905 6.1467998729377635" fill="#ffea16" stroke="none" /><path d="M 80.16572619554312 93.10060997987247 l -12.917971702909133 -4.49354112613459 a34.67720383592436,34.67720383592436 0 0,0 0.20040093147044283,-0.5605570720357019 l 12.838930601394747 4.714633154551214" fill="#ffaa0f" stroke="none" /><path d="M 80.41425534168474 92.42381321644754 l -9.893407209502529 -3.826982443228844 a31.607794343491886,31.607794343491886 0 0,0 0.2000943838772299,-0.5043685586964953 l 9.826254150659167 3.996252019138922" fill="#ff810b" stroke="none" /><path d="M 80.5471966667186 92.08871423366112 l -11.653500700275078 -4.7393772834979115 a33.580372633855,33.580372633855 0 0,0 0.2217490388166757,-0.5321169682569136 l 11.570425816921924 4.938726761196088" fill="#ff9b0e" stroke="none" /><path d="M 80.68587082218212 91.75594674310238 l -6.7881101572662415 -2.8974405801563075 a28.380623376295368,28.380623376295368 0 0,0 0.1951047820368566,-0.44643792307600294 l 6.737371493212407 3.0135405730081772" fill="#ff5407" stroke="none" /><path d="M 80.9802524753101 91.09779779509293 l -57.05924257406971 -26.706606614721213 a84.0,84.0 0 0,0 0.6224829681603801,-1.3007499917396512 l 56.59238034794942 27.68216910852595" fill="#4dd2ff" stroke="none" /><path d="M 81.29705330413844 90.45014215332179 l -4.292841593754284 -2.191955505478303 a25.82007861834882,25.82007861834882 0 0,0 0.2049523221005443,-0.39302310160441517 l 4.2545812026788 2.2653248501872048" fill="#ff3004" stroke="none" /><path d="M 81.46374523516351 90.13048839642627 l -5.643974196076545 -3.0050983612999302 a27.39414270149372,27.39414270149372 0 0,0 0.22457281235061172,-0.41318868056212676 l 5.5915560341105826 3.1015418753366766" fill="#ff4606" stroke="none" /><path d="M 81.63589988554816 89.8137432299009 l -6.08714311800021 -3.3764356766654804 a27.960864114294775,27.960864114294775 0 0,0 0.2364245977080992,-0.41773961038280305 l 6.0282851552707415 3.4804320571473886" fill="#ff4e07" stroke="none" /><line stroke="#e1ed5e" stroke-width="0.3" x1="26.387840678322718" x2="22.05771365940052" y1="57.49999999999999" y2="54.99999999999999" /><path d="M 25.521815274538284 56.99999999999999 a86.0,86.0 0 0,1 29.574782752854787,-30.34633250058573" fill="none" id="id11" stroke="none" /><text fill="#e1ed5e" style="font-size:6.75px; font-family:Arial;" text-anchor="middle"><textPath startOffset="21.40746469413373" xlink:href="#id11">November</textPath></text><path d="M 81.99639281039701 89.18935116829357 l -6.874685123435258 -4.128050890875598 a29.018859002628794,29.018859002628794 0 0,0 0.2601085190117506,-0.424867717891596 l 6.802808639968115 4.245455724891737" fill="#ff5d08" stroke="none" /><path d="M 82.18462484594161 88.88188828441811 l -53.23849541878335 -33.224758643417566 a83.7552546116193,83.7552546116193 0 0,0 0.7716742857484491,-1.2132001488886044 l 52.66030344140901 34.13377246698484" fill="#4dd4ff" stroke="none" /><path d="M 82.37810715431573 88.57770195909679 l -9.910448676847249 -6.423833097688351 a32.810276230612885,32.810276230612885 0 0,0 0.3104095256801373,-0.46999958511533246 l 9.798714712246383 6.593012561142744" fill="#ff910d" stroke="none" /><path d="M 82.576782715395 88.27688183743585 l -6.126589478755309 -4.122242822307722 a28.384306638220192,28.384306638220192 0 0,0 0.2754768098214527,-0.40192889825370093 l 6.054922932118544 4.226806455631459" fill="#ff5407" stroke="none" /><path d="M 82.78059297857968 87.97951657250589 l -9.592062377624663 -6.6960044966877525 a32.698039873239665,32.698039873239665 0 0,0 0.32524413510403355,-0.45749660746276016 l 9.475703143990657 6.859678330860032" fill="#ff8f0d" stroke="none" /><path d="M 82.98947788004972 87.6856937992154 l -5.978404899221813 -4.327904105597398 a28.380520244961474,28.380520244961474 0 0,0 0.2890731411218002,-0.39218323403595773 l 5.903229738516194 4.429893648902218" fill="#ff5407" stroke="none" /><path d="M 83.2033758604659 87.39550010848427 l -11.334307154578793 -8.505475392762886 a35.170731467755324,35.170731467755324 0 0,0 0.3665259541295673,-0.4797942395967923 l 11.186629223094918 8.698790545600563" fill="#ffb010" stroke="none" /><path d="M 83.64595745247003 86.82634096563983 l -24.434852232432366 -19.682987306013572 a52.376456028517566,52.376456028517566 0 0,0 0.5700383629678918,-0.6953541158795198 l 24.093367050225844 20.099543703591582" fill="#81ff25" stroke="none" /><path d="M 83.8745106332314 86.54754324733833 l -17.559360712753428 -14.64864322688382 a43.86731066455165,43.86731066455165 0 0,0 0.4873562886839159,-0.5741044826296956 l 17.305309860562396 14.947914491963072" fill="#e1ff1b" stroke="none" /><path d="M 84.10781606972428 86.27271002978789 l -11.720149350629953 -10.123585866873324 a36.487055614448764,36.487055614448764 0 0,0 0.41350074023649164,-0.4704879371051901 l 11.544637546434869 10.323286081789814" fill="#ffc112" stroke="none" /><path d="M 84.34580500576568 86.00192230759919 l -14.352123282088293 -12.83375713842724 a40.253279330867066,40.253279330867066 0 0,0 0.46502562449156903,-0.5111446218154208 l 14.129699956754859 13.078239335800317" fill="#fff116" stroke="none" /><path d="M 84.58840730492382 85.73525988315684 l -13.616739588905874 -12.60345087737293 a39.55431408191715,39.55431408191715 0 0,0 0.4655056179004316,-0.49435083461124946 l 13.398378137269171 12.83534317192869" fill="#ffe815" stroke="none" /><path d="M 84.83555147118756 85.47280134310135 l -12.92979497868404 -12.386451105784012 a38.90541172904943,38.90541172904943 0 0,0 0.46614833798529604,-0.47830926020012055 l 12.715259839547942 12.606583058051863" fill="#ffe015" stroke="none" /><path d="M 85.08716467003674 85.21462403516908 l -20.935054698331424 -20.75612368207467 a50.48038645485689,50.48038645485689 0 0,0 0.6153993717811741,-0.6101395796963994 l 20.575663406420276 21.11244327199974" fill="#95ff23" stroke="none" /><path d="M 85.60350026404147 84.71141617570332 l -10.10020558632165 -10.726068320858193 a35.73304769929429,35.73304769929429 0 0,0 0.4501857429262717,-0.41668520276966065 l 9.914590072081424 10.897871269760218" fill="#ffb711" stroke="none" /><path d="M 85.86807049272753 84.46653392183569 l -12.96856142280452 -14.254720761241916 a40.27123891601251,40.27123891601251 0 0,0 0.5153471576134951,-0.4608266061262547 l 12.721949238367632 14.475242897251572" fill="#fff116" stroke="none" /><path d="M 86.13680546590413 84.22622945171909 l -14.061926968560247 -15.999891577891546 a42.30104036363968,42.30104036363968 0 0,0 0.549551992313377,-0.4746899221208952 l 13.78519549648402 16.23892563247715" fill="#f4ff19" stroke="none" /><path d="M 86.40962598614128 83.9905735841838 l -9.603403334630771 -11.312784980780846 a35.8392877062539,35.8392877062539 0 0,0 0.4724397467831735,-0.3941260396683817 l 9.407789253685689 11.47597320436111" fill="#ffb911" stroke="none" /><path d="M 86.96720088162412 83.53348406188908 l -18.298212094193783 -23.11919322558578 a50.4842612464018,50.4842612464018 0 0,0 0.6841580334839172,-0.5320054249299655 l 17.89864411607462 23.42989970213655" fill="#95ff23" stroke="none" /><path d="M 87.25179093698888 83.31218511350988 l -11.877502503289083 -15.548032049757909 a40.5656936073306,40.5656936073306 0 0,0 0.5569998335445705,-0.4179830591649855 l 11.60884968083376 15.749634136186895" fill="#fff517" stroke="none" /><path d="M 87.54013794807813 83.09580414077388 l -11.807080937591799 -16.01857290739436 a40.8997949300075,40.8997949300075 0 0,0 0.5687388948272715,-0.41172309996203926 l 11.530361032390559 16.21889677872948" fill="#fff917" stroke="none" /><path d="M 87.83215693770416 82.88440491214696 l -10.402551550108344 -14.632491502448623 a38.953353066262935,38.953353066262935 0 0,0 0.5483239229347038,-0.38277268319031527 l 10.149832535999876 14.808909001444066" fill="#ffe115" stroke="none" /><path d="M 88.12776184653039 82.6780497279521 l -13.658937252061486 -19.92879765304292 a45.160371328927916,45.160371328927916 0 0,0 0.6432206997809827,-0.43278759284041474 l 13.314820264183513 20.160334919940446" fill="#d2ff1c" stroke="none" /><path d="M 88.4268655584334 82.4767994020092 l -10.96680962307534 -16.605147543685796 a40.8997949300075,40.8997949300075 0 0,0 0.5891797906699292,-0.38189922204396287 l 10.680144200148385 16.790960607433664" fill="#fff917" stroke="none" /><path d="M 88.72937992617638 82.28071324371311 l -11.179165738362059 -17.57550535077995 a41.829597570309964,41.829597570309964 0 0,0 0.6091900673948598,-0.38017965755697297 l 10.8758115421775 17.76482080517846" fill="#faff18" stroke="none" /><line stroke="#e1ed5e" stroke-width="0.3" x1="56.869717070023135" x2="54.33264160355391" y1="26.7553504044142" y2="22.446841604673864" /><path d="M 56.362301976729285 25.89364864446614 a86.0,86.0 0 0,1 42.16139366436587,-11.88097634709845" fill="none" id="id12" stroke="none" /><text fill="#e1ed5e" style="font-size:6.75px; font-family:Arial;" text-anchor="middle"><textPath startOffset="22.145653131862474" xlink:href="#id12">December</textPath></text><path d="M 89.34428304082924 81.90426304109057 l -10.44762887970875 -17.742357907583532 a41.58990561729014,41.58990561729014 0 0,0 0.6183181806996693,-0.3569861680717918 l 10.141518231148682 17.919090972931496" fill="#fdff18" stroke="none" /><path d="M 89.65649057296885 81.72400993836675 l -10.90465091091849 -19.267473296123686 a43.13926237944333,43.13926237944333 0 0,0 0.6476144373227766,-0.3592208115551342 l 10.57229228543961 19.451827023111964" fill="#eaff1a" stroke="none" /><path d="M 89.97174638481275 81.54914285379989 l -9.701817749029656 -17.85025191970799 a41.31641605284814,41.31641605284814 0 0,0 0.626064079982472,-0.3333438593911207 l 9.393964853260623 18.014166246821684" fill="#fffe18" stroke="none" /><path d="M 90.28995756902619 81.37971332152246 l -7.283156852709117 -13.966413585296884 a36.75135175712641,36.75135175712641 0 0,0 0.5618980292591426,-0.28690913742169033 l 7.042331601736391 14.089380674391409" fill="#ffc512" stroke="none" /><path d="M 90.61103034731259 81.2157712731953 l -8.943968033576953 -17.893927393816956 a41.004679496578774,41.004679496578774 0 0,0 0.6323307232029273,-0.30930464321517603 l 8.635477061111972 18.044825787129344" fill="#fffa17" stroke="none" /><path d="M 90.93487009805054 81.0573650232925 l -6.3657968321687495 -13.302067045031722 a35.746808365845425,35.746808365845425 0 0,0 0.5557969702152575,-0.2601410458949591 l 6.136511148081969 13.409384322497223" fill="#ffb811" stroke="none" /><path d="M 91.26138138417902 80.90454125486306 l -7.376394974664892 -16.118754246985272 a38.726405199503006,38.726405199503006 0 0,0 0.606873376511377,-0.27144674219582354 l 7.0986081952978966 16.24300474009094" fill="#ffde14" stroke="none" /><path d="M 91.5904679813234 80.7573450057729 l -4.721706966424028 -10.80418957166115 a32.79088753984062,32.79088753984062 0 0,0 0.5177289601067667,-0.22098770700262052 l 4.53554293114683 10.883651928323175" fill="#ff910d" stroke="none" /><path d="M 91.92203290615298 80.6158196554323 l -7.9144771332100134 -18.991863955469245 a41.57498103997076,41.57498103997076 0 0,0 0.6611323544947734,-0.2688767729858275 l 7.587290317524799 19.124927985034365" fill="#fdff18" stroke="none" /><path d="M 92.25597844496254 80.48000691201159 l -7.0933272218712204 -17.87981830341074 a40.23546707619862,40.23546707619862 0 0,0 0.6442038125022072,-0.24919187374993226 l 6.785351146875485 17.99895006529871" fill="#fff116" stroke="none" /><path d="M 92.592206182469 80.34994680014964 l -6.067364744997427 -16.094405832401137 a38.20008180349342,38.20008180349342 0 0,0 0.6155867661905692,-0.22605198731035708 l 5.79018882715273 16.196188668720215" fill="#ffd714" stroke="none" /><path d="M 92.93061703081487 80.22567764915836 l -3.5313511312451467 -9.87781761260276 a31.490077292374526,31.490077292374526 0 0,0 0.510580455043343,-0.1776063863354868 l 3.361264904156799 9.936982431506832" fill="#ff7f0b" stroke="none" /><path d="M 93.27111125876988 80.10723608172694 l -5.425538813098454 -16.039641445856944 a37.93241179289264,37.93241179289264 0 0,0 0.6186185021546502,-0.20335218898298474 l 5.149397573296042 16.13041455624196" fill="#ffd413" stroke="none" /><path d="M 95.35216902796891 79.52079915486377 l -1.636133726047641 -7.2091070838981866 a28.3924392805502,28.3924392805502 0 0,0 0.47623258087949616,-0.10379267445689992 l 1.5121387285490264 7.2361312164888005" fill="#ff5507" stroke="none" /><path d="M 96.05791012581881 79.37332000966035 l -1.9692845903132958 -10.30412911697926 a31.4906224151394,31.4906224151394 0 0,0 0.531839523309955,-0.09691887765373643 l 1.7921103334523025 10.336416168564357" fill="#ff7f0b" stroke="none" /><path d="M 96.41257539226777 79.30868818359171 l -1.5107977849960479 -8.713880144969322 a29.84388020769388,29.84388020769388 0 0,0 0.5055304564793259,-0.08318484423677365 l 1.3609898254636492 8.738530987701763" fill="#ff6909" stroke="none" /><path d="M 97.12497278360702 79.19773525538626 l -1.4367683106300004 -10.395739770385305 a31.49455613887511,31.49455613887511 0 0,0 0.5361905861596806,-0.0694206062878852 l 1.2580999025795256 10.418871972873584" fill="#ff7f0b" stroke="none" /><path d="M 97.48249496171623 79.15144685158666 l -0.8841144049312987 -7.321735559684815 a28.37492168683574,28.37492168683574 0 0,0 0.4840817016801016,-0.054242364371060975 l 0.7582968016503978 7.3358336845628465" fill="#ff5407" stroke="none" /><path d="M 97.84075906011542 79.11130261209362 l -1.5192703726807353 -14.697562684707178 a35.77587666895614,35.77587666895614 0 0,0 0.6114275122272472,-0.05790282110670835 l 1.2667432970684724 14.72147726131907" fill="#ffb811" stroke="none" /><path d="M 98.1996594967304 79.07731436759882 l -0.6324401332675283 -7.34991301125492 a28.377072711799837,28.377072711799837 0 0,0 0.4856952271494747,-0.03759588233266666 l 0.5061759113428365 7.35968666058264" fill="#ff5407" stroke="none" /><path d="M 98.5590905019552 79.04949213459386 l -0.6092052463995137 -8.857710580475876 a29.87863546721651,29.87863546721651 0 0,0 0.5119997963548831,-0.030800636341056436 l 0.4570610979121467 8.866863194641626" fill="#ff6909" stroke="none" /><path d="M 98.9189461498227 79.02784411241856 l -0.7589197998258033 -14.72284136956599 a35.74238845153564,35.74238845153564 0 0,0 0.6130232178496133,-0.026325854651027707 l 0.5060708213753699 14.733699792642845" fill="#ffb811" stroke="none" /><path d="M 99.27912038922189 79.0123766808444 l -0.4390523483343634 -12.782530073622222 a33.790068101759054,33.790068101759054 0 0,0 0.5798805076436578,-0.014935664899131071 l 0.2195585266199616 12.788183455871398" fill="#ff9e0e" stroke="none" /></svg>