<?xml version="1.0" encoding="utf-8" ?>
<svg baseProfile="full" height="200mm" version="1.1" viewBox="0,0,200,200" width="200mm" xmlns="http://www.w3.org/2000/svg" xmlns:ev="http://www.w3.org/2001/xml-events" xmlns:xlink="http://www.w3.org/1999/xlink"><defs /><rect fill="#1a1a1a" height="200" width="200" x="0" y="0" /><rect fill="#1a1a1a" height="200" width="180" x="10" y="0" /><text alignment-baseline="middle" fill="#e1ed5e" style="dominant-baseline: central; font-size:9.0px; font-family:Arial;" text-anchor="middle" x="100.0" y="100.0">2026</text><line stroke="#e1ed5e" stroke-width="0.3" x1="100.0" x2="100.0" y1="15.0" y2="10.0" /><path d="M 100.0 14.0 a86.0,86.0 0 0,1 42.46469731375804,11.215312516191453" fill="none" id="id25" stroke="none" /><text fill="#e1ed5e" style="font-size:6.75px; font-family:Arial;" text-anchor="middle"><textPath startOffset="22.20632615414155" xlink:href="#id25">January</textPath></text><path d="M 100.0 79.0 l 0.0 -30.038192294008354 a51.038192294008354,51.038192294008354 0 0,0 0.878538581506743,0.007561858935557482 l -0.5170581022342147 30.033741811681356" fill="#90ff24" stroke="none" /><path d="M 100.36148047927253 79.00311137660856 l 0.2552866615910446 -14.828534064278998 a35.83073139717219,35.83073139717219 0 0,0 0.61658437944881,0.015924555420051834 l -0.5104976762347223 14.821942716716586" fill="#ffb811" stroke="none" /><path d="M 100.72285384407766 79.0124445844662 l 0.4088002382443442 -11.869228785777645 a32.87626665261105,32.87626665261105 0 0,0 0.5654078618287326,0.02434765189737633 l -0.6130489324624083 11.860433407356075" fill="#ff910d" stroke="none" /><path d="M 101.08401301168833 79.027996857942 l 1.1485324091954685 -22.220236320676385 a43.249899524305235,43.249899524305235 0 0,0 0.7431526253449021,0.04482899582259365 l -1.5308470833799825 22.197174055473486" fill="#e9ff1a" stroke="none" /><path d="M 101.44485096284872 79.0497635885617 l 0.818237908349156 -11.864391595737533 a32.8925733637286,32.8925733637286 0 0,0 0.5645145779717489,0.043817195990333485 l -1.022342675683246 11.848549137558736" fill="#ff910d" stroke="none" /><path d="M 101.80526077348638 79.07773832637324 l 0.4266935832020379 -4.945210649522731 a25.963584972789207,25.963584972789207 0 0,0 0.4449353258268648,0.04225197042280822 l -0.5117540361191469 4.937133134584745" fill="#ff3104" stroke="none" /><path d="M 102.16513564639614 79.11191278185805 l 1.5297781778570179 -14.758493333512527 a35.837565391558726,35.837565391558726 0 0,0 0.6130498454188298,0.06888329318882201 l -1.783594726785573 14.729974086853105" fill="#ffb811" stroke="none" /><path d="M 102.52436894288641 79.15227682838746 l 0.7368152104185834 -6.085053287763926 a27.129499993411432,27.129499993411432 0 0,0 0.4631202938373564,0.06012630578151954 l -0.8414502327637859 6.07146865881827" fill="#ff4206" stroke="none" /><path d="M 102.88285421437855 79.19881850522331 l 2.6938711417240597 -19.437577614247385 a40.6233627403181,40.6233627403181 0 0,0 0.6918178397731676,0.10195596611164473 l -3.028057961925883 19.388327163974772" fill="#fff517" stroke="none" /><path d="M 103.2404852339499 79.25152402106235 l 3.4339161973066177 -21.98699348697687 a43.2535314735996,43.2535314735996 0 0,0 0.7346319718088532,0.12122056991809047 l -3.811877375254346 21.924626654119155" fill="#e9ff1a" stroke="none" /><path d="M 103.59715602781102 79.31037775812273 l 2.0461104774578067 -11.768533951948184 a32.945080973527126,32.945080973527126 0 0,0 0.55787769189744,0.10194858232979061 l -2.2483832904581478 11.731569888267655" fill="#ff920d" stroke="none" /><path d="M 103.95276090670814 79.375362276772 l 2.302046839775815 -12.011574495108702 a33.230181580993296,33.230181580993296 0 0,0 0.5608520272290881,0.11250164044022105 l -2.5084652764720285 11.970168898591274" fill="#ff950d" stroke="none" /><path d="M 104.66035177308747 79.52364482259891 l 1.6493154267718984 -7.246656502020743 a28.431976307501746,28.431976307501746 0 0,0 0.4762712284677071,0.11271801207207102 l -1.773810342202129 7.217192577807803" fill="#ff5407" stroke="none" /><path d="M 105.71112130821622 79.79150937346287 l 0.4352095625720788 -1.5399652522114158 a22.60028133194534,22.60028133194534 0 0,0 0.37345327163750697,0.10902125075397584 l -0.4616530519330129 1.5322456725387366" fill="#ff0000" stroke="none" /><path d="M 106.0581310904928 79.89281104454417 l 18.174393271478365 -60.321566866367476 a84.0,84.0 0 0,0 1.380858509157127,0.4290394604699177 l -19.21003715334621 59.99978727101504" fill="#4dd2ff" stroke="none" /><path d="M 107.08798089147638 80.2323363322302 l 4.009812876023068 -11.1829635995825 a32.88012096614793,32.88012096614793 0 0,0 0.5311199124977641,0.19561594607825103 l -4.201715114293408 11.112284385697924" fill="#ff910d" stroke="none" /><line stroke="#e1ed5e" stroke-width="0.3" x1="143.23703022742887" x2="145.7803849466894" y1="26.81831364943548" y2="22.513508569990506" /><path d="M 143.74570117128098 25.957352633546492 a86.0,86.0 0 0,1 28.547481713284135,27.462654790039103" fill="none" id="id26" stroke="none" /><text fill="#e1ed5e" style="font-size:6.75px; font-family:Arial;" text-anchor="middle"><textPath startOffset="19.985693538727396" xlink:href="#id26">February</textPath></text><line stroke="#e1ed5e" stroke-width="0.3" x1="172.23445277983987" x2="176.4835382374775" y1="55.19839476539836" y2="52.563006222186495" /><path d="M 173.08426987136738 54.67131705675599 a86.0,86.0 0 0,1 12.851231095245387,41.99856678651699" fill="none" id="id27" stroke="none" /><text fill="#e1ed5e" style="font-size:6.75px; font-family:Arial;" text-anchor="middle"><textPath startOffset="22.20632615414155" xlink:href="#id27">March</textPath></text><line stroke="#e1ed5e" stroke-width="0.3" x1="184.98032266829074" x2="189.97916517819016" y1="98.17113171792111" y2="98.06355123074" /><path d="M 185.9800911702706 98.14961562048488 a86.0,86.0 0 0,1 -9.607161424134198,41.387399972396054" fill="none" id="id28" stroke="none" /><text fill="#e1ed5e" style="font-size:6.75px; font-family:Arial;" text-anchor="middle"><textPath startOffset="21.466115282336823" xlink:href="#id28">April</textPath></text><line stroke="#e1ed5e" stroke-width="0.3" x1="174.80103733775053" x2="179.2010983576182" y1="140.37084112569926" y2="142.7455964860345" /><path d="M 175.68104954172406 140.8457921977663 a86.0,86.0 0 0,1 -30.038265399797805,32.042727171017184" fill="none" id="id29" stroke="none" /><text fill="#e1ed5e" style="font-size:6.75px; font-family:Arial;" text-anchor="middle"><textPath startOffset="22.206326154141568" xlink:href="#id29">May</textPath></text><line stroke="#e1ed5e" stroke-width="0.3" x1="143.8653032363475" x2="146.44561519142675" y1="172.8068346515853" y2="177.08958963109032" /><path d="M 144.38136562736335 173.6633856474863 a86.0,86.0 0 0,1 -40.68145358897372,12.25698825130547" fill="none" id="id30" stroke="none" /><text fill="#e1ed5e" style="font-size:6.75px; font-family:Arial;" text-anchor="middle"><textPath startOffset="21.466115282336833" xlink:href="#id30">June</textPath></text><line stroke="#e1ed5e" stroke-width="0.3" x1="102.19456741930631" x2="102.32365962044197" y1="184.97166512339345" y2="189.96999836594603" /><path d="M 102.22038585953345 185.97133177190398 a86.0,86.0 0 0,1 -42.740103519485714,-10.115201625700543" fill="none" id="id31" stroke="none" /><text fill="#e1ed5e" style="font-size:6.75px; font-family:Arial;" text-anchor="middle"><textPath startOffset="22.20632615414155" xlink:href="#id31">July</textPath></text><line stroke="#e1ed5e" stroke-width="0.3" x1="58.666819895761336" x2="56.23545636021788" y1="174.27360380694188" y2="178.64263932499728" /><path d="M 58.180547188652646 175.14741091055294 a86.0,86.0 0 0,1 -31.652253787137756,-30.449443065178592" fill="none" id="id32" stroke="none" /><text fill="#e1ed5e" style="font-size:6.75px; font-family:Arial;" text-anchor="middle"><textPath startOffset="22.20632615414155" xlink:href="#id32">August</textPath></text><line stroke="#e1ed5e" stroke-width="0.3" x1="26.63291911575756" x2="22.317208475507996" y1="142.92168965132927" y2="145.44649492493687" /><path d="M 25.769776987707644 143.4266507060508 a86.0,86.0 0 0,1 -11.730757126820373,-40.83630448921669" fill="none" id="id33" stroke="none" /><text fill="#e1ed5e" style="font-size:6.75px; font-family:Arial;" text-anchor="middle"><textPath startOffset="21.46611528233685" xlink:href="#id33">September</textPath></text><line stroke="#e1ed5e" stroke-width="0.3" x1="15.007084014347285" x2="10.007500721073583" y1="101.09737516637583" y2="101.16192664675087" /><path d="M 14.007167355692545 101.11028546245083 a86.0,86.0 0 0,1 10.666146001902534,-42.60595125391555" fill="none" id="id34" stroke="none" /><text fill="#e1ed5e" style="font-size:6.75px; font-family:Arial;" text-anchor="middle"><textPath startOffset="22.20632615414155" xlink:href="#id34">October</textPath></text><line stroke="#e1ed5e" stroke-width="0.3" x1="26.266209847984243" x2="21.928928074336255" y1="57.711370442889674" y2="55.22380399835377" /><path d="M 25.398753493254645 57.213857153982495 a86.0,86.0 0 0,1 29.58750427330803,-30.492523968695096" fill="none" id="id35" stroke="none" /><text fill="#e1ed5e" style="font-size:6.75px; font-family:Arial;" text-anchor="middle"><textPath startOffset="21.46611528233685" xlink:href="#id35">November</textPath></text><line stroke="#e1ed5e" stroke-width="0.3" x1="56.762969772571076" x2="54.21961505331055" y1="26.818313649435495" y2="22.513508569990535" /><path d="M 56.25429882871897 25.957352633546506 a86.0,86.0 0 0,1 42.265352541879196,-11.944610805530505" fill="none" id="id36" stroke="none" /><text fill="#e1ed5e" style="font-size:6.75px; font-family:Arial;" text-anchor="middle"><textPath startOffset="22.20632615414155" xlink:href="#id36">December</textPath></text></svg>