<?xml version="1.0" encoding="utf-8" ?>
<svg baseProfile="full" height="200mm" version="1.1" viewBox="0,0,200,200" width="200mm" xmlns="http://www.w3.org/2000/svg" xmlns:ev="http://www.w3.org/2001/xml-events" xmlns:xlink="http://www.w3.org/1999/xlink"><defs /><rect fill="#1a1a1a" height="200" width="200" x="0" y="0" /><rect fill="#1a1a1a" height="200" width="180" x="10" y="0" /><text alignment-baseline="middle" fill="#e1ed5e" style="dominant-baseline: central; font-size:9.0px; font-family:Arial;" text-anchor="middle" x="100.0" y="100.0">2025</text><line stroke="#e1ed5e" stroke-width="0.3" x1="100.0" x2="100.0" y1="15.0" y2="10.0" /><path d="M 100.0 14.0 a86.0,86.0 0 0,1 42.46469731375804,11.215312516191453" fill="none" id="id13" stroke="none" /><text fill="#e1ed5e" style="font-size:6.75px; font-family:Arial;" text-anchor="middle"><textPath startOffset="22.20632615414155" xlink:href="#id13">January</textPath></text><path d="M 100.0 79.0 l 0.0 -5.433688978720539 a26.43368897872054,26.43368897872054 0 0,0 0.45501250290327866,0.003916436265062451 l -0.09353202363075028 5.432883919064036" fill="#ff3f05" stroke="none" /><path d="M 100.72285384407766 79.0124445844662 l 0.17399302851272183 -5.051765799885514 a26.054761247661848,26.054761247661848 0 0,0 0.44809123259525024,0.019295751060497593 l -0.2609250934973036 5.048022322300822" fill="#ff3a05" stroke="none" /><path d="M 101.44485096284872 79.0497635885617 l 0.34759463915823996 -5.040097596887019 a26.05206945907495,26.05206945907495 0 0,0 0.447115305736397,0.034704752979311075 l -0.43430013425697817 5.033367581719244" fill="#ff3a05" stroke="none" /><path d="M 101.80526077348638 79.07773832637324 l 0.4347956494132925 -5.039110407307613 a26.057833622588294,26.057833622588294 0 0,0 0.4465504553920249,0.042405346436477906 l -0.5214712318955617 5.030879516355958" fill="#ff3a05" stroke="none" /><path d="M 102.16513564639614 79.11191278185805 l 0.5420868612766898 -5.229768239696069 a26.2577879384873,26.2577879384873 0 0,0 0.44917484379454137,0.050470027338485615 l -0.6320284085809564 5.219662258886983" fill="#ff3d05" stroke="none" /><path d="M 102.52436894288641 79.15227682838746 l 0.6079604021647299 -5.02089450884314 a26.057568340569556,26.057568340569556 0 0,0 0.4448216409997348,0.05775061546834338 l -0.6942967716723109 5.00968557021066" fill="#ff3a05" stroke="none" /><path d="M 102.88285421437855 79.19881850522331 l 1.3872386909370475 -10.009595227824692 a31.10526732998804,31.10526732998804 0 0,0 0.5297242128220403,0.07806757904466569 l -1.5593318841877437 9.984233164619058" fill="#ff7f0b" stroke="none" /><path d="M 103.2404852339499 79.25152402106235 l 0.7818817593312793 -5.006304220087475 a26.06699329283557,26.06699329283557 0 0,0 0.4427302472061085,0.0730542842481482 l -0.867941212676263 4.992103672899702" fill="#ff3a05" stroke="none" /><path d="M 104.307194497241 79.44645832069477 l 1.0908503349374357 -5.2054389091048545 a26.318510006539036,26.318510006539036 0 0,0 0.4425987284879734,0.0967349391777893 l -1.180291787578937 5.185890471831195" fill="#ff3e05" stroke="none" /><path d="M 106.0581310904928 79.89281104454417 l 2.771384431425238 -9.198340147892528 a30.606770172283593,30.606770172283593 0 0,0 0.503138321788266,0.15632752573146813 l -2.9293081259242224 9.149272487278541" fill="#ff790b" stroke="none" /><path d="M 106.40334571778207 80.00007090966166 l 3.7957474037308057 -11.855470915561716 a33.44828859653643,33.44828859653643 0 0,0 0.5468272400849532,0.1802803436259151 l -3.9992574660581766 11.788376847676563" fill="#ff9f0e" stroke="none" /><path d="M 106.74666289553966 80.11325718540242 l 0.34749374732280164 -1.0242869533703824 a22.081626399119965,22.081626399119965 0 0,0 0.3588979271224351,0.12521243962748885 l -0.3650736785085104 1.018153660570686" fill="#ff0100" stroke="none" /><path d="M 108.09893153111575 80.62456947434976 l 1.9494388650786825 -4.663728437414128 a26.05476753438024,26.05476753438024 0 0,0 0.41230583041295876,0.1765278392195892 l -2.0294284532819566 4.629481070231749" fill="#ff3a05" stroke="none" /><path d="M 109.73455568895987 81.39251694778311 l 0.6676873113811569 -1.2762760548789502 a22.44037735126486,22.44037735126486 0 0,0 0.34072502267736654,0.18200350705945834 l -0.6895573805868346 1.264593821317738" fill="#ff0601" stroke="none" /><line stroke="#e1ed5e" stroke-width="0.3" x1="143.23703022742887" x2="145.7803849466894" y1="26.81831364943548" y2="22.513508569990506" /><path d="M 143.74570117128098 25.957352633546492 a86.0,86.0 0 0,1 28.547481713284135,27.462654790039103" fill="none" id="id14" stroke="none" /><text fill="#e1ed5e" style="font-size:6.75px; font-family:Arial;" text-anchor="middle"><textPath startOffset="19.985693538727396" xlink:href="#id14">February</textPath></text><path d="M 114.16331599549186 84.49514656593476 l 2.0673284258520668 -2.2631440443124817 a24.065235355668964,24.065235355668964 0 0,0 0.3034421236572694,0.2820163836221214 l -2.105978433304183 2.2272230746157198" fill="#ff1e03" stroke="none" /><path d="M 114.42810811169701 84.74124197986012 l 2.1062078293003 -2.227465677316534 a24.065569239770827,24.065569239770827 0 0,0 0.2985468589983742,0.28720184181806957 l -2.1442379319110927 2.190880748736163" fill="#ff1e03" stroke="none" /><path d="M 114.94478906791727 85.2469230424477 l 5.8833901762597005 -5.807917906850919 a29.267175477684546,29.267175477684546 0 0,0 0.3508378080097729,0.3615692006680504 l -5.982492247972583 5.705784510632754" fill="#ff6709" stroke="none" /><path d="M 115.19652480421416 85.50635884689758 l 7.3198432092649375 -6.981279084454844 a31.115253939633384,31.115253939633384 0 0,0 0.36631940757450787,0.3907640031184245 l -7.438929938809909 6.8542456644583645" fill="#ff800b" stroke="none" /><path d="M 115.4437574822437 85.77008943001954 l 7.341031055529272 -6.764041427854279 a30.982133709582044,30.982133709582044 0 0,0 0.3580005605673513,0.39531316056784077 l -7.456375256712659 6.63667548001689" fill="#ff7e0b" stroke="none" /><path d="M 115.68641384162765 86.03803664274999 l 7.540943604845471 -6.711946997760487 a31.095348580024655,31.095348580024655 0 0,0 0.3524259984251844,0.4028838391938793 l -7.655361466848504 6.58114760236366" fill="#ff7f0b" stroke="none" /><path d="M 115.9244219780498 86.31012108654704 l 10.092476325408676 -8.676282192357219 a34.3092430686478,34.3092430686478 0 0,0 0.3811420127241058,0.45115192468603327 l -10.240328951619897 8.501271318042077" fill="#ffaa0f" stroke="none" /><path d="M 116.15771136456269 86.58626213691792 l 7.784188852933842 -6.4622437172002325 a31.117024758229732,31.117024758229732 0 0,0 0.3385850990167244,0.4150652966417527 l -7.894272444026975 6.32729425095038" fill="#ff800b" stroke="none" /><path d="M 116.38621287248628 86.86637796730983 l 10.403496583977038 -8.338448488104255 a34.33275906785951,34.33275906785951 0 0,0 0.3656372127370171,0.46432212913570925 l -10.54548787730802 8.158133965015509" fill="#ffaa0f" stroke="none" /><path d="M 116.60985879189232 87.15038557335679 l 10.393102882838006 -8.040246844608342 a34.14009729246668,34.14009729246668 0 0,0 0.3555838419500982,0.4679066549368865 l -10.529962665012217 7.860155413790423" fill="#ffa80f" stroke="none" /><path d="M 116.82858285166822 87.43820079747576 l 10.505953422575505 -7.84223356706375 a34.11013671315854,34.11013671315854 0 0,0 0.3471719765654069,0.4735421858755004 l -10.639388011654537 7.660228937516756" fill="#ffa70f" stroke="none" /><path d="M 117.2510076193507 88.02491185347247 l 9.490065412201695 -6.587694605151698 a32.552448300624924,32.552448300624924 0 0,0 0.3155658122186024,0.4630538906547893 l -9.602055690089031 6.423362691226502" fill="#ff930d" stroke="none" /><path d="M 117.45458315368197 88.32363383020206 l 5.288413601577868 -3.537721475539066 a27.362608872140743,27.362608872140743 0 0,0 0.2585158888389438,0.3937374344573888 l -5.348526125774737 3.446165977104003" fill="#ff4c07" stroke="none" /><path d="M 117.65298651832404 88.62581576622439 l 8.609303315507047 -5.547152145241039 a31.241630753979216,31.241630753979216 0 0,0 0.2873819480924972,0.45456922695821655 l -8.7035128598455 5.398135270568616" fill="#ff810b" stroke="none" /><line stroke="#e1ed5e" stroke-width="0.3" x1="172.23445277983987" x2="176.4835382374775" y1="55.19839476539836" y2="52.563006222186495" /><path d="M 173.08426987136738 54.67131705675599 a86.0,86.0 0 0,1 12.851231095245387,41.99856678651699" fill="none" id="id15" stroke="none" /><text fill="#e1ed5e" style="font-size:6.75px; font-family:Arial;" text-anchor="middle"><textPath startOffset="22.20632615414155" xlink:href="#id15">March</textPath></text><path d="M 118.03404312379186 89.2402003453031 l 4.346914880586751 -2.593535620940658 a26.0618273376474,26.0618273376474 0 0,0 0.22653973552915618,0.38722984195352655 l -4.390914290586235 2.5183263666332363" fill="#ff3a05" stroke="none" /><path d="M 118.21658344932153 89.55222093294921 l 9.36473032849453 -5.370965075136791 a31.795621332918472,31.795621332918472 0 0,0 0.26820720759456257,0.47711069494626945 l -9.455795177381525 5.208970870255727" fill="#ff890c" stroke="none" /><path d="M 118.3937258080291 89.86733742301442 l 11.65905768043523 -6.422695362235637 a34.31107214734406,34.31107214734406 0 0,0 0.28052062832523295,0.5197621205867694 l -11.767886407978928 6.221052258316409" fill="#ffaa0f" stroke="none" /><path d="M 118.56541770881063 90.18545643968196 l 11.96876167292336 -6.3272442691243285 a34.538289257672325,34.538289257672325 0 0,0 0.27333037473392513,0.5279872846750153 l -12.075901480817402 6.120284262188969" fill="#ffad10" stroke="none" /><path d="M 118.73160827565052 90.50648371742162 l 6.316798631381077 -3.2014672620897806 a28.081760909523172,28.081760909523172 0 0,0 0.21481208136910918,0.4330480480292423 l -6.370970725703594 3.0922596255615886" fill="#ff5608" stroke="none" /><path d="M 119.04729006885535 91.15688171328212 l 7.492419123777503 -3.4785183785051306 a29.26053475484153,29.26053475484153 0 0,0 0.20816457603746594,0.45866305003836855 l -7.551186016778316 3.349033319624699" fill="#ff6609" stroke="none" /><path d="M 119.196687751892 91.48605970444005 l 10.121929459600423 -4.4891860621327115 a32.0727705424421,32.0727705424421 0 0,0 0.21948357562061588,0.5065983535431263 l -10.19770374506372 4.314288564002982" fill="#ff8c0c" stroke="none" /><path d="M 119.47837535516314 92.15188598940014 l 2.782197569993909 -1.1209869063098352 a23.99953912503206,23.99953912503206 0 0,0 0.15109018439027286,0.38450803907902825 l -2.801081304265882 1.0729298623350225" fill="#ff1d02" stroke="none" /><path d="M 119.61058180528143 92.48833698450437 l 12.22821470107856 -4.683911422296205 a34.09458899651267,34.09458899651267 0 0,0 0.20520950505153232,0.5498594497911011 l -12.307028794631718 4.472728835475771" fill="#ffa70f" stroke="none" /><path d="M 119.7369772167798 92.82701384747503 l 7.647032160721462 -2.779151801935228 a29.136386520151817,29.136386520151817 0 0,0 0.16725245863518548,0.4728452230199682 l -7.693737700166458 2.6471089524886455" fill="#ff6509" stroke="none" /><path d="M 119.85752413597 93.16781622104841 l 13.392628009914537 -4.607870307513596 a35.163154796259654,35.163154796259654 0 0,0 0.191995356593395,0.5740416785840023 l -13.469960660279702 4.37665552600728" fill="#ffb510" stroke="none" /><path d="M 119.97218684219823 93.5106431181261 l 11.538838215937597 -3.749195808003095 a33.132652495655265,33.132652495655265 0 0,0 0.17157115557696037,0.5439274492251639 l -11.601664855282763 3.550018192351512" fill="#ff9a0e" stroke="none" /><path d="M 120.08093135843002 93.85539295169968 l 12.244423080296501 -3.746697153564853 a33.80482862555484,33.80482862555484 0 0,0 0.16547319199316934,0.5578933422708097 l -12.307102169401373 3.5353744245475136" fill="#ffa30f" stroke="none" /><path d="M 120.18372546131832 94.20196356495316 l 8.029867284780154 -2.3066833313291153 a29.354612893618363,29.354612893618363 0 0,0 0.13532927966692718,0.48685142206474136 l -8.068383335013445 2.1681206058454223" fill="#ff6809" stroke="none" /><path d="M 120.37134235888165 94.90015583598534 l 7.8394457724381645 -1.962558532832635 a29.081370305448996,29.081370305448996 0 0,0 0.11738792025576522,0.486648714710304 l -7.872066492954749 1.8273245864629246" fill="#ff6409" stroke="none" /><path d="M 120.45610955862082 95.25157060432595 l 14.777705774322593 -3.430314659702409 a36.170617871959486,36.170617871959486 0 0,0 0.13556336438702982,0.6077039812425493 l -14.83456352571166 3.1754325089098954" fill="#ffc212" stroke="none" /><path d="M 120.67395015179393 96.31383870115 l 15.939255852786543 -2.841966224433006 a37.19063461268298,37.19063461268298 0 0,0 0.10694634253054697,0.6312033675006247 l -15.985814056837313 2.5671770686165436" fill="#ffcf13" stroke="none" /><path d="M 120.78858239683441 97.02765380044208 l 9.499302804487382 -1.3582078878869301 a30.595909672254116,30.595909672254116 0 0,0 0.0700558928336679,0.5219977734959512 l -9.521274696378885 1.1944917723263146" fill="#ff790b" stroke="none" /><path d="M 120.83666639777658 97.38593545837742 l 5.05344219712981 -0.6339797263378909 a26.09305491165564,26.09305491165564 0 0,0 0.052073843828831345,0.4461368929649245 l -5.06360639396223 0.5468990950481137" fill="#ff3a05" stroke="none" /><path d="M 120.87857604477298 97.74499172005257 l 1.0246506226741423 -0.11066825789405042 a22.03060970393831,22.03060970393831 0 0,0 0.037476033409412454,0.37737854209556826 l -1.0264037817657836 0.09301418509404719" fill="#ff0000" stroke="none" /><path d="M 120.96714384426684 98.82574320788733 l 42.913836843425734 -2.4033728562789656 a63.98108413837956,63.98108413837956 0 0,0 0.05211835671032121,1.1001361365994389 l -42.948848808369554 1.664325613056527" fill="#34ff5d" stroke="none" /><line stroke="#e1ed5e" stroke-width="0.3" x1="184.98032266829074" x2="189.97916517819016" y1="98.17113171792111" y2="98.06355123074" /><path d="M 185.9800911702706 98.14961562048488 a86.0,86.0 0 0,1 -9.607161424134198,41.387399972396054" fill="none" id="id16" stroke="none" /><text fill="#e1ed5e" style="font-size:6.75px; font-family:Arial;" text-anchor="middle"><textPath startOffset="21.466115282336823" xlink:href="#id16">April</textPath></text><path d="M 120.99513854157772 99.54816195383933 l 1.1189896529040997 -0.024081865306148035 a22.119248756775303,22.119248756775303 0 0,0 0.004915732214730927,0.38072887735787897 l -1.119238392236546 0.004816729887806325" fill="#ff0100" stroke="none" /><path d="M 120.99980553446 99.90962569577887 l 8.466881412028787 -0.036437885830860266 a29.46695981831037,29.46695981831037 0 0,0 -0.002182944250450059,0.5072393657367653 l -8.466254170488833 -0.10931095810958978" fill="#ff6909" stroke="none" /><path d="M 120.99824983174949 100.27111621757518 l 8.256737211980596 0.10660580669155477 a29.257425396921576,29.257425396921576 0 0,0 -0.01083630574930128,0.5035205477242095 l -8.253678843546286 -0.2487161702058791" fill="#ff6609" stroke="none" /><path d="M 120.9904718944345 100.63252640178507 l 8.251863716308735 0.2486614732030616 a29.255609445751908,29.255609445751908 0 0,0 -0.01950076830374858,0.5032281802036929 l -8.246360815153784 -0.3906669004207606" fill="#ff6609" stroke="none" /><path d="M 120.95626037817324 101.35467743843564 l 11.622562638866619 0.7513183697639328 a32.646821093634216,32.646821093634216 0 0,0 -0.041078160093500335,0.5604788577256679 l -11.607907920108781 -0.9512703639863709" fill="#ff940d" stroke="none" /><path d="M 120.92983693683757 101.71520430193887 l 13.111605377626892 1.074498669860564 a34.155559394041234,34.155559394041234 0 0,0 -0.05306375783871082,0.58555414601855 l -13.091167023511106 -1.3000342044276847" fill="#ffa80f" stroke="none" /><path d="M 120.89721153311464 102.0752229133903 l 13.358062701539891 1.326538603143872 a34.423767869115665,34.423767869115665 0 0,0 -0.06363102106386236,0.589144227940205 l -13.333249378974976 -1.5562791529688684" fill="#ffab0f" stroke="none" /><path d="M 120.8583938346157 102.4346265915055 l 8.18005798767275 0.9547900406307601 a29.23559182471888,29.23559182471888 0 0,0 -0.06264559563750167,0.4993470347822498 l -8.162410882788402 -1.0954548297004048" fill="#ff6609" stroke="none" /><path d="M 120.81339534386255 102.79330883721812 l 6.875875928816423 0.9227924938850409 a27.93752230809009,27.93752230809009 0 0,0 -0.06806904005420474,0.47607470759992215 l -6.8589728377456165 -1.0410126734653724" fill="#ff5407" stroke="none" /><path d="M 120.64145759157962 103.86396538481128 l 12.31492619592821 2.3052852893965996 a33.52883663700135,33.52883663700135 0 0,0 -0.11107635295639011,0.5663759306836951 l -12.273419909996157 -2.5169249471482398" fill="#ffa00e" stroke="none" /><path d="M 120.5718875245553 104.21870165774334 l 6.644714092696849 1.362639491618389 a27.782994306189718,27.782994306189718 0 0,0 -0.10010604625196044,0.4676621210703489 l -6.620274007720445 -1.476815432104907" fill="#ff5207" stroke="none" /><path d="M 120.49622156327973 104.57218783832717 l 8.061538963951655 1.7983251349709903 a29.25968424083991,29.25968424083991 0 0,0 -0.11388904909033219,0.4906310427278092 l -8.02938934893077 -1.9368248350473645" fill="#ff6609" stroke="none" /><path d="M 120.32669344350535 105.2749913415812 l 4.8976844062777065 1.2710007610788707 a26.05991654853703,26.05991654853703 0 0,0 -0.11641575722814343,0.43322634037061186 l -4.875080572707786 -1.3551180346250309" fill="#ff3a05" stroke="none" /><path d="M 120.02730092923936 106.31721596034902 l 19.841537643835508 6.25862060615994 a41.80521444166321,41.80521444166321 0 0,0 -0.22237935243148954,0.6844132719860939 l -19.730866040387774 -6.599232778123829" fill="#f6ff19" stroke="none" /><path d="M 119.79798401119884 107.00284435728193 l 5.714951177784018 2.0214640836586417 a27.06192906639271,27.06192906639271 0 0,0 -0.15911865190937974,0.43782619131289224 l -5.6793082648694115 -2.119538071977665" fill="#ff4806" stroke="none" /><path d="M 119.54520255179757 107.68017299344265 l 4.557657397692262 1.7909048098302227 a25.896895035898975,25.896895035898975 0 0,0 -0.16660013420003153,0.41348787030691575 l -4.5261546492348375 -1.869092047979952" fill="#ff3805" stroke="none" /><path d="M 119.26925614724726 108.34839909993367 l 8.998421883362445 3.89856342029156 a30.806650454309644,30.806650454309644 0 0,0 -0.21499948922126003,0.48476708998642476 l -8.92998130940991 -4.052878846770672" fill="#ff7b0b" stroke="none" /><path d="M 118.64920377521936 109.65438752849418 l 5.508849801334028 2.8518413686388775 a27.2032592502279,27.2032592502279 0 0,0 -0.21885344849685617,0.41398824748057433 l -5.458943844612278 -2.9462446312055866" fill="#ff4a06" stroke="none" /><line stroke="#e1ed5e" stroke-width="0.3" x1="174.80103733775053" x2="179.2010983576182" y1="140.37084112569926" y2="142.7455964860345" /><path d="M 175.68104954172406 140.8457921977663 a86.0,86.0 0 0,1 -30.038265399797805,32.042727171017184" fill="none" id="id17" stroke="none" /><text fill="#e1ed5e" style="font-size:6.75px; font-family:Arial;" text-anchor="middle"><textPath startOffset="22.206326154141568" xlink:href="#id17">May</textPath></text><path d="M 118.48025628344425 109.97397251340804 l 12.79993604805203 6.908248909460364 a35.545180158020806,35.545180158020806 0 0,0 -0.29523418808833085,0.5359358079471788 l -12.67912545051219 -7.127555235805349" fill="#ffba11" stroke="none" /><path d="M 118.12598468904814 110.60418214915192 l 4.325788080191318 2.530700843452375 a26.011675296123627,26.011675296123627 0 0,0 -0.22942189142714642,0.38452428635443675 l -4.281585313065944 -2.6047872236929157" fill="#ff3905" stroke="none" /><path d="M 117.75023020441432 111.22182372390056 l 7.290041441271293 4.608816846416533 a29.624725905167402,29.624725905167402 0 0,0 -0.2762084407628423,0.4286816338489408 l -7.2096281371314 -4.7336200801869275" fill="#ff6b09" stroke="none" /><path d="M 117.55443506779139 111.5257021239791 l 9.165228208530662 6.017606936473497 a31.96416897700597,31.96416897700597 0 0,0 -0.3059380334526271,0.45733584979420144 l -9.060287069667314 -6.174479700473505" fill="#ff8b0c" stroke="none" /><path d="M 117.35343817320211 111.8261652097733 l 12.067406538499537 8.22379645770568 a35.603188992243915,35.603188992243915 0 0,0 -0.3494861467141038,0.5034608602501787 l -11.924059484623298 -8.430298580142878" fill="#ffbb11" stroke="none" /><path d="M 117.14729908036423 112.12312394758627 l 12.364345405134975 8.741580302221921 a36.14239952839961,36.14239952839961 0 0,0 -0.3635240539253562,0.5049031161900633 l -12.212041558834015 -8.953117023863117" fill="#ffc212" stroke="none" /><path d="M 116.93607887273984 112.41649034213515 l 11.42205591766805 8.37394818805007 a35.162851748234985,35.162851748234985 0 0,0 -0.36207478673460003,0.485058346247002 l -11.276219864238357 -8.569319413806388" fill="#ffb510" stroke="none" /><path d="M 116.71984013943494 112.70617746262583 l 7.9042436086686205 6.006799177624416 a30.927673613968587,30.927673613968587 0 0,0 -0.32576145536735596,0.421090594148406 l -7.7996753360831965 -6.141967765886075" fill="#ff7d0b" stroke="none" /><path d="M 116.498646956653 112.99209946851258 l 7.94085191830667 6.253139318540724 a31.10736763581669,31.10736763581669 0 0,0 -0.33489612502774757,0.41783440860536364 l -7.8320378812240685 -6.388901560724338" fill="#ff7f0b" stroke="none" /><path d="M 116.27256486870786 113.27417163493432 l 9.362624028328883 7.637460923224852 a33.08261304725215,33.08261304725215 0 0,0 -0.3637575088849797,0.4381693525882995 l -9.22977051955036 -7.797491532926921" fill="#ff9a0e" stroke="none" /><path d="M 116.0416608686014 113.55231037782055 l 7.726514141546485 6.527511000423429 a31.11471307750085,31.11471307750085 0 0,0 -0.34916262853662483,0.4061550194076797 l -7.613009003439081 -6.659543118992636" fill="#ff800b" stroke="none" /><path d="M 115.80600337817218 113.82643327865902 l 7.616084963102159 6.662233840361716 a31.118799825515456,31.118799825515456 0 0,0 -0.3561489594108321,0.4001371314072662 l -7.500277154042989 -6.792345141509848" fill="#ff800b" stroke="none" /><path d="M 115.56566222782051 114.09645910891815 l 11.104458005126995 10.05633656345177 a35.98128474681147,35.98128474681147 0 0,0 -0.41970214017429563,0.45550378097979527 l -10.929709456956978 -10.2459915992329" fill="#ffbf11" stroke="none" /><path d="M 115.32070863581623 114.36230785411682 l 5.260993072516479 4.931886893874869 a28.211210470027975,28.211210470027975 0 0,0 -0.33516724714005447,0.35142151864535154 l -5.17531927399746 -5.021715529102728" fill="#ff5808" stroke="none" /><path d="M 115.07121518719521 114.62390073753431 l 12.630000855532474 12.255141774049184 a38.59844940649023,38.59844940649023 0 0,0 -0.46678276595703777,0.47284847749647546 l -12.417177464519902 -12.470730745526323" fill="#ffe115" stroke="none" /><path d="M 114.81725581225074 114.88116024355365 l 7.688625108752688 7.72178490711899 a31.896830649998783,31.896830649998783 0 0,0 -0.39240703416611483,0.3840528736642068 l -7.554568122210779 -7.852987883705769" fill="#ff8a0c" stroke="none" /><path d="M 114.55890576462653 115.13401014063108 l 7.714155703253299 8.01887947671851 a32.12702234545131,32.12702234545131 0 0,0 -0.40183892942265936,0.37996378929047203 l -7.574980939439833 -8.150477902754904" fill="#ff8d0d" stroke="none" /><path d="M 114.29624159901734 115.38237550388516 l 7.072695806954181 7.610032467190631 a31.38920690569799,31.38920690569799 0 0,0 -0.3989425459527914,0.36442455689140724 l -6.940653711534526 -7.730649790668622" fill="#ff830c" stroke="none" /><path d="M 114.0293411484842 115.62618273729858 l 8.082333778665651 9.002277671672127 a33.09814541934615,33.09814541934615 0 0,0 -0.42721454383445573,0.3769671635506249 l -7.926176881924607 -9.140067976995041" fill="#ff9a0e" stroke="none" /><path d="M 113.75828350139079 115.86535959552629 l 8.735337489919578 10.073151236623843 a34.33321029979993,34.33321029979993 0 0,0 -0.4498214977816889,0.3833476390785424 l -8.560650515560841 -10.222023265925333" fill="#ffaa0f" stroke="none" /><path d="M 113.48314897796784 116.09983520530334 l 3.8937714912824277 4.649439047153785 a27.064547788543024,27.064547788543024 0 0,0 -0.3597392259624799,0.2960408920453091 l -3.8131621367752566 -4.7157750580562725" fill="#ff4806" stroke="none" /><path d="M 113.20401910651253 116.32954008644616 l 3.1823648706421097 3.935661884889069 a26.06131214627843,26.06131214627843 0 0,0 -0.3512599587123047,0.2790621551535381 l -3.114147419212454 -3.989857954047733" fill="#ff3a05" stroke="none" /><path d="M 112.92097659922987 116.55440617244103 l 3.305778781970349 4.235376811706036 a26.372763729447122,26.372763729447122 0 0,0 -0.36026610781938884,0.27623668894097214 l -3.232383945657466 -4.291652842474379" fill="#ff3e05" stroke="none" /><path d="M 112.34349029814194 116.9893568818739 l 2.9737005319400307 4.092947649057769 a26.059161522583356,26.059161522583356 0 0,0 -0.3651666235841968,0.26053669015212894 l -2.9028065805069496 -4.143528601054117" fill="#ff3a05" stroke="none" /><path d="M 112.04921762599082 117.19931262002967 l 2.9994030720155505 4.28141251244358 a26.22751488664784,26.22751488664784 0 0,0 -0.3719849877351856,0.2558546665044723 l -2.9252611996574815 -4.332407968313146" fill="#ff3c05" stroke="none" /><path d="M 111.1453310114006 117.79835938074945 l 7.365756842683691 11.76262842828066 a34.87853743761705,34.87853743761705 0 0,0 -0.5115864288917013,0.3142581687312064 l -7.162191213859681 -11.887675063840245" fill="#ffb110" stroke="none" /><line stroke="#e1ed5e" stroke-width="0.3" x1="143.8653032363475" x2="146.44561519142675" y1="172.8068346515853" y2="177.08958963109032" /><path d="M 144.38136562736335 173.6633856474863 a86.0,86.0 0 0,1 -40.68145358897372,12.25698825130547" fill="none" id="id18" stroke="none" /><text fill="#e1ed5e" style="font-size:6.75px; font-family:Arial;" text-anchor="middle"><textPath startOffset="21.466115282336833" xlink:href="#id18">June</textPath></text><path d="M 110.8373102113329 117.98757091392108 l 7.5417065319644605 12.517587704911485 a35.613943320145545,35.613943320145545 0 0,0 -0.5278192095525441,0.3118448925694212 l -7.325119451383534 -12.645551169774656" fill="#ffbb11" stroke="none" /><path d="M 108.92500713936063 119.00905698771935 l 3.4703088245590923 7.39128800470124 a29.165425996618495,29.165425996618495 0 0,0 -0.4562750408079087,0.20945349235737068 l -3.3425657879837645 -7.449928567392685" fill="#ff6509" stroke="none" /><path d="M 108.59647513512805 119.15986991738527 l 3.324244349843706 7.409093647737245 a29.120669256804405,29.120669256804405 0 0,0 -0.45910721576464253,0.20125911147384531 l -3.1962164594213096 -7.465217312505545" fill="#ff6509" stroke="none" /><path d="M 108.2653958097858 119.30500536409082 l 5.183745219945331 12.10737290507545 a34.170409757022036,34.170409757022036 0 0,0 -0.5427050902206321,0.22685077172691026 l -4.974568670227239 -12.194808719822333" fill="#ffa80f" stroke="none" /><path d="M 107.93186726928326 119.44442032107085 l 1.8510220307425826 4.537651623181183 a25.90066983295684,25.90066983295684 0 0,0 -0.4142613863470685,0.16484315500815322 l -1.7726395683536478 -4.568841622595405" fill="#ff3805" stroke="none" /><path d="M 107.59598834532513 119.57807347666477 l 1.7737819841462512 4.571786111095347 a25.90382817530204,25.90382817530204 0 0,0 -0.4170883667799358,0.15770713148331067 l -1.6948233966060406 -4.601641492685288" fill="#ff3805" stroke="none" /><path d="M 107.2578585660854 119.70592522655815 l 1.6364104557722232 4.4430436040858385 a25.734815270691005,25.734815270691005 0 0,0 -0.4170025832106355,0.14952229009806636 l -1.559688311931853 -4.470553435223865" fill="#ff3505" stroke="none" /><path d="M 106.91757812671514 119.82793768551818 l 2.009993006407323 5.761267216550646 a27.101825286445653,27.101825286445653 0 0,0 -0.4417988137236931,0.14988214468460567 l -1.9105244597464028 -5.795012348133374" fill="#ff4906" stroke="none" /><path d="M 105.88484417918355 120.15858648285463 l 2.8055573292303855 9.610461778062549 a31.011599648168094,31.011599648168094 0 0,0 -0.5137128068959931,0.14518037056734115 l -2.639713354229787 -9.657330941968409" fill="#ff7e0b" stroke="none" /><path d="M 104.83641907484287 120.43548508189849 l 0.700360547064736 2.9592571053112646 a24.041004358961036,24.041004358961036 0 0,0 -0.4035223630901018,0.09184037608328484 l -0.6493180345817722 -2.970874214972234" fill="#ff1d03" stroke="none" /><path d="M 104.13013068566511 120.58985236759428 l 1.0750851933082932 5.359599271188584 a26.466361909039314,26.466361909039314 0 0,0 -0.44744836200832416,0.0857545435149724 l -0.9826692167282648 -5.377311013052025" fill="#ff4006" stroke="none" /><path d="M 103.06178313531738 120.77559828337769 l 2.3165279526964433 15.718701171971771 a36.8884822525429,36.8884822525429 0 0,0 -0.6289862290070304,0.08717176000480285 l -2.045613132502582 -15.756247497469177" fill="#ffcb12" stroke="none" /><path d="M 102.70371172650421 120.8252237178851 l 0.9137837976988437 7.038380545644112 a28.09745035447508,28.09745035447508 0 0,0 -0.48016211497125616,0.05814094520568647 l -0.7924942596762072 -7.053067019575149" fill="#ff5608" stroke="none" /><path d="M 101.98527174616119 120.90594882070398 l 0.5950152995336178 6.265822008316472 a27.294010537533453,27.294010537533453 0 0,0 -0.4680996660340434,0.040389608846090094 l -0.48707131575803264 -6.275135869441225" fill="#ff4b07" stroke="none" /><path d="M 101.26447882468166 120.96189622390904 l 0.6104460125585299 10.119668052782488 a31.13806321901551,31.13806321901551 0 0,0 -0.5352958261219035,0.02766867984369539 l -0.43616211802314675 -10.128676539388387" fill="#ff800b" stroke="none" /><path d="M 100.90346689309514 120.98055641714683 l 0.218673140800024 5.078087755658861 a26.082793837711677,26.082793837711677 0 0,0 -0.4487229802395724,0.015454926730156441 l -0.1312298088857993 -5.081099480815111" fill="#ff3a05" stroke="none" /><line stroke="#e1ed5e" stroke-width="0.3" x1="102.19456741930631" x2="102.32365962044197" y1="184.97166512339345" y2="189.96999836594603" /><path d="M 102.22038585953345 185.97133177190398 a86.0,86.0 0 0,1 -42.740103519485714,-10.115201625700543" fill="none" id="id19" stroke="none" /><text fill="#e1ed5e" style="font-size:6.75px; font-family:Arial;" text-anchor="middle"><textPath startOffset="22.20632615414155" xlink:href="#id19">July</textPath></text><path d="M 100.54218724476979 120.99299961872073 l 0.13064752093464393 5.058553818122917 a26.06024065688306,26.06024065688306 0 0,0 -0.4485343554521674,0.007721925695143906 l -0.04355347558980855 -5.06005322109722" fill="#ff3a05" stroke="none" /><path d="M 99.81925306533755 120.99922214144158 l -0.07541507087151829 8.761740988864426 a29.762065543515497,29.762065543515497 0 0,0 -0.5122481047372849,-0.008818815669698313 l 0.22622286550147114 -8.759144695915568" fill="#ff6d0a" stroke="none" /><path d="M 99.45781275523022 120.99299961872073 l -0.1321720431210921 5.117581937997814 a26.11928846043122,26.11928846043122 0 0,0 -0.44935082616634026,-0.015476551013340391 l 0.2202432209620754 -5.11454858855838" fill="#ff3b05" stroke="none" /><path d="M 99.09653310690486 120.98055641714683 l -0.5673113032743646 13.174258952264166 a34.18646810393653,34.18646810393653 0 0,0 -0.5877010897296561,-0.03037743337796557 l 0.7940004614175096 -13.162541712123998" fill="#ffa80f" stroke="none" /><path d="M 98.73552117531835 120.96189622390904 l -0.4917798222260336 8.15247942258733 a29.16729870454476,29.16729870454476 0 0,0 -0.5008959085877768,-0.034544714512859016 l 0.6320384915927404 -8.142806363558185" fill="#ff6509" stroke="none" /><path d="M 98.37488393609728 120.93702456842531 l -0.6390440409887823 8.23306167705746 a29.25782549249834,29.25782549249834 0 0,0 -0.5017796238880787,-0.04329565732760804 l 0.7806679826184029 -8.220841767451189" fill="#ff6609" stroke="none" /><path d="M 98.01472825383883 120.90594882070398 l -1.0236681985812963 10.779761012720007 a31.828256742068177,31.828256742068177 0 0,0 -0.5449716014912368,-0.056488534749003436 l 1.2090723966781265 -10.760543109515242" fill="#ff890c" stroke="none" /><path d="M 97.65516085044442 120.86867818915974 l -1.4047262713394768 12.50183003213583 a33.58050118436482,33.58050118436482 0 0,0 -0.573862904536137,-0.06948680590973232 l 1.619716598927003 -12.475797697500749" fill="#ffa00e" stroke="none" /><path d="M 97.2962882734958 120.8252237178851 l -1.7082422422138532 13.157662671545896 a34.26808872959011,34.26808872959011 0 0,0 -0.5843058480351909,-0.08097946633066086 l 1.9344766814358751 -13.126308639722632" fill="#ffa90f" stroke="none" /><path d="M 96.58105272829116 120.7198165907248 l -1.2011273810259533 7.279181882356546 a28.37761451025181,28.37761451025181 0 0,0 -0.48127221880932675,-0.08367534422179586 l 1.32624857130733 -7.257427959613745" fill="#ff5a08" stroke="none" /><path d="M 96.22490169976321 120.6578951692458 l -2.1839769845379418 11.951044452484963 a33.148959584024595,33.148959584024595 0 0,0 -0.560426390265844,-0.10740705152049676 l 2.389370989375481 -11.911680202616" fill="#ff9b0e" stroke="none" /><path d="M 95.86986931433489 120.58985236759428 l -2.5850019256962034 12.886954934565372 a34.14366168316013,34.14366168316013 0 0,0 -0.5752532876937301,-0.12054991951917535 l 2.80644667481932 -12.840549034319656" fill="#ffa80f" stroke="none" /><path d="M 95.51606077576429 120.51570834832081 l -3.1701039924091905 14.504418032829136 a35.84680779810083,35.84680779810083 0 0,0 -0.6016798789246356,-0.13694038154173807 l 3.4193040207266887 -14.447700917709712" fill="#ffbe11" stroke="none" /><path d="M 95.16358092515715 120.4354850818985 l -2.341260706498111 9.89260804328291 a31.165883906174503,31.165883906174503 0 0,0 -0.5209848177779522,-0.1280453927121791 l 2.5111988090192736 -9.850841392256703" fill="#ff800b" stroke="none" /><path d="M 94.81253420990036 120.34920634021253 l -2.390859477457399 9.37877854155426 a30.67872388140433,30.67872388140433 0 0,0 -0.5105955808999151,-0.13485293364668668 l 2.5519455011688033 -9.33623425860399" fill="#ff7a0b" stroke="none" /><path d="M 94.46302465271185 120.25689768951611 l -3.695124489453059 13.518528445234324 a35.0144409919613,35.0144409919613 0 0,0 -0.5800206041592144,-0.16391961640461222 l 3.927276261716887 -13.45292003549119" fill="#ffb310" stroke="none" /><path d="M 94.11515582081647 120.15858648285463 l -2.317849029149347 7.9398126247057785 a29.271218086676583,29.271218086676583 0 0,0 -0.48245243373409863,-0.1453589606664227 l 2.4541764373236914 -7.89873829493363" fill="#ff6709" stroke="none" /><path d="M 93.76903079525671 120.05430185196036 l -6.029203257277812 19.40492049876104 a41.31999585336586,41.31999585336586 0 0,0 -0.6774091711068914,-0.2168850247118689 l 6.362333773475644 -19.298262627389462" fill="#fcff18" stroke="none" /><path d="M 93.42475214034765 119.94407469862007 l -3.8301542469660186 11.617643021105218 a33.2327311309203,33.2327311309203 0 0,0 -0.5417414153939675,-0.18378810146489738 l 4.029565395297212 -11.549991932742198" fill="#ff9c0e" stroke="none" /><path d="M 93.08242187328487 119.8279376855182 l -5.037752208264637 14.439769964403093 a36.29332873957638,36.29332873957638 0 0,0 -0.5880909452244201,-0.21086848968385158 l 5.285562714118783 -14.350913933679283" fill="#ffc312" stroke="none" /><path d="M 92.7421414339146 119.70592522655815 l -4.566552013832627 12.398716743843952 a34.21293208145396,34.21293208145396 0 0,0 -0.5508767224688313,-0.2082944397903236 l 4.779298957061742 -12.318274053946995" fill="#ffa90f" stroke="none" /><path d="M 92.40401165467489 119.57807347666478 l -2.7012424149090792 6.962243762514597 a28.467901230786147,28.467901230786147 0 0,0 -0.4553222872734816,-0.18118213488718998 l 2.820685778224419 -6.91471478322134" fill="#ff5c08" stroke="none" /><path d="M 92.06813273071674 119.44442032107085 l -1.9203146004449465 4.707517533020297 a26.084125243183486,26.084125243183486 0 0,0 -0.41427620107830426,-0.17316748564952653 l 2.001062261020713 -4.6737650043507974" fill="#ff3a05" stroke="none" /><path d="M 91.7346041902142 119.30500536409082 l -3.9334441206375104 9.187117180565679 a30.993753285909296,30.993753285909296 0 0,0 -0.48863766322491436,-0.21420439182057072 l 4.091002458520168 -9.118048235450654" fill="#ff7e0b" stroke="none" /><path d="M 91.40352486487194 119.15986991738527 l -2.7522819346764624 6.134300747161411 a27.72344416981144,27.72344416981144 0 0,0 -0.4337161274922954,-0.19909780169899946 l 2.8574660579361773 -6.086015875128337" fill="#ff5107" stroke="none" /><path d="M 91.07499286063937 119.00905698771935 l -5.527508463850043 11.772844743847864 a34.005891864100676,34.005891864100676 0 0,0 -0.5277185415173354,-0.2533369693312798 l 5.72933967336762 -11.675953498017023" fill="#ffa60f" stroke="none" /><path d="M 90.7491055286396 118.85261126421891 l -6.910097677050089 14.082247474178578 a36.686272464495254,36.686272464495254 0 0,0 -0.5645250280279612,-0.28306456840056116 l 7.151476612760811 -13.961215064868716" fill="#ffc812" stroke="none" /><path d="M 90.42595943632237 118.69057910512821 l -6.9500112405557735 13.567911479919633 a36.2443720162815,36.2443720162815 0 0,0 -0.5528286709061461,-0.2892138323215304 l 7.182530813988415 -13.446268228653386" fill="#ffc312" stroke="none" /><path d="M 90.10565033884886 118.52300852407294 l -5.8492244137940546 10.950212736196912 a33.41453121188607,33.41453121188607 0 0,0 -0.5050004742264738,-0.27536652348961743 l 6.036847699889169 -10.847905560947527" fill="#ff9e0e" stroke="none" /><line stroke="#e1ed5e" stroke-width="0.3" x1="58.666819895761336" x2="56.23545636021788" y1="174.27360380694188" y2="178.64263932499728" /><path d="M 58.180547188652646 175.14741091055294 a86.0,86.0 0 0,1 -31.652253787137756,-30.449443065178592" fill="none" id="id20" stroke="none" /><text fill="#e1ed5e" style="font-size:6.75px; font-family:Arial;" text-anchor="middle"><textPath startOffset="22.20632615414155" xlink:href="#id20">August</textPath></text><path d="M 89.7882731507175 118.34994917583269 l -6.4251030693024775 11.545580538072377 a34.21296255244356,34.21296255244356 0 0,0 -0.5121374745542473,-0.2908050240189497 l 6.622889310777932 -11.433272348258793" fill="#ffa90f" stroke="none" /><path d="M 89.4739219176387 118.17145234162733 l -3.36013349889915 5.800689037170271 a27.703617712576666,27.703617712576666 0 0,0 -0.4105836152810028,-0.24258003702936984 l 3.4594849852085345 -5.741990427847151" fill="#ff5107" stroke="none" /><path d="M 89.1626897886671 117.98757091392108 l -4.197896330369546 6.967592184714637 a29.134474442336554,29.134474442336554 0 0,0 -0.42733448225143855,-0.26250374178018726 l 4.317210012553294 -6.894299976106072" fill="#ff6509" stroke="none" /><path d="M 88.8546689885994 117.79835938074946 l -4.851560933802276 7.747623194779034 a30.141296880786363,30.141296880786363 0 0,0 -0.4373619842610432,-0.27914511142147735 l 4.984204720110243 -7.662963654533752" fill="#ff720a" stroke="none" /><path d="M 88.54995079064634 117.60387380957326 l -5.944793881801356 9.139821096459862 a31.903068557630718,31.903068557630718 0 0,0 -0.45777151163084423,-0.30338599639134245 l 6.101240092172162 -9.0361370789772" fill="#ff8a0c" stroke="none" /><path d="M 88.24862548938628 117.40417183066458 l -5.0291718841394815 7.448368831957134 a29.98725587134858,29.98725587134858 0 0,0 -0.42530941477776124,-0.2925316936624384 l 5.156638183540133 -7.360696348929594" fill="#ff700a" stroke="none" /><path d="M 87.95078237400918 117.19931262002967 l -6.613513156234049 9.440271046759767 a32.526372963945406,32.526372963945406 0 0,0 -0.45579155654685405,-0.32519517357978034 l 6.775032040629791 -9.325031611335767" fill="#ff920d" stroke="none" /><path d="M 87.65650970185807 116.9893568818739 l -7.767286017467363 10.690752045570626 a34.21449625892022,34.21449625892022 0 0,0 -0.4734879448761915,-0.3502750621213485 l 7.950158932762119 -10.55546703470951" fill="#ffa90f" stroke="none" /><path d="M 87.36589467227662 116.77436683061367 l -9.344429763684072 12.406647610811595 a36.53200800113372,36.53200800113372 0 0,0 -0.49904683742720696,-0.38264783449034645 l 9.556605329604766 -12.243960434493882" fill="#ffc612" stroke="none" /><path d="M 87.07902340077011 116.55440617244103 l -9.58602146039169 12.281648497259773 a36.57981698382023,36.57981698382023 0 0,0 -0.49303062452574503,-0.3916933462647763 l 9.796009577634793 -12.114821236989867" fill="#ffc712" stroke="none" /><path d="M 86.79598089348748 116.32954008644616 l -5.1131350962899855 6.323464382227405 a29.132057077161413,29.132057077161413 0 0,0 -0.3872203498655645,-0.3186559861121519 l 5.221225574700239 -6.234513277258072" fill="#ff6509" stroke="none" /><path d="M 86.51685102203217 116.09983520530335 l -2.817391673788644 3.3641652800032666 a25.388086584687343,25.388086584687343 0 0,0 -0.3326256715761131,-0.2834708134770033 l 2.8748828219418137 -3.315170076303312" fill="#ff3004" stroke="none" /><path d="M 86.24171649860922 115.8653595955263 l -9.986382530791175 11.515793368661724 a36.24274689683603,36.24274689683603 0 0,0 -0.4678035094313545,-0.41278220649177955 l 10.183128393129117 -11.342188020397655" fill="#ffc312" stroke="none" /><path d="M 85.97065885151581 115.62618273729859 l -8.545836133421467 9.518536590599716 a33.791944889104144,33.791944889104144 0 0,0 -0.42948025310919596,-0.39232002833673213 l 8.708415935997518 -9.370023795676408" fill="#ffa30f" stroke="none" /><path d="M 85.70375840098266 115.38237550388516 l -5.538729604708236 5.9595256560272265 a29.13593704983748,29.13593704983748 0 0,0 -0.3644269806874878,-0.3445884566252657 l 5.640492419786542 -5.863302562656029" fill="#ff6509" stroke="none" /><path d="M 85.44109423537348 115.13401014063109 l -3.5253905018130576 3.664650109471467 a26.0850800008577,26.0850800008577 0 0,0 -0.32090865050013356,-0.3140766568320669 l 3.5879491046889855 -3.6034233497168304" fill="#ff3a05" stroke="none" /><path d="M 85.18274418774928 114.88116024355367 l -5.739530343517546 5.764284010943952 a29.13444397134695,29.13444397134695 0 0,0 -0.3523316752532314,-0.3569101268674628 l 5.837902643826311 -5.664633390095824" fill="#ff6509" stroke="none" /><path d="M 84.9287848128048 114.62390073753433 l -5.837071647446876 5.663827057732098 a29.133286073742052,29.133286073742052 0 0,0 -0.3461220958191093,-0.36290763368843226 l 5.933700294644942 -5.562512307461166" fill="#ff6509" stroke="none" /><path d="M 84.67929136418377 114.36230785411682 l -8.210161277836933 7.696567215473387 a32.2536169790158,32.2536169790158 0 0,0 -0.3762209206733269,-0.4083135048566387 l 8.34142860650599 -7.5541024558154035" fill="#ff8f0d" stroke="none" /><path d="M 84.43433777217949 114.09645910891817 l -9.792549155264954 8.868255440654766 a34.211357746991155,34.211357746991155 0 0,0 -0.39154271790495654,-0.43990239428207645 l 9.94375072281825 -8.698378876631825" fill="#ffa90f" stroke="none" /><path d="M 84.19399662182784 113.82643327865904 l -5.232078766057492 4.576804536653732 a27.951387486032115,27.951387486032115 0 0,0 -0.3136644680463365,-0.3648626390538678 l 5.310085743674607 -4.486064798438335" fill="#ff5407" stroke="none" /><path d="M 83.95833913139862 113.55231037782056 l -10.135943906068936 8.563044619406764 a34.26887681836436,34.26887681836436 0 0,0 -0.3768009874531425,-0.4538810627801541 l 10.281840893415616 -8.387302299512848" fill="#ffa90f" stroke="none" /><path d="M 83.72743513129214 113.27417163493432 l -7.909941441124558 6.452450560739702 a31.207903400836518,31.207903400836518 0 0,0 -0.33597847434530126,-0.41918480579782647 l 8.019837827524722 -6.315337921363615" fill="#ff810b" stroke="none" /><path d="M 83.50135304334701 112.99209946851258 l -49.49594086995897 38.976298405537754 a84.0,84.0 0 0,0 -0.8847727311277263,-1.1436880235469893 l 50.159520418304766 -38.118532387877515" fill="#4dd2ff" stroke="none" /><path d="M 83.28015986056508 112.70617746262583 l -6.479990318645689 4.924443431167409 a29.138821636853194,29.138821636853194 0 0,0 -0.3000448514643325,-0.40195911116532734 l 6.563796436805107 -4.812171440492773" fill="#ff6509" stroke="none" /><path d="M 83.06392112726016 112.41649034213515 l -8.138292699771656 5.966495164995442 a31.09112841168274,31.09112841168274 0 0,0 -0.3127178380186799,-0.4343377259329069 l 8.239790330165942 -5.825523833611397" fill="#ff7f0b" stroke="none" /><path d="M 82.6465618267979 111.8261652097733 l -4.205006463135374 2.865662737543109 a26.08862479264814,26.08862479264814 0 0,0 -0.24970155082985257,-0.3732699385393137 l 4.253711119375956 -2.7928558847979743" fill="#ff3a05" stroke="none" /><path d="M 82.44556493220864 111.52570212397912 l -8.33323130083189 5.471343357544549 a30.968868644400487,30.968868644400487 0 0,0 -0.2887406603470819,-0.44813191694777366 l 8.426176824556018 -5.327089840675327" fill="#ff7e0b" stroke="none" /><path d="M 82.05923443525364 110.91462005526583 l -7.098460586135896 4.318489085393063 a29.308880229825423,29.308880229825423 0 0,0 -0.25850310144922234,-0.4332660670995123 l 7.17174456328335 -4.195660924407439" fill="#ff6709" stroke="none" /><line stroke="#e1ed5e" stroke-width="0.3" x1="26.63291911575756" x2="22.317208475507996" y1="142.92168965132927" y2="145.44649492493687" /><path d="M 25.769776987707644 143.4266507060508 a86.0,86.0 0 0,1 -11.730757126820373,-40.83630448921669" fill="none" id="id21" stroke="none" /><text fill="#e1ed5e" style="font-size:6.75px; font-family:Arial;" text-anchor="middle"><textPath startOffset="21.46611528233685" xlink:href="#id21">September</textPath></text><path d="M 81.87401531095188 110.60418214915194 l -5.5645818948657615 3.2554281055242535 a27.44688946817805,27.44688946817805 0 0,0 -0.23506039441324586,-0.40984761095910877 l 5.619794285431384 -3.1591606487068375" fill="#ff4d07" stroke="none" /><path d="M 81.69416730710424 110.29060199501025 l -7.2968149047928055 4.101895787872148 a29.370726181722212,29.370726181722212 0 0,0 -0.24394988179201607,-0.4428398954856288 l 7.3663411960363385 -3.9756853739886964" fill="#ff6809" stroke="none" /><path d="M 81.51974371655577 109.97397251340807 l -7.172889982391696 3.8712778886170978 a29.15089830573237,29.15089830573237 0 0,0 -0.23452243579737628,-0.44362806644111186 l 7.2384649264139584 -3.74723480708986" fill="#ff6509" stroke="none" /><path d="M 81.35079622478065 109.6543875284942 l -7.2730385678167195 3.765133015313472 a29.189830073447983,29.189830073447983 0 0,0 -0.2271543266340812,-0.44819703658560034 l 7.3367715642370674 -3.6393817670251867" fill="#ff6509" stroke="none" /><path d="M 81.18737489456691 109.33194174019688 l -7.288091718581144 3.615234287285548 a29.135490141989976,29.135490141989976 0 0,0 -0.2189972493260513,-0.4511991984542721 l 7.349242224521913 -3.489246132865991" fill="#ff6509" stroke="none" /><path d="M 81.02952815118164 109.00673069616217 l -7.3496826428460755 3.4894552330544837 a29.135977677823618,29.135977677823618 0 0,0 -0.21120168408347414,-0.4549096381319239 l 7.408658943769376 -3.3624255276437327" fill="#ff6509" stroke="none" /><path d="M 80.87730276802145 108.67885076344099 l -7.415706687920164 3.36562415171656 a29.143717309182684,29.143717309182684 0 0,0 -0.20339388551104937,-0.45859951740981103 l 7.472541658162493 -3.2374762978140534" fill="#ff6509" stroke="none" /><path d="M 80.45479744820244 107.68017299344265 l -7.567405019996255 2.9735675294739994 a29.130665568636225,29.130665568636225 0 0,0 -0.17936960463205082,-0.4682774370683979 l 7.617468904221814 -2.8428665255724437" fill="#ff6509" stroke="none" /><path d="M 80.32549172779594 107.34259656027581 l -7.655142354646883 2.8569263914495306 a29.170877117915154,29.170877117915154 0 0,0 -0.17151883853620778,-0.4719461792416915 l 7.703185454188315 -2.724732415201722" fill="#ff6509" stroke="none" /><path d="M 80.20201598880116 107.00284435728193 l -6.47819532570006 2.291435004507905 a27.87151286528711,27.87151286528711 0 0,0 -0.1560926413543588,-0.4536782811215704 l 6.516678797997647 -2.1795840202970376" fill="#ff5307" stroke="none" /><path d="M 80.0844068197444 106.66101706037122 l -7.7139414094388545 2.5800233448189362 a29.133966592509843,29.133966592509843 0 0,0 -0.1549757060484318,-0.47696617916737194 l 7.7572093665035355 -2.446858265673761" fill="#ff6509" stroke="none" /><path d="M 79.86692584326677 105.97154293290107 l -3.937786941654853 1.1679619118099276 a25.10734720048186,25.10734720048186 0 0,0 -0.11932848185072151,-0.41539809974847774 l 3.957308060391679 -1.1000063365568538" fill="#ff2d04" stroke="none" /><path d="M 79.67330655649465 105.27499134158121 l -4.920064963048001 1.2768087516165951 a26.083038444554326,26.083038444554326 0 0,0 -0.10903788877328024,-0.4355521641158456 l 4.9413141661163404 -1.1919287481033576" fill="#ff3a05" stroke="none" /><path d="M 79.58551787078972 104.9243191809786 l -7.951875633175864 1.9181272126994215 a29.1799473158202,29.1799473158202 0 0,0 -0.11357868475101711,-0.4892940012770302 l 7.983714883857436 -1.780964554073817" fill="#ff6509" stroke="none" /><path d="M 79.50377843672027 104.57218783832718 l -4.312360544367967 0.9619784004855454 a25.41835443435928,25.41835443435928 0 0,0 -0.09158591534850805,-0.42785890598704185 l 4.328280498440916 -0.8876056750823398" fill="#ff3104" stroke="none" /><path d="M 79.4281124754447 104.21870165774334 l -14.514713323754497 2.976549676713059 a35.81677261918792,35.81677261918792 0 0,0 -0.11865596531962945,-0.605024210827869 l 14.563799222049793 -2.726261738817235" fill="#ffbd11" stroke="none" /><path d="M 79.23777060512086 103.15116336523772 l -5.055863234864066 0.7673477978855878 a26.113763359070305,26.113763359070305 0 0,0 -0.06362549922832368,-0.4449965934131244 l 5.06832278510899 -0.6802057324920628" fill="#ff3b05" stroke="none" /><path d="M 79.18660465613746 102.79330883721812 l -5.335886723730027 0.7161147565567704 a26.383726169952993,26.383726169952993 0 0,0 -0.05653465990915814,-0.45063686442403844 l 5.3474228928860335 -0.6241601378453233" fill="#ff3f05" stroke="none" /><path d="M 79.1416061653843 102.43462659150553 l -7.713853567888245 0.9003738815302967 a28.766222375992342,28.766222375992342 0 0,0 -0.05317326414976027,-0.4923183870196157 l 7.728209133539058 -0.7674591726258989" fill="#ff6008" stroke="none" /><path d="M 79.07016306316243 101.71520430193888 l -3.0487825307758967 0.24984833509424625 a24.05900296020021,24.05900296020021 0 0,0 -0.030272459681592024,-0.41304366077410154 l 3.0526315491218243 -0.19733153782338403" fill="#ff1e03" stroke="none" /><path d="M 79.04373962182676 101.35467743843564 l -3.0578920506757363 0.19767159290197822 a24.064274441401466,24.064274441401466 0 0,0 -0.023163180938315712,-0.41359415579847747 l 3.060841582501584 -0.14500572076806315" fill="#ff1e03" stroke="none" /><line stroke="#e1ed5e" stroke-width="0.3" x1="15.007084014347285" x2="10.007500721073583" y1="101.09737516637583" y2="101.16192664675087" /><path d="M 14.007167355692545 101.11028546245083 a86.0,86.0 0 0,1 10.666146001902534,-42.60595125391555" fill="none" id="id22" stroke="none" /><text fill="#e1ed5e" style="font-size:6.75px; font-family:Arial;" text-anchor="middle"><textPath startOffset="22.20632615414155" xlink:href="#id22">October</textPath></text><path d="M 79.00175016825051 100.2711162175752 l -5.689048692118928 0.07345342470763148 a26.689522864608364,26.689522864608364 0 0,0 -0.0019771887172544064,-0.45942902603915303 l 5.689470178125685 0.024485079535196942" fill="#ff4306" stroke="none" /><path d="M 79.00019446554 99.90962569577889 l -5.083803926475595 -0.02187854748930396 a26.083851004277065,26.083851004277065 0 0,0 0.005796816522834721,-0.44896982800948115 l 5.082674102835045 0.10938463355925707" fill="#ff3a05" stroke="none" /><path d="M 79.00486145842228 99.54816195383935 l -5.084776114393434 -0.10942987111716451 a26.085953502559644,26.085953502559644 0 0,0 0.013525325340557393,-0.44883970158849174 l 5.082139094597231 0.19693972013065067" fill="#ff3a05" stroke="none" /><path d="M 79.01574976396665 99.18683210126434 l -7.208839949506034 -0.2793522364690191 a28.214250556337394,28.214250556337394 0 0,0 0.02298304873404437,-0.4851358338499533 l 7.202963292538491 0.40339917694198146" fill="#ff5808" stroke="none" /><path d="M 79.03285615573316 98.82574320788736 l -4.603138880421996 -0.2577970149640249 a25.610352139845396,25.610352139845396 0 0,0 0.028438965527145567,-0.4399382093208433 l 4.598019323890437 0.33699428853788" fill="#ff3404" stroke="none" /><path d="M 79.05617556472873 98.46500227214037 l -5.072226882254082 -0.3717495228014082 a26.085831618601233,26.085831618601233 0 0,0 0.03667607826366121,-0.4475410519163484 l 5.065076320170923 0.459004491925535" fill="#ff3a05" stroke="none" /><path d="M 79.21141760316559 97.0276538004421 l -5.2954097443413115 -0.757136332253784 a26.349263480712427,26.349263480712427 0 0,0 0.0680615360020794,-0.44844048361053596 l 5.28159231489993 0.848175928256412" fill="#ff3e05" stroke="none" /><path d="M 79.26566170972629 96.67025291283419 l -12.099541546528279 -1.9430768735693469 a33.254568673468846,33.254568673468846 0 0,0 0.09562769038755667,-0.5644000418405505 l 12.0643019946205 2.1510627037257253" fill="#ff9c0e" stroke="none" /><path d="M 79.32604984820605 96.31383870115002 l -6.007747712628442 -1.0711802509412474 a27.10249618669269,27.10249618669269 0 0,0 0.08584299590921905,-0.45857671669614 l 5.988418992809361 1.17443504509996" fill="#ff4906" stroke="none" /><path d="M 79.3925641242962 95.95851677861259 l -11.970518827470002 -2.3476307913475356 a33.198552837582696,33.198552837582696 0 0,0 0.11480487055564334,-0.5598293209492183 l 11.928334660999365 2.5533357684601565" fill="#ff9b0e" stroke="none" /><path d="M 79.46518482838121 95.60439243477599 l -8.010169718926436 -1.7146276857609366 a29.19162786183454,29.19162786183454 0 0,0 0.10940690310828982,-0.490449694096613 l 7.979468428816108 1.8522555494075088" fill="#ff6609" stroke="none" /><path d="M 79.54389044137918 95.25157060432595 l -11.711777296801586 -2.7186277738859568 a33.02317197842654,33.02317197842654 0 0,0 0.13329913405317842,-0.5526109681271744 l 11.663245362487592 2.9198239736725276" fill="#ff990e" stroke="none" /><path d="M 79.62865764111835 94.90015583598534 l -12.820719006424381 -3.2095906028931203 a34.21636514628251,34.21636514628251 0 0,0 0.14795102215940095,-0.5701156414004536 l 12.763571652394672 3.4298026698424375" fill="#ffa90f" stroke="none" /><path d="M 79.71946130924805 94.55025226153421 l -8.913326412148985 -2.3951721005797033 a30.22953070967902,30.22953070967902 0 0,0 0.13936278534606658,-0.5013620880538644 l 8.870776856236557 2.5482454920525104" fill="#ff740a" stroke="none" /><path d="M 79.81627453868168 94.20196356495316 l -7.816694425400638 -2.2454466677600293 a29.132818851901476,29.132818851901476 0 0,0 0.14260390373754112,-0.48078947120502274 l 7.776884624551391 2.3796655257115913" fill="#ff6509" stroke="none" /><path d="M 79.91906864156998 93.8553929516997 l -0.9774633652027405 -0.2990961014743327 a22.0222001312026,22.0222001312026 0 0,0 0.11403778569654402,-0.36153094429315663 l 0.9721700957379926 0.3158772121939038" fill="#ff0000" stroke="none" /><path d="M 80.02781315780177 93.51064311812611 l -12.996882505074353 -4.222943115523531 a34.6657309869489,34.6657309869489 0 0,0 0.18927935849253755,-0.5659211899611999 l 12.922265852810044 4.446037408407053" fill="#ffae10" stroke="none" /><path d="M 80.14247586403 93.16781622104843 l -10.113376613684759 -3.4796104074869825 a31.695236094547774,31.695236094547774 0 0,0 0.18194109829540275,-0.5143719853328967 l 10.051982434579546 3.6531800192464905" fill="#ff870c" stroke="none" /><path d="M 80.2630227832202 92.82701384747504 l -8.408170117593952 -3.0557712642187336 a29.94623176234692,29.94623176234692 0 0,0 0.18024125173464137,-0.4829569443363786 l 8.354324277357684 3.2000513455844537" fill="#ff700a" stroke="none" /><path d="M 80.38941819471856 92.48833698450439 l -7.594776444086009 -2.9091131457728547 a29.132869636884152,29.132869636884152 0 0,0 0.18340729887866286,-0.46675157045579396 l 7.543575595325655 3.0394137211244123" fill="#ff6509" stroke="none" /><path d="M 80.52162464483688 92.15188598940014 l -8.449907681854603 -3.4045877881011326 a30.110003174464474,30.110003174464474 0 0,0 0.1978346402792276,-0.4790722735390525 l 8.390051354689176 3.549534632093496" fill="#ff720a" stroke="none" /><path d="M 80.65960295795068 91.81776055985345 l -7.491823196704653 -3.1695259981170563 a29.134697896260306,29.134697896260306 0 0,0 0.19937746445807197,-0.4601906768762167 l 7.4361550224038995 3.2980158195798723" fill="#ff6509" stroke="none" /><path d="M 80.803312248108 91.48605970444005 l -9.294720253469679 -4.122309761181232 a31.16785436350214,31.16785436350214 0 0,0 0.22173358224432904,-0.48856055657526326 l 9.222384354261997 4.2816923265985665" fill="#ff800b" stroke="none" /><path d="M 80.95270993114464 91.15688171328213 l -11.074896399147145 -5.1417612960566155 a33.210284168579705,33.210284168579705 0 0,0 0.24518964002501345,-0.5164319130468031 l 10.984748565280379 5.33163562474395" fill="#ff9b0e" stroke="none" /><path d="M 81.10775173730289 90.83032412892265 l -5.710409875297076 -2.7716451170538408 a27.347503257090835,27.347503257090835 0 0,0 0.20919536042740827,-0.4217250813477279 l 5.661854501916254 2.8695297869005305" fill="#ff4c07" stroke="none" /><path d="M 81.26839172434947 90.50648371742162 l -9.655645395264612 -4.893654908313744 a31.8249409402896,31.8249409402896 0 0,0 0.2518573797386963,-0.4865082930612747 l 9.5699785823658 5.059135923635354" fill="#ff890c" stroke="none" /><path d="M 81.43458229118936 90.18545643968196 l -7.486858128280087 -3.9579015340470627 a29.4686497853085,29.4686497853085 0 0,0 0.24092992833832327,-0.4464065662962895 l 7.417620100723292 4.086189083675825" fill="#ff6909" stroke="none" /><path d="M 81.6062741919709 89.86733742301443 l -6.6804264069493895 -3.6800867512363613 a28.627000424497965,28.627000424497965 0 0,0 0.24147877990086467,-0.4295638045172967 l 6.616089985756094 3.7945340656884423" fill="#ff5e08" stroke="none" /><line stroke="#e1ed5e" stroke-width="0.3" x1="26.266209847984243" x2="21.928928074336255" y1="57.711370442889674" y2="55.22380399835377" /><path d="M 25.398753493254645 57.213857153982495 a86.0,86.0 0 0,1 29.58750427330803,-30.492523968695096" fill="none" id="id23" stroke="none" /><text fill="#e1ed5e" style="font-size:6.75px; font-family:Arial;" text-anchor="middle"><textPath startOffset="21.46611528233685" xlink:href="#id23">November</textPath></text><path d="M 81.96595687620814 89.24020034530311 l -13.965011437704673 -8.332059772387794 a37.26175773112689,37.26175773112689 0 0,0 0.3333759812269124,-0.5479824578248775 l 13.819519658191544 8.571210003419745" fill="#ffd013" stroke="none" /><path d="M 82.15384107792192 88.93136811851018 l -13.02342818135461 -8.07745425801963 a36.324977940776975,36.324977940776975 0 0,0 0.33414206214915565,-0.5285324979301732 l 12.88245852295949 8.300434403664019" fill="#ffc412" stroke="none" /><path d="M 82.34701348167596 88.62581576622439 l -4.28010187858835 -2.7577581422757937 a26.0916109496292,26.0916109496292 0 0,0 0.24650778101612203,-0.37544826241430734 l 4.2319974622143075 2.8310244686677684" fill="#ff3a05" stroke="none" /><path d="M 82.7489923806493 88.02491185347247 l -6.682046403251077 -4.638459181269004 a29.134190046433595,29.134190046433595 0 0,0 0.2895208473774359,-0.4095067064764117 l 6.6012129360697624 4.752792388077202" fill="#ff6509" stroke="none" /><path d="M 82.95767976084542 87.72973835380427 l -4.142361143754613 -2.9824492412791987 a26.104327509290023,26.104327509290023 0 0,0 0.2656890839963877,-0.3623996119836778 l 4.090409447244592 3.0533112969343774" fill="#ff3b05" stroke="none" /><path d="M 83.39014120810768 87.1503855733568 l -17.918976664552876 -13.862365956531379 a43.6551299845662,43.6551299845662 0 0,0 0.4649186515327624,-0.5903994742183416 l 17.67770393242614 14.16875782470277" fill="#e0ff1b" stroke="none" /><path d="M 83.84228863543731 86.58626213691792 l -3.92048374632434 -3.2546899794859643 a26.09540966633299,26.09540966633299 0 0,0 0.28989438627909486,-0.3431435159580816 l 3.8638787465581212 3.321692445073162" fill="#ff3a05" stroke="none" /><path d="M 84.07557802195018 86.31012108654704 l -6.167171476810315 -5.30178306455388 a29.132829008898014,29.132829008898014 0 0,0 0.33018334957681694,-0.37745664652956096 l 6.074996263655654 5.407155267286384" fill="#ff6509" stroke="none" /><path d="M 84.31358615837235 86.03803664274999 l -10.152625600922649 -9.036519631006506 a34.5917067962076,34.5917067962076 0 0,0 0.3997094112402358,-0.4413691152205992 l 9.995572549066368 9.20994153349666" fill="#ffae10" stroke="none" /><path d="M 84.5562425177563 85.77008943001954 l -5.9808789750640035 -5.5107944451270034 a29.132636025963862,29.132636025963862 0 0,0 0.342978077274239,-0.3658650993812844 l 5.885133575819308 5.612928961386338" fill="#ff6509" stroke="none" /><path d="M 84.80347519578584 85.50635884689758 l -0.9919186462116181 -0.9460395120913158 a22.37072731027738,22.37072731027738 0 0,0 0.2681672148071159,-0.276369887422411 l 0.9754871677013838 0.9629735950638504" fill="#ff0500" stroke="none" /><path d="M 85.05521093208273 85.24692304244772 l -31.588027206862602 -31.182815240967777 a65.38661317530122,65.38661317530122 0 0,0 0.7976052116104978,-0.7941800413537409 l 31.046586195084792 31.721931132971626" fill="#36ff6d" stroke="none" /><path d="M 85.83668400450813 84.49514656593479 l -5.485792258974645 -6.0054019109793595 a29.133804080565298,29.133804080565298 0 0,0 0.37317491367636757,-0.3350401220846738 l 5.3816063577023066 6.098941041833312" fill="#ff6509" stroke="none" /><path d="M 86.65592168130627 83.78471172551755 l -3.4913042951225512 -4.242518984622746 a26.494376490196643,26.494376490196643 0 0,0 0.35464186612127974,-0.286762392048103 l 3.4177590304367707 4.301987473934982" fill="#ff4006" stroke="none" /><path d="M 86.93701828274178 83.55741782278169 l -7.899635908682939 -9.943396952551687 a33.69942480767405,33.69942480767405 0 0,0 0.45729709428761606,-0.35692763561779917 l 7.727306259235896 10.077902977392707" fill="#ffa20f" stroke="none" /><path d="M 87.22198572758235 83.33499621200491 l -4.961654046968433 -6.470957202320104 a29.154219643599053,29.154219643599053 0 0,0 0.4008758598219966,-0.301931386589778 l 4.849532033388047 6.555405178415737" fill="#ff6509" stroke="none" /><path d="M 87.51073957382395 83.11751280151077 l -4.834666025981425 -6.535309898857877 a29.129223275128368,29.129223275128368 0 0,0 0.4056656084660822,-0.29473331669978114 l 4.7214551011615615 6.617562450374326" fill="#ff6509" stroke="none" /><path d="M 87.80319425747018 82.90503203632743 l -4.724044843975593 -6.621192217985172 a29.133682196606884,29.133682196606884 0 0,0 0.41074171846100976,-0.28775082255593065 l 4.609371985930923 6.701527883305045" fill="#ff6509" stroke="none" /><path d="M 88.09926311788651 82.69761687909137 l -8.640578023856593 -12.562465067147986 a36.24713471933881,36.24713471933881 0 0,0 0.517117685863221,-0.3491601698584618 l 8.423055643586832 12.709337149305114" fill="#ffc312" stroke="none" /><path d="M 88.39885842347998 82.49532879139004 l -7.2963276201601905 -11.009245528017736 a34.207569187283895,34.207569187283895 0 0,0 0.4936200681672578,-0.3210642232714665 l 7.1057405262086455 11.133208675448737" fill="#ffa90f" stroke="none" /><path d="M 88.70189139769569 82.29822771554957 l -2.736564370480207 -4.28762379909333 a26.08650198037249,26.08650198037249 0 0,0 0.380590694685224,-0.2383258580964309 l 2.662354523422741 4.334093998512691" fill="#ff3a05" stroke="none" /><path d="M 89.00827224532344 82.1063720568725 l -2.531939619682868 -4.1217892710082085 a25.837340698391856,25.837340698391856 0 0,0 0.38096289468003314,-0.22952588142180036 l 2.460614658785186 4.164761761888628" fill="#ff3705" stroke="none" /><line stroke="#e1ed5e" stroke-width="0.3" x1="56.762969772571076" x2="54.21961505331055" y1="26.818313649435495" y2="22.513508569990535" /><path d="M 56.25429882871897 25.957352633546506 a86.0,86.0 0 0,1 42.265352541879196,-11.944610805530505" fill="none" id="id24" stroke="none" /><text fill="#e1ed5e" style="font-size:6.75px; font-family:Arial;" text-anchor="middle"><textPath startOffset="22.20632615414155" xlink:href="#id24">December</textPath></text><path d="M 89.3179101791058 81.91981866633112 l -9.35350487681675 -15.831458742035407 a39.38812495556314,39.38812495556314 0 0,0 0.5867016280078294,-0.33985545191187494 l 9.0796065163436 15.99011835133733" fill="#ffea16" stroke="none" /><path d="M 89.63071344664047 81.73862282372117 l -7.5341991997178335 -13.26849755759615 a36.25834804351257,36.25834804351257 0 0,0 0.5453875579517784,-0.30350758552158646 l 7.304687552694009 13.396220540677922" fill="#ffc312" stroke="none" /><path d="M 89.94658935756843 81.56283822128135 l -7.40859913398945 -13.586786180853855 a36.47540305944858,36.47540305944858 0 0,0 0.5538268069229423,-0.2958351000212984 l 7.173627280538202 13.712300007376903" fill="#ffc612" stroke="none" /><path d="M 90.26544431104013 81.39251694778311 l -6.2484175983230035 -11.943773119078237 a34.47948214150115,34.47948214150115 0 0,0 0.5282577034475481,-0.2705941133463514 l 6.041899407286692 12.049559757737093" fill="#ffac0f" stroke="none" /><path d="M 90.58718382345135 81.22770947309562 l -4.613701435100239 -9.201257319767851 a31.293171386741186,31.293171386741186 0 0,0 0.483596821969748,-0.23729886030261577 l 4.454633346120065 9.279311340205297" fill="#ff820c" stroke="none" /><path d="M 90.91171255644093 81.06846463323043 l -9.812561103528925 -20.440247816072265 a43.67355477627925,43.67355477627925 0 0,0 0.6805208910856488,-0.3195136831536306 l 9.459262001143667 20.606126481865903" fill="#e0ff1b" stroke="none" /></svg>