<?xml version="1.0" encoding="utf-8" ?>
<svg baseProfile="full" height="200mm" version="1.1" viewBox="0,0,200,200" width="200mm" xmlns="http://www.w3.org/2000/svg" xmlns:ev="http://www.w3.org/2001/xml-events" xmlns:xlink="http://www.w3.org/1999/xlink"><defs /><rect fill="#1a1a1a" height="200" width="200" x="0" y="0" /><text alignment-baseline="middle" fill="#e1ed5e" style="dominant-baseline: central; font-size:9.0px; font-family:Arial;" text-anchor="middle" x="100.0" y="100.0">2024</text><line stroke="#e1ed5e" stroke-width="0.3" x1="100.0" x2="100.0" y1="15.0" y2="10.0" /><path d="M 100.0 14.0 a86.0,86.0 0 0,1 42.35913384403234,11.155469271406648" fill="none" id="id1" stroke="none" /><text fill="#e1ed5e" style="font-size:6.75px; font-family:Arial;" text-anchor="middle"><textPath startOffset="22.145653131862478" xlink:href="#id1">January</textPath></text><line stroke="#e1ed5e" stroke-width="0.3" x1="143.13028292997686" x2="145.6673583964461" y1="26.7553504044142" y2="22.446841604673864" /><path d="M 143.63769802327073 25.89364864446614 a86.0,86.0 0 0,1 29.32050498858742,28.57503671076993" fill="none" id="id2" stroke="none" /><text fill="#e1ed5e" style="font-size:6.75px; font-family:Arial;" text-anchor="middle"><textPath startOffset="20.669276256404974" xlink:href="#id2">February</textPath></text><line stroke="#e1ed5e" stroke-width="0.3" x1="172.87174338648825" x2="177.1583165268699" y1="56.24261187166439" y2="53.66864786411523" /><path d="M 173.72905801456457 55.72781907015455 a86.0,86.0 0 0,1 12.242430191666344,42.057860355516425" fill="none" id="id3" stroke="none" /><text fill="#e1ed5e" style="font-size:6.75px; font-family:Arial;" text-anchor="middle"><textPath startOffset="22.145653131862474" xlink:href="#id3">March</textPath></text><line stroke="#e1ed5e" stroke-width="0.3" x1="184.99686870605535" x2="189.99668451229388" y1="99.2704041080226" y2="99.22748670261217" /><path d="M 185.99683186730306 99.26182062694052 a86.0,86.0 0 0,1 -10.086455211305974,41.156179273409016" fill="none" id="id4" stroke="none" /><text fill="#e1ed5e" style="font-size:6.75px; font-family:Arial;" text-anchor="middle"><textPath startOffset="21.40746469413373" xlink:href="#id4">April</textPath></text><path d="M 120.9064616781168 101.97986365728391 l 14.907732617066245 1.4117777783473355 a35.97443181818182,35.97443181818182 0 0,0 -0.06349933901578228,0.6142985030210011 l -14.881300885568796 -1.6674808036512678" fill="#ff7d0b" stroke="none" /><path d="M 120.86939407059847 102.33845913500097 l 17.78641540107824 1.9930049446031088 a38.89772727272727,38.89772727272727 0 0,0 -0.08005136295085027,0.6629401211532319 l -17.749581951867725 -2.2980387426797493" fill="#ffa70f" stroke="none" /><path d="M 120.7213421655516 103.40968896794604 l 8.830117400093016 1.4529924579315499 a29.948863636363637,29.948863636363637 0 0,0 -0.08782886823550673,0.5065735723689342 l -8.803873714365274 -1.604359063221072" fill="#ff2003" stroke="none" /><path d="M 120.65975698304385 103.76489593502545 l 8.891912451508928 1.6204026538532827 a30.038352272727273,30.038352272727273 0 0,0 -0.09680031771571825,0.5065001662094493 l -8.86278584151105 -1.7728053850960466" fill="#ff2103" stroke="none" /><path d="M 120.592083275326 104.11899336999214 l 30.712624203256112 6.143384997857586 a52.32102272727273,52.32102272727273 0 0,0 -0.18372723751997827,0.8792013415417507 l -30.602639254911768 -6.669702790684746" fill="#a3ff21" stroke="none" /><path d="M 120.43855184770803 104.8234425847677 l 16.46116320688985 3.8847896954024015 a37.91335227272727,37.91335227272727 0 0,0 -0.1549256445991306,0.6321494984703202 l -16.392050035774425 -4.166795018480821" fill="#ff990e" stroke="none" /><path d="M 120.26092885502905 105.52220625578681 l 6.763236194505437 1.8433500995879246 a28.00994318181818,28.00994318181818 0 0,0 -0.13042164196302505,0.4628203969532315 l -6.730596060467832 -1.9591784204441647" fill="#ff0100" stroke="none" /><path d="M 120.16314734710363 105.8691983318838 l 8.649531958558661 2.5177526935069694 a30.008522727272727,30.008522727272727 0 0,0 -0.14821878135844965,0.49337211759621047 l -8.605036857196582 -2.6658624146939034" fill="#ff2103" stroke="none" /><path d="M 120.05942366710727 106.21446072829308 l 20.28737166332439 6.285079600205494 a42.23863636363636,42.23863636363636 0 0,0 -0.22051642394802148,0.6907645572343762 l -20.176490523599114 -6.632413191131254" fill="#ffd714" stroke="none" /><path d="M 119.94978838288452 106.5578916946017 l 13.885506118769056 4.5644416624358355 a35.61647727272727,35.61647727272727 0 0,0 -0.1959153503445969,0.579188921417404 l -13.805105346852095 -4.8021322583274" fill="#ff770b" stroke="none" /><path d="M 119.83427380445688 106.89939002012753 l 14.143189559428066 4.919735497306847 a35.97443181818182,35.97443181818182 0 0,0 -0.20789766324858588,0.5815267650633646 l -14.056651726135536 -5.161797218751133" fill="#ff7d0b" stroke="none" /><path d="M 119.71291397450082 107.23885506374661 l 14.168656919172472 5.202927077067875 a36.09375,36.09375 0 0,0 -0.21857226219393017,0.5797888934162894 l -14.077253973164101 -5.445384250678322" fill="#ff7e0b" stroke="none" /><path d="M 119.58574465831526 107.57618678355244 l 14.077253973164101 5.445384250678322 a36.09375,36.09375 0 0,0 -0.22849290240197362,0.5759513766641866 l -13.981702395796002 -5.6862366445560735" fill="#ff7e0b" stroke="none" /><path d="M 119.4528033332814 107.91128576633889 l 19.673857916614136 8.00118674095637 a42.23863636363636,42.23863636363636 0 0,0 -0.2789241536027507,0.6693164298737934 l -19.5336079184749 -8.337735680271441" fill="#ffd714" stroke="none" /><path d="M 119.31412917781788 108.2440532568976 l 13.744856133645964 5.866861763786508 a35.94460227272727,35.94460227272727 0 0,0 -0.24710393774084713,0.5654221675001522 l -13.642118313888151 -6.101946001062505" fill="#ff7c0b" stroke="none" /><path d="M 119.16976305983485 108.57439118712176 l 13.642118313888151 6.101946001062505 a35.94460227272727,35.94460227272727 0 0,0 -0.25677374978644524,0.5610969835671874 l -13.535360099246649 -6.335231966844381" fill="#ff7c0b" stroke="none" /><path d="M 119.0197475246899 108.90220220490707 l 13.562376786071495 6.347877140430897 a35.97443181818182,35.97443181818182 0 0,0 -0.2665889416198099,0.5570683558373369 l -13.451408586491773 -6.579757998333338" fill="#ff7d0b" stroke="none" /><line stroke="#e1ed5e" stroke-width="0.3" x1="174.33088141563837" x2="178.70328620479359" y1="141.23008692659167" y2="143.65538615756765" /><path d="M 175.20536237346943 141.71514677278685 a86.0,86.0 0 0,1 -30.301960400862466,31.631185727798858" fill="none" id="id5" stroke="none" /><text fill="#e1ed5e" style="font-size:6.75px; font-family:Arial;" text-anchor="middle"><textPath startOffset="22.145653131862474" xlink:href="#id5">May</textPath></text><path d="M 118.18653347947321 110.5 l 6.277454027715897 3.6242897727272716 a28.248579545454547,28.248579545454547 0 0,0 -0.2460670404930571,0.4178756301505805 l -6.2143132770930745 -3.731516571171402" fill="#ff0500" stroke="none" /><path d="M 118.00360718960297 110.81064883170644 l 5.958580220422576 3.5779562184482976 a27.95028409090909,27.95028409090909 0 0,0 -0.25053042230864464,0.4092226167489915 l -5.896281833658526 -3.679715951321846" fill="#ff0000" stroke="none" /><path d="M 117.62189284568427 111.42229804090321 l 9.561879356607088 6.197894675603732 a32.39488636363636,32.39488636363636 0 0,0 -0.3064796297330835,0.4640492217667325 l -9.454075287953279 -6.361123775709525" fill="#ff4606" stroke="none" /><path d="M 117.423217284605 111.72311816256416 l 11.780470777659065 7.926426484915539 a35.19886363636364,35.19886363636364 0 0,0 -0.34161379340613923,0.49842473383146035 l -11.642667247437606 -8.127485953817043" fill="#ff710a" stroke="none" /><path d="M 117.21940702142032 112.02048342749411 l 12.278611256751423 8.571424262218814 a35.97443181818182,35.97443181818182 0 0,0 -0.35783407837055037,0.5033384440175258 l -12.129662079850911 -8.780939932945843" fill="#ff7d0b" stroke="none" /><path d="M 116.79662413953412 112.60449989151573 l 7.634829154333687 5.729318132507151 a30.545454545454547,30.545454545454547 0 0,0 -0.3183243965755572,0.4166968534678149 l -7.535352780403825 -5.859535899215843" fill="#ff2904" stroke="none" /><path d="M 116.1254893667686 113.45245675266167 l 11.475667859021407 9.573410274266337 a35.94460227272727,35.94460227272727 0 0,0 -0.39933672013341903,0.47041765219926734 l -11.309636575380873 -9.76899470891516" fill="#ff7c0b" stroke="none" /><path d="M 115.89218393027572 113.72728997021213 l 11.309636575380873 9.76899470891516 a35.94460227272727,35.94460227272727 0 0,0 -0.4073532214913415,0.4634931892576587 l -11.140272289930946 -9.961700175984111" fill="#ff7c0b" stroke="none" /><path d="M 115.6541949942343 113.99807769240083 l 7.471320338157281 6.680900716827668 a31.022727272727273,31.022727272727273 0 0,0 -0.3583897601199502,0.39393312701707583 l -7.355532877195451 -6.808171419402416" fill="#ff3104" stroke="none" /><path d="M 115.41159269507618 114.26474011684316 l 10.967624915103931 10.15146988428753 a35.94460227272727,35.94460227272727 0 0,0 -0.42302375049404367,0.4492365635893195 l -10.791745330873628 -10.338247907821348" fill="#ff7c0b" stroke="none" /><path d="M 115.16444852881244 114.52719865689866 l 10.791745330873628 10.338247907821348 a35.94460227272727,35.94460227272727 0 0,0 -0.43067315996204175,0.4419086023556485 l -10.61268536976078 -10.521979202244733" fill="#ff7c0b" stroke="none" /><path d="M 114.91283532996324 114.78537596483092 l 21.204187734791496 21.022956449993966 a50.859375,50.859375 0 0,0 -0.6200195684352414,0.6147202877274598 l -20.84017624622629 -21.383856747950087" fill="#b5ff1f" stroke="none" /><path d="M 114.13192950727249 115.5334660781643 l 13.79067552769347 15.158368175708627 a41.49289772727273,41.49289772727273 0 0,0 -0.5309806075123314,0.47480613342643285 l -13.52842989335776 -15.392869839018447" fill="#ffcc13" stroke="none" /><path d="M 113.86319453409587 115.77377054828091 l 41.58958360228761 47.32131164484274 a84.0,84.0 0 0,0 -1.0912820809485777,0.9426234701411293 l -40.77112204157618 -48.02827924744859" fill="#4dd2ff" stroke="none" /><path d="M 113.59037401385872 116.0094264158162 l 9.266164100358225 10.91551801078377 a35.31818181818182,35.31818181818182 0 0,0 -0.4655704380004493,0.38839541796640015 l -9.07741932819588 -11.072975612662042" fill="#ff730a" stroke="none" /><path d="M 113.31354834802062 116.24036423190432 l 9.474556423804449 11.557418295716005 a35.94460227272727,35.94460227272727 0 0,0 -0.480543780855001,0.3870920539473703 l -9.274761872594196 -11.718358643456778" fill="#ff7c0b" stroke="none" /><path d="M 113.03279911837588 116.46651593811092 l 9.293274371341889 11.741748580868869 a35.97443181818182,35.97443181818182 0 0,0 -0.4875221687072611,0.37910018713824356 l -9.090342257999398 -11.899549819627905" fill="#ff7d0b" stroke="none" /><path d="M 112.45986205192187 116.90419585922612 l 8.88473117906929 12.053844206436803 a35.97443181818182,35.97443181818182 0 0,0 -0.5002484396150494,0.36214129222168906 l -8.676501729080274 -12.20458627003157" fill="#ff7d0b" stroke="none" /><path d="M 112.16784306229584 117.11559508785304 l 10.92340456728831 15.365136499322611 a39.85227272727273,39.85227272727273 0 0,0 -0.5609774974316175,0.39160586091527977 l -10.658031978682933 -15.550387176043014" fill="#ffb510" stroke="none" /><path d="M 111.8722381534696 117.32195027204791 l 6.762453834575722 9.866622243027292 a32.96164772727273,32.96164772727273 0 0,0 -0.469473865984107,0.31588296898704704 l -6.592083680494612 -9.98125488607146" fill="#ff4f07" stroke="none" /><path d="M 111.5731344415666 117.5232005979908 l 7.857895260040959 11.897854951476702 a35.25852272727273,35.25852272727273 0 0,0 -0.5079147481139412,0.3292242032755632 l -7.652494879670008 -12.03099299645616" fill="#ff720a" stroke="none" /><path d="M 111.27062007382361 117.71928675628689 l 4.994933896353644 7.852865721536237 a30.30681818181818,30.30681818181818 0 0,0 -0.44137676867847964,0.2754517477400391 l -4.8593929988854505 -7.937453266117824" fill="#ff2603" stroke="none" /><path d="M 110.96478420261333 117.91015095944535 l 7.927663578309921 12.949242668121713 a36.18323863636364,36.18323863636364 0 0,0 -0.5325263725793032,0.3197667860084161 l -7.704204449173181 -13.083423454666052" fill="#ff800b" stroke="none" /><line stroke="#e1ed5e" stroke-width="0.3" x1="143.1302829299769" x2="145.66735839644613" y1="173.24464959558577" y2="177.55315839532614" /><path d="M 143.63769802327073 174.10635135553383 a86.0,86.0 0 0,1 -40.68552437913181,11.842963189579606" fill="none" id="id6" stroke="none" /><text fill="#e1ed5e" style="font-size:6.75px; font-family:Arial;" text-anchor="middle"><textPath startOffset="21.407464694133747" xlink:href="#id6">June</textPath></text><path d="M 110.65571695917076 118.09573695890943 l 4.540788476919359 7.711251544989813 a29.948863636363637,29.948863636363637 0 0,0 -0.44525051458545434,0.25706550445273246 l -4.407745494473506 -7.788063946718717" fill="#ff2003" stroke="none" /><path d="M 110.34350942703117 118.27599006163325 l 7.4637823706418045 13.187788283110363 a36.15340909090909,36.15340909090909 0 0,0 -0.542741539708542,0.301049583089531 l -7.236296642777169 -13.313970781633037" fill="#ff7f0b" stroke="none" /><path d="M 110.02825361518725 118.45085714620011 l 6.025498976170751 11.086239450060578 a33.61789772727273,33.61789772727273 0 0,0 -0.5094090974553324,0.27123165181344505 l -5.834301062928865 -11.188041569596592" fill="#ff5908" stroke="none" /><path d="M 109.71004243097381 118.62028667847754 l 7.075641714615859 13.568475946106506 a36.30255681818182,36.30255681818182 0 0,0 -0.555036322691151,0.28340550115647484 l -6.841678170211125 -13.687939398935818" fill="#ff820b" stroke="none" /><path d="M 109.3889696526874 118.78422872680471 l 9.428979466548277 18.864275156038254 a42.08948863636364,42.08948863636364 0 0,0 -0.6490595004136649,0.3174875264386615 l -9.103759716872542 -19.02335643257414" fill="#ffd513" stroke="none" /><path d="M 109.06512990194946 118.94263497670748 l 8.550065702975061 17.866348898485473 a40.80681818181819,40.80681818181819 0 0,0 -0.6344707946360505,0.29696436819816774 l -8.242106194467505 -18.010489498254174" fill="#ffc312" stroke="none" /><path d="M 108.73861861582097 119.09545874513695 l 7.3483838360312665 16.05754485386516 a38.65909090909091,38.65909090909091 0 0,0 -0.605818508379414,0.2709749130977756 l -7.0716519247962255 -16.181323517872787" fill="#ffa40f" stroke="none" /><path d="M 108.4095320186766 119.2426549942271 l 5.9846243485184285 13.693991693334912 a35.94460227272727,35.94460227272727 0 0,0 -0.5675223500278842,0.24224154426195782 l -5.748666923320113 -13.794707887256273" fill="#ff7c0b" stroke="none" /><path d="M 107.74402155503746 119.51999308798841 l 5.599015584537033 14.113176820718893 a36.18323863636364,36.18323863636364 0 0,0 -0.5793242124933933,0.22409505069397273 l -5.35591910955011 -14.207211759550907" fill="#ff800b" stroke="none" /><path d="M 107.407793817531 119.65005319985036 l 10.532956834301883 27.939919393537238 a50.859375,50.859375 0 0,0 -0.8195887733376611,0.3009643500570017 l -10.051778909310096 -28.11661459260296" fill="#b5ff1f" stroke="none" /><path d="M 107.06938296918513 119.77432235084164 l 7.260175975455742 20.308004346105832 a42.56676136363636,42.56676136363636 0 0,0 -0.6901779308121503,0.2400797112565645 l -6.91049227259857 -20.429642489930984" fill="#ffdb14" stroke="none" /><path d="M 106.72888874123015 119.89276391827305 l 6.805353386016849 20.11881805370797 a42.23863636363636,42.23863636363636 0 0,0 -0.6888463117767163,0.2264374649073022 l -6.4589843365923985 -20.23267644001729" fill="#ffd714" stroke="none" /><path d="M 106.38641147887787 120.00534299687104 l 4.9168111101588226 15.401840773159236 a37.16761363636364,37.16761363636364 0 0,0 -0.6094769480709604,0.18881751646721753 l -4.651693529216238 -15.483974877433099" fill="#ff8e0d" stroke="none" /><path d="M 106.0420521117495 120.11202640906438 l 4.299812653389916 14.312677884859744 a35.94460227272727,35.94460227272727 0 0,0 -0.5924697231252327,0.17245930165549075 l -4.053482917883077 -14.384380880817751" fill="#ff7c0b" stroke="none" /><path d="M 105.69591212413111 120.21278271476187 l 4.053482917883077 14.384380880817751 a35.94460227272727,35.94460227272727 0 0,0 -0.595342914593313,0.16226335874475686 l -3.8059586023550684 -14.45184473370665" fill="#ff7c0b" stroke="none" /><path d="M 105.3480935250658 120.30758222061773 l 4.08703738137131 15.519146640187978 a37.04829545454545,37.04829545454545 0 0,0 -0.6164037298495121,0.15668741769970831 l -3.820028358296401 -15.587019289722956" fill="#ff8d0c" stroke="none" /><path d="M 104.9986988182912 120.39639698878246 l 3.539277412868724 14.44145962588299 a35.8688345451569,35.8688345451569 0 0,0 -0.5992962249866582,0.1414322772978328 l -3.2908490341421865 -14.500088046827049" fill="#ff7b0b" stroke="none" /><line stroke="#e1ed5e" stroke-width="0.3" x1="101.45913802915013" x2="101.54496967792366" y1="184.9874750549273" y2="189.98673829345242" /><path d="M 101.47630435890484 185.9873277026323 a86.0,86.0 0 0,1 -42.54439059252881,-10.42667462771756" fill="none" id="id7" stroke="none" /><text fill="#e1ed5e" style="font-size:6.75px; font-family:Arial;" text-anchor="middle"><textPath startOffset="22.145653131862474" xlink:href="#id7">July</textPath></text><line stroke="#e1ed5e" stroke-width="0.3" x1="58.13341422392154" x2="55.67067388415222" y1="173.97424548756322" y2="178.32567169271397" /><path d="M 57.64086615596768 174.84453072859336 a86.0,86.0 0 0,1 -31.369924170532247,-30.572349798747897" fill="none" id="id8" stroke="none" /><text fill="#e1ed5e" style="font-size:6.75px; font-family:Arial;" text-anchor="middle"><textPath startOffset="22.145653131862474" xlink:href="#id8">August</textPath></text><line stroke="#e1ed5e" stroke-width="0.3" x1="26.387840678322732" x2="22.057713659400548" y1="142.50000000000003" y2="145.00000000000006" /><path d="M 25.521815274538298 143.00000000000003 a86.0,86.0 0 0,1 -11.493303480769221,-40.785679425670985" fill="none" id="id9" stroke="none" /><text fill="#e1ed5e" style="font-size:6.75px; font-family:Arial;" text-anchor="middle"><textPath startOffset="21.40746469413373" xlink:href="#id9">September</textPath></text><line stroke="#e1ed5e" stroke-width="0.3" x1="15.003131293944662" x2="10.003315487706104" y1="100.72959589197737" y2="100.7725132973878" /><path d="M 14.003168132696942 100.73817937305945 a86.0,86.0 0 0,1 10.791469493833604,-42.45332614584628" fill="none" id="id10" stroke="none" /><text fill="#e1ed5e" style="font-size:6.75px; font-family:Arial;" text-anchor="middle"><textPath startOffset="22.145653131862435" xlink:href="#id10">October</textPath></text><line stroke="#e1ed5e" stroke-width="0.3" x1="26.387840678322718" x2="22.05771365940052" y1="57.49999999999999" y2="54.99999999999999" /><path d="M 25.521815274538284 56.99999999999999 a86.0,86.0 0 0,1 29.574782752854787,-30.34633250058573" fill="none" id="id11" stroke="none" /><text fill="#e1ed5e" style="font-size:6.75px; font-family:Arial;" text-anchor="middle"><textPath startOffset="21.40746469413373" xlink:href="#id11">November</textPath></text><line stroke="#e1ed5e" stroke-width="0.3" x1="56.869717070023135" x2="54.33264160355391" y1="26.7553504044142" y2="22.446841604673864" /><path d="M 56.362301976729285 25.89364864446614 a86.0,86.0 0 0,1 42.16139366436587,-11.88097634709845" fill="none" id="id12" stroke="none" /><text fill="#e1ed5e" style="font-size:6.75px; font-family:Arial;" text-anchor="middle"><textPath startOffset="22.145653131862474" xlink:href="#id12">December</textPath></text></svg>