<?xml version="1.0" encoding="utf-8" ?>
<svg baseProfile="full" height="200mm" version="1.1" viewBox="0,0,200,200" width="200mm" xmlns="http://www.w3.org/2000/svg" xmlns:ev="http://www.w3.org/2001/xml-events" xmlns:xlink="http://www.w3.org/1999/xlink"><defs /><rect fill="#1a1a1a" height="200" width="200" x="0" y="0" /><rect fill="#1a1a1a" height="200" width="180" x="10" y="0" /><text alignment-baseline="middle" fill="#e1ed5e" style="dominant-baseline: central; font-size:9.0px; font-family:Arial;" text-anchor="middle" x="100.0" y="100.0">2025</text><line stroke="#e1ed5e" stroke-width="0.3" x1="100.0" x2="100.0" y1="15.0" y2="10.0" /><path d="M 100.0 14.0 a86.0,86.0 0 0,1 42.46469731375804,11.215312516191453" fill="none" id="id13" stroke="none" /><text fill="#e1ed5e" style="font-size:6.75px; font-family:Arial;" text-anchor="middle"><textPath startOffset="22.20632615414155" xlink:href="#id13">January</textPath></text><path d="M 100.0 79.0 l 0.0 -7.763091660444392 a28.763091660444392,28.763091660444392 0 0,0 0.49510934089414776,0.004261562408673398 l -0.13362886162161938 7.761941474644277" fill="#ff5a08" stroke="none" /><path d="M 100.72285384407766 79.0124445844662 l 0.2484516123059103 -7.2136186645066775 a28.21789598432788,28.21789598432788 0 0,0 0.4852929440678229,0.020897735012385402 l -0.37258538876306474 7.208273202970098" fill="#ff5307" stroke="none" /><path d="M 101.44485096284872 79.0497635885617 l 0.4963181403130327 -7.19657780781931 a28.21367200809693,28.21367200809693 0 0,0 0.48421353265863,0.03758428938700806 l -0.6201218623340038 7.186968256243837" fill="#ff5307" stroke="none" /><path d="M 101.80526077348638 79.07773832637324 l 0.6202705776650203 -7.1886918083843945 a28.21540196423247,28.21540196423247 0 0,0 0.48352448552265875,0.04591647611490551 l -0.7439201902779232 7.17694978775431" fill="#ff5307" stroke="none" /><path d="M 102.16513564639614 79.11191278185805 l 0.7739711158608651 -7.466865274392387 a28.50687074046928,28.50687074046928 0 0,0 0.48764843565337807,0.054792983665517624 l -0.9023862550239684 7.452436337256269" fill="#ff5708" stroke="none" /><path d="M 102.52436894288641 79.15227682838746 l 0.8697200462342289 -7.1826595758863965 a28.235123464177665,28.235123464177665 0 0,0 0.4819940905081055,0.06257666627097419 l -0.9932288652501805 7.166624586451285" fill="#ff5307" stroke="none" /><path d="M 102.88285421437855 79.19881850522331 l 1.9812330329102223 -14.295550463656108 a35.432187893373374,35.432187893373374 0 0,0 0.6034118800928837,0.08892722572503402 l -2.227013893431762 14.259328753770106" fill="#ffb410" stroke="none" /><path d="M 103.2404852339499 79.25152402106235 l 1.116861586853744 -7.15114377434973 a28.237833728790015,28.237833728790015 0 0,0 0.47960050347457056,0.07913819244899074 l -1.2397912964671896 7.130859318961115" fill="#ff5307" stroke="none" /><path d="M 104.307194497241 79.44645832069477 l 1.5582471914651972 -7.435814337373346 a28.597333030057072,28.597333030057072 0 0,0 0.48092172520806153,0.10511086192273926 l -1.6860116408267865 7.407889977354736" fill="#ff5808" stroke="none" /><path d="M 106.0581310904928 79.89281104454417 l 4.2131267694154815 -13.983542907955679 a35.604448275570114,35.604448275570114 0 0,0 0.5852941114900689,0.18185372950571063 l -4.453206253616268 13.908949043567448" fill="#ffb610" stroke="none" /><path d="M 106.40334571778207 80.00007090966166 l 5.276739789812853 -16.48113756084654 a38.30525579438053,38.30525579438053 0 0,0 0.6262310625051909,0.2064585354601545 l -5.559653674560462 16.38786530112715" fill="#ffd914" stroke="none" /><path d="M 106.74666289553966 80.11325718540242 l 0.5031868791680632 -1.4832144733822277 a22.56624461991651,22.56624461991651 0 0,0 0.36677454235656365,0.12796043602128196 l -0.5286434255879005 1.4743331841887382" fill="#ff0200" stroke="none" /><path d="M 108.09893153111575 80.62456947434976 l 2.782010399288229 -6.6555259796868125 a28.21357109398902,28.21357109398902 0 0,0 0.44646799644143886,0.19115429586229132 l -2.896162153519983 6.606652155861731" fill="#ff5307" stroke="none" /><path d="M 109.08828744355905 81.06846463323043 l 1.882799962478051 -3.9220033806772956 a25.350522522266893,25.350522522266893 0 0,0 0.39176061689403746,0.19223523331222508 l -1.9500318463825201 3.8890129872302386" fill="#ff2a04" stroke="none" /><path d="M 109.73455568895987 81.39251694778311 l 4.063443848854589 -7.767222764665872 a29.765918399616663,29.765918399616663 0 0,0 0.45195288220723134,0.241417577555599 l -4.196541777590131 7.696126460608519" fill="#ff6809" stroke="none" /><line stroke="#e1ed5e" stroke-width="0.3" x1="143.23703022742887" x2="145.7803849466894" y1="26.81831364943548" y2="22.513508569990506" /><path d="M 143.74570117128098 25.957352633546492 a86.0,86.0 0 0,1 28.547481713284135,27.462654790039103" fill="none" id="id14" stroke="none" /><text fill="#e1ed5e" style="font-size:6.75px; font-family:Arial;" text-anchor="middle"><textPath startOffset="19.985693538727396" xlink:href="#id14">February</textPath></text><path d="M 110.68208982089419 81.91981866633111 l 4.349388673276971 -7.361643388322532 a29.550495611838116,29.550495611838116 0 0,0 0.43571211445211067,0.262511673741273 l -4.47546285394672 7.285685105122645" fill="#ff6509" stroke="none" /><path d="M 111.90073688211348 82.69761687909136 l 5.996517958596393 -8.718287963074259 a31.581435282363852,31.581435282363852 0 0,0 0.44525140735057833,0.3119270649920043 l -6.145700505530622 8.613776055318318" fill="#ff810b" stroke="none" /><path d="M 112.48926042617603 83.11751280151076 l 8.138760771912992 -11.001654209676653 a34.68487567542087,34.68487567542087 0 0,0 0.47692339322333716,0.35920881211696226 l -8.326930318894712 10.859928808053844" fill="#ffaa0f" stroke="none" /><path d="M 112.77801427241765 83.33499621200491 l 4.825600962828849 -6.293517647611772 a28.930623495870645,28.930623495870645 0 0,0 0.39258504072680034,0.30641885136799946 l -4.9332185587150805 6.209520407020548" fill="#ff5d08" stroke="none" /><path d="M 113.06298171725822 83.55741782278167 l 10.274311070523671 -12.932438224896126 a37.51694361601564,37.51694361601564 0 0,0 0.5021850165099813,0.4060653587240853 l -10.495399485598144 12.75366676890791" fill="#ffcf13" stroke="none" /><path d="M 114.16331599549186 84.49514656593476 l 2.976749370258763 -3.2587045795277625 a25.41363708861197,25.41363708861197 0 0,0 0.3204443211982539,0.29781807327003956 l -3.0324015752518636 3.2069819201830825" fill="#ff2b04" stroke="none" /><path d="M 114.42810811169701 84.74124197986012 l 3.023417958309019 -3.1974811016408813 a25.400561503487488,25.400561503487488 0 0,0 0.31510818539580177,0.30313382469087324 l -3.0780093873172394 3.144964190187706" fill="#ff2b04" stroke="none" /><path d="M 114.94478906791727 85.2469230424477 l 8.42388556740446 -8.315823762566609 a32.83700861293902,32.83700861293902 0 0,0 0.39363088290312165,0.40567122596312666 l -8.56578071401069 8.169588341053368" fill="#ff920d" stroke="none" /><path d="M 115.19652480421416 85.50635884689758 l 10.44334943779142 -9.960314028232846 a35.4316112413282,35.4316112413282 0 0,0 0.4171358159092867,0.4449714044583597 l -10.61325257567117 9.779073206896431" fill="#ffb410" stroke="none" /><path d="M 115.4437574822437 85.77008943001954 l 10.630798874514529 -9.795240403491055 a35.45547021969756,35.45547021969756 0 0,0 0.40969025351230365,0.45239021054359385 l -10.797832768642868 9.610797405677912" fill="#ffb410" stroke="none" /><path d="M 115.68641384162765 86.03803664274999 l 10.77833088012995 -9.593439413241684 a35.42936229835199,35.42936229835199 0 0,0 0.40154649977409534,0.45903706357292157 l -10.941869243481893 9.406486793465815" fill="#ffb410" stroke="none" /><path d="M 115.9244219780498 86.31012108654704 l 14.389165981745851 -12.370052754643291 a39.97541311283868,39.97541311283868 0 0,0 0.44408760003300884,0.5256596459995077 l -14.599964195265976 12.120534159014678" fill="#ffee16" stroke="none" /><path d="M 116.15771136456269 86.58626213691792 l 11.12239731412041 -9.23354295756707 a35.45565763161225,35.45565763161225 0 0,0 0.3857938682498086,0.4729376656938067 l -11.27968967444663 9.040721122265163" fill="#ffb410" stroke="none" /><path d="M 116.38621287248628 86.86637796730983 l 14.735770032198577 -11.810784802417487 a39.88484990914298,39.88484990914298 0 0,0 0.42476590134771575,0.5394095590589558 l -14.936890014140257 11.555382849405492" fill="#ffed16" stroke="none" /><path d="M 116.60985879189232 87.15038557335679 l 14.83679877464598 -11.477950894618852 a39.75830361782798,39.75830361782798 0 0,0 0.41409988462350716,0.5449069079216702 l -15.0321745994936 11.220859210816148" fill="#ffeb16" stroke="none" /><path d="M 116.82858285166822 87.43820079747576 l 15.406839005483034 -11.500529761679305 a40.22583867975972,40.22583867975972 0 0,0 0.4094174128028647,0.5584448909505646 l -15.602519030799526 11.233622427057245" fill="#fff116" stroke="none" /><path d="M 117.2510076193507 88.02491185347247 l 14.284170308583603 -9.915606225425702 a38.38840901929565,38.38840901929565 0 0,0 0.37214004182049176,0.5460695917022931 l -14.452734816072828 9.668258610453003" fill="#ffda14" stroke="none" /><path d="M 117.45458315368197 88.32363383020206 l 7.686473826352154 -5.141920729978775 a30.247768848570026,30.247768848570026 0 0,0 0.28577424345104946,0.43525377861984255 l -7.773844705161128 5.008848887381258" fill="#ff6f0a" stroke="none" /><path d="M 117.65298651832404 88.62581576622439 l 12.745091633471253 -8.211926076359855 a36.161566232720745,36.161566232720745 0 0,0 0.33263888917551176,0.5261548392736359 l -12.88455811889272 7.991323589372014" fill="#ffbd11" stroke="none" /><line stroke="#e1ed5e" stroke-width="0.3" x1="172.23445277983987" x2="176.4835382374775" y1="55.19839476539836" y2="52.563006222186495" /><path d="M 173.08426987136738 54.67131705675599 a86.0,86.0 0 0,1 12.851231095245387,41.99856678651699" fill="none" id="id15" stroke="none" /><text fill="#e1ed5e" style="font-size:6.75px; font-family:Arial;" text-anchor="middle"><textPath startOffset="22.20632615414155" xlink:href="#id15">March</textPath></text><path d="M 118.03404312379186 89.2402003453031 l 6.202071564072545 -3.7003930297512704 a28.222091127956574,28.222091127956574 0 0,0 0.2453176048392991,0.4193273075403299 l -6.264848843382172 3.5930863098570454" fill="#ff5307" stroke="none" /><path d="M 118.21658344932153 89.55222093294921 l 13.662659559829619 -7.835961608637747 a36.75025588934505,36.75025588934505 0 0,0 0.3100012862545351,0.551457697373742 l -13.795518487376588 7.599620401329211" fill="#ffc512" stroke="none" /><path d="M 118.3937258080291 89.86733742301442 l 16.634246269182416 -9.163407480747205 a39.99121337887664,39.99121337887664 0 0,0 0.3269603542656805,0.6058078797823836 l -16.78951472266656 8.875718617632364" fill="#ffee16" stroke="none" /><path d="M 118.56541770881063 90.18545643968196 l 17.805697742478152 -9.412920240004873 a41.14065390053622,41.14065390053622 0 0,0 0.32558040913778974,0.6289177202913557 l -17.965087584776057 9.105029797453172" fill="#fffc17" stroke="none" /><path d="M 118.73160827565052 90.50648371742162 l 9.035979664806142 -4.579597160826556 a31.130233889611866,31.130233889611866 0 0,0 0.23813144613260123,0.48005846442551636 l -9.11347112389215 4.42337910790209" fill="#ff7b0b" stroke="none" /><path d="M 119.04729006885535 91.15688171328212 l 10.703222428468324 -4.96920357918848 a32.800506538479056,32.800506538479056 0 0,0 0.2333485561560647,0.5141526119666343 l -10.787173301587735 4.784228958379782" fill="#ff910d" stroke="none" /><path d="M 119.196687751892 91.48605970444005 l 14.882291094540884 -6.6004583435273325 a37.28031444927556,37.28031444927556 0 0,0 0.2551203583974782,0.5888529615669112 l -14.993702162781043 6.3433062373738185" fill="#ffcc13" stroke="none" /><path d="M 119.47837535516314 92.15188598940014 l 4.090208639698928 -1.6480031391832102 a25.409730271005866,25.409730271005866 0 0,0 0.15996810655205637,0.4071013826195064 l -4.117970296132685 1.5773527516679193" fill="#ff2b04" stroke="none" /><path d="M 119.61058180528143 92.48833698450437 l 18.891155918716873 -7.236093178855616 a41.22960247850541,41.22960247850541 0 0,0 0.24815393196119537,0.6649291632832305 l -19.012914439179696 6.9098408785430525" fill="#fffd17" stroke="none" /><path d="M 119.7369772167798 92.82701384747503 l 10.93918857091122 -3.9756162900312573 a32.63921696144189,32.63921696144189 0 0,0 0.18735985949914424,0.5296915529540999 l -11.006001511220173 3.786727110650543" fill="#ff8f0d" stroke="none" /><path d="M 119.85752413597 93.16781622104841 l 19.100834410069094 -6.571836958491988 a41.199775151468415,41.199775151468415 0 0,0 0.22495608166009287,0.6725900512131556 l -19.21112778550096 6.242073804356519" fill="#fffd17" stroke="none" /><path d="M 119.97218684219823 93.5106431181261 l 16.468353666490692 -5.350892470772226 a38.315851775710726,38.315851775710726 0 0,0 0.19841136977898957,0.6290182629955364 l -16.558020520037886 5.06662404135027" fill="#ffd914" stroke="none" /><path d="M 120.08093135843002 93.85539295169968 l 17.460824349646085 -5.342874912170275 a39.25997533668357,39.25997533668357 0 0,0 0.19217590210243243,0.6479216061309778 l -17.55020614886022 5.041523919292767" fill="#ffe515" stroke="none" /><path d="M 120.18372546131832 94.20196356495316 l 11.084749111089486 -3.1842376840995805 a32.533040903622904,32.533040903622904 0 0,0 0.14998232157982563,0.5395662101019403 l -11.137918203235674 2.9929601705786886" fill="#ff8e0d" stroke="none" /><path d="M 120.28053869075195 94.5502522615342 l 8.551846742819649 -2.2980359721726633 a29.855227385114095,29.855227385114095 0 0,0 0.1290935314006929,0.49745003705253665 l -8.590136606090645 2.1504895095712766" fill="#ff6909" stroke="none" /><path d="M 120.37134235888165 94.90015583598534 l 11.221518067315161 -2.8092401776376543 a32.56781302194733,32.56781302194733 0 0,0 0.13146106245236644,0.5449909746889237 l -11.268211930028347 2.6156639712893246" fill="#ff8e0d" stroke="none" /><path d="M 120.45610955862082 95.25157060432595 l 21.07671792684692 -4.892489780687203 a42.637109206684684,42.637109206684684 0 0,0 0.1597990388844374,0.716347757876218 l -21.157811352733397 4.528963853261021" fill="#f0ff19" stroke="none" /><path d="M 120.67395015179393 96.31383870115 l 22.729568727622855 -4.0526776918848375 a44.08803783386609,44.08803783386609 0 0,0 0.12678069209586437,0.7482668213932808 l -22.795961281238945 3.6608250821757187" fill="#deff1b" stroke="none" /><path d="M 120.78858239683441 97.02765380044208 l 13.296786889157742 -1.9011711920451975 a34.43201375360894,34.43201375360894 0 0,0 0.0788394753223395,0.5874456654140615 l -13.327542363537917 1.6720071845664717" fill="#ffa70f" stroke="none" /><path d="M 120.83666639777658 97.38593545837742 l 7.23041673687883 -0.9070921255929026 a28.287094229749616,28.287094229749616 0 0,0 0.05645248255823921,0.48365039560888223 l -7.244959572440658 0.7824979916591677" fill="#ff5407" stroke="none" /><path d="M 120.87857604477298 97.74499172005257 l 1.471291109905526 -0.1589080418097104 a22.479847727247243,22.479847727247243 0 0,0 0.03824022738300432,0.3850738711204347 l -1.4738084629707588 0.13355863998484077" fill="#ff0000" stroke="none" /><path d="M 120.96714384426684 98.82574320788733 l 61.078146978786464 -3.42065802916247 a82.17385830332034,82.17385830332034 0 0,0 0.06693801014770222,1.4129555980602078 l -61.12797859716766 2.368791324479263" fill="#4be3ff" stroke="none" /><line stroke="#e1ed5e" stroke-width="0.3" x1="184.98032266829074" x2="189.97916517819016" y1="98.17113171792111" y2="98.06355123074" /><path d="M 185.9800911702706 98.14961562048488 a86.0,86.0 0 0,1 -9.607161424134198,41.387399972396054" fill="none" id="id16" stroke="none" /><text fill="#e1ed5e" style="font-size:6.75px; font-family:Arial;" text-anchor="middle"><textPath startOffset="21.466115282336823" xlink:href="#id16">April</textPath></text><path d="M 120.99513854157772 99.54816195383933 l 1.5964231076470494 -0.03435674865286117 a22.59679276200998,22.59679276200998 0 0,0 0.005021860522988444,0.3889486317899228 l -1.5967779752877533 0.006871858802475639" fill="#ff0200" stroke="none" /><path d="M 120.99980553446 99.90962569577887 l 12.093304956597546 -0.05204448295452042 a33.09341694482882,33.09341694482882 0 0,0 -0.0024515961162227193,0.5696645980671043 l -12.09240906319182 -0.15612959331626863" fill="#ff950d" stroke="none" /><path d="M 120.99824983174949 100.27111621757518 l 11.78471876104306 0.1521568893256243 a32.785700997219024,32.785700997219024 0 0,0 -0.012143101294498006,0.5642422017550068 l -11.780353597063554 -0.35498890687074597" fill="#ff910d" stroke="none" /><path d="M 120.9904718944345 100.63252640178507 l 11.785915764491216 0.35515651709727347 a32.791265689455024,32.791265689455024 0 0,0 -0.021857513369613824,0.564045298392386 l -11.778056118270399 -0.5579790625036657" fill="#ff910d" stroke="none" /><path d="M 120.95626037817324 101.35467743843564 l 16.60288266393205 1.0732616484021553 a37.63753597496415,37.63753597496415 0 0,0 -0.047357772564445025,0.6461591807163715 l -16.58194833270327 -1.358893965615297" fill="#ffd013" stroke="none" /><path d="M 120.92983693683757 101.71520430193887 l 18.696190639774905 1.5321565434067113 a39.75886585357203,39.75886585357203 0 0,0 -0.06176900238278053,0.6816157941660312 l -18.66704704111505 -1.8537537261213128" fill="#ffeb16" stroke="none" /><path d="M 120.89721153311464 102.0752229133903 l 19.0518427666722 1.8919663319221127 a40.145554298769376,40.145554298769376 0 0,0 -0.07420752489727524,0.687069517854835 l -19.01645294027387 -2.2196321716617393" fill="#fff016" stroke="none" /><path d="M 120.8583938346157 102.4346265915055 l 11.680382281747995 1.3633537427460025 a32.75967957368023,32.75967957368023 0 0,0 -0.07019695897011753,0.5595388303958563 l -11.65518381353103 -1.5642103274292538" fill="#ff910d" stroke="none" /><path d="M 120.81339534386255 102.79330883721812 l 9.551217963798004 1.2818428278373433 a30.636850399754877,30.636850399754877 0 0,0 -0.07464588212218451,0.52207312570529 l -9.527738030659219 -1.4460614255230426" fill="#ff740a" stroke="none" /><path d="M 120.64145759157962 103.86396538481128 l 17.663082533545122 3.306430236134316 a38.96989052535518,38.96989052535518 0 0,0 -0.129101804560952,0.6582873200730811 l -17.603550796008506 -3.6099812832753417" fill="#ffe115" stroke="none" /><path d="M 120.5718875245553 104.21870165774334 l 9.362731485513626 1.9200265795637492 a30.5575751598436,30.5575751598436 0 0,0 -0.11010325231998314,0.5143657395788792 l -9.3282941944692 -2.0809061385587975" fill="#ff730a" stroke="none" /><path d="M 120.49622156327973 104.57218783832717 l 11.522737518999133 2.5704308565336205 a32.80595590030602,32.80595590030602 0 0,0 -0.1276923937808693,0.5500954903875489 l -11.476784559287712 -2.7683950042697343" fill="#ff910d" stroke="none" /><path d="M 120.32669344350535 105.2749913415812 l 7.00587041191969 1.818097265343677 a28.237934642897926,28.237934642897926 0 0,0 -0.12614547471359164,0.46943423867771206 l -6.973536860864321 -1.9384224371969374" fill="#ff5307" stroke="none" /><path d="M 120.02730092923936 106.31721596034902 l 28.338804986118706 8.938915522768188 a50.71518263050814,50.71518263050814 0 0,0 -0.2697751852835235,0.83028264648551 l -28.180737549818936 -9.425397069231494" fill="#93ff23" stroke="none" /><path d="M 119.79798401119884 107.00284435728193 l 8.167833334224191 2.889085350479962 a29.663735657210566,29.663735657210566 0 0,0 -0.17441674674379432,0.4799199780269081 l -8.11689232647517 -3.0292531255130015" fill="#ff6709" stroke="none" /><path d="M 119.54520255179757 107.68017299344265 l 6.710703527848157 2.6369316902699302 a28.21019767952471,28.21019767952471 0 0,0 -0.18148209322790296,0.45042367215351575 l -6.664318820362861 -2.7520547302662597" fill="#ff5307" stroke="none" /><path d="M 119.26925614724726 108.34839909993367 l 13.254618188526614 5.742559116422757 a35.44513373178769,35.44513373178769 0 0,0 -0.24737144529932253,0.5577573049956377 l -13.153805658496019 -5.969864757911082" fill="#ffb410" stroke="none" /><path d="M 118.64920377521936 109.65438752849418 l 8.148625952553465 4.218410272036982 a30.17578825703029,30.17578825703029 0 0,0 -0.24276779706485682,0.4592251826136681 l -8.074805647263714 -4.358050469736784" fill="#ff6e0a" stroke="none" /><line stroke="#e1ed5e" stroke-width="0.3" x1="174.80103733775053" x2="179.2010983576182" y1="140.37084112569926" y2="142.7455964860345" /><path d="M 175.68104954172406 140.8457921977663 a86.0,86.0 0 0,1 -30.038265399797805,32.042727171017184" fill="none" id="id17" stroke="none" /><text fill="#e1ed5e" style="font-size:6.75px; font-family:Arial;" text-anchor="middle"><textPath startOffset="22.206326154141568" xlink:href="#id17">May</textPath></text><path d="M 118.48025628344425 109.97397251340804 l 14.268745760987269 7.70097967463742 a37.21425895750006,37.21425895750006 0 0,0 -0.30909736509373725,0.5611015010439563 l -14.134071986442022 -7.945451694079181" fill="#ffcb12" stroke="none" /><path d="M 118.12598468904814 110.60418214915192 l 6.227992066044138 3.643540664122299 a28.215488462039247,28.215488462039247 0 0,0 -0.2488594316516992,0.417102721816012 l -6.164351758694211 -3.750205479824415" fill="#ff5307" stroke="none" /><path d="M 117.75023020441432 111.22182372390056 l 10.414624263229383 6.584200671580753 a33.32136749828892,33.32136749828892 0 0,0 -0.3106743667519521,0.4821735163718731 l -10.29974503310038 -6.762495787874078" fill="#ff980e" stroke="none" /><path d="M 117.55443506779139 111.5257021239791 l 13.103266788833725 8.603201941612062 a36.67516137676134,36.67516137676134 0 0,0 -0.35102826406141396,0.5247396266315104 l -12.95323541936159 -8.827478482449377" fill="#ffc412" stroke="none" /><path d="M 117.35343817320211 111.8261652097733 l 17.174298857759137 11.704083860887298 a41.78321727448157,41.78321727448157 0 0,0 -0.4101502145147139,0.5908519744569318 l -16.970287736082284 -11.99797709753125" fill="#faff18" stroke="none" /><path d="M 117.14729908036423 112.12312394758627 l 17.612173592995127 12.451789780630008 a42.569323758773635,42.569323758773635 0 0,0 -0.4281667334646834,0.5946861442616629 l -17.39522706715484 -12.753109530342803" fill="#f0ff19" stroke="none" /><path d="M 116.93607887273984 112.41649034213515 l 16.288516179334557 11.94173724320292 a41.197050470554935,41.197050470554935 0 0,0 -0.42420942903100767,0.5682978535011657 l -16.080545483608457 -12.220347976213402" fill="#fffd17" stroke="none" /><path d="M 116.71984013943494 112.70617746262583 l 11.27572343640972 8.56894215540945 a35.162228238421825,35.162228238421825 0 0,0 -0.3703640560838683,0.4787454680655809 l -11.126552563107783 -8.761765617588283" fill="#ffb110" stroke="none" /><path d="M 116.498646956653 112.99209946851258 l 11.337638298222071 8.927988149302198 a35.43090484257284,35.43090484257284 0 0,0 -0.38144252117117405,0.47590819462987544 l -11.182277864996044 -9.121824177510323" fill="#ffb410" stroke="none" /><path d="M 116.27256486870786 113.27417163493432 l 13.435594887556276 10.959943561068744 a38.33884577601233,38.33884577601233 0 0,0 -0.4215520404355131,0.5077865889451952 l -13.244946847227219 -11.18959140712771" fill="#ffd914" stroke="none" /><path d="M 116.0416608686014 113.55231037782055 l 11.015520744474086 9.306128419323036 a35.42032327754377,35.42032327754377 0 0,0 -0.3974792616084616,0.46235817930841683 l -10.853698973294845 -9.49436369779298" fill="#ffb410" stroke="none" /><path d="M 115.80600337817218 113.82643327865902 l 10.857974137919395 9.498103433703594 a35.42600330018881,35.42600330018881 0 0,0 -0.40544411359662585,0.455520759709347 l -10.692871174674432 -9.683598363153807" fill="#ffb410" stroke="none" /><path d="M 115.56566222782051 114.09645910891815 l 15.467382469613916 14.007455726182691 a41.867408473078015,41.867408473078015 0 0,0 -0.4883605758757526,0.5300189527279883 l -15.223975485742441 -14.271625933712015" fill="#f9ff18" stroke="none" /><path d="M 115.32070863581623 114.36230785411682 l 7.48782314408938 7.019415596820605 a31.26351259355436,31.26351259355436 0 0,0 -0.37143055109395484,0.38944344786223745 l -7.365886041616461 -7.14726616126535" fill="#ff7d0b" stroke="none" /><path d="M 115.07121518719521 114.62390073753431 l 18.057190209943492 17.52125186649489 a46.160611782053905,46.160611782053905 0 0,0 -0.5582342912011662,0.5654883897429285 l -17.75291529368679 -17.829480750218483" fill="#c6ff1e" stroke="none" /><path d="M 114.81725581225074 114.88116024355365 l 10.990459398529616 11.037859474935136 a36.57640971402407,36.57640971402407 0 0,0 -0.44997700912098,0.4403972110310868 l -10.798832437032843 -11.225406788888794" fill="#ffc312" stroke="none" /><path d="M 114.55890576462653 115.13401014063108 l 11.021780884723194 11.45716212289073 a36.89799414332046,36.89799414332046 0 0,0 -0.46151337353848265,0.4363897008929833 l -10.822931676793903 -11.645186460529636" fill="#ffc712" stroke="none" /><path d="M 114.29624159901734 115.38237550388516 l 9.827905700616057 10.574564990146849 a35.43638303700207,35.43638303700207 0 0,0 -0.4503803141828872,0.4114117385918864 l -9.644425836966306 -10.742169495325317" fill="#ffb410" stroke="none" /><path d="M 114.0293411484842 115.62618273729858 l 11.568480089823694 12.885222617593604 a38.31642842775591,38.31642842775591 0 0,0 -0.4945695683166977,0.4364001414217913 l -11.34496816860041 -13.082445900787684" fill="#ffd914" stroke="none" /><path d="M 113.75828350139079 115.86535959552629 l 12.46893388702477 14.378546558550982 a40.03199709477208,40.03199709477208 0 0,0 -0.5244849734447212,0.4469774728280907 l -12.219583437003001 -14.59104842160202" fill="#ffee16" stroke="none" /><path d="M 113.48314897796784 116.09983520530334 l 5.566405807231836 6.646682932059629 a29.669675173275934,29.669675173275934 0 0,0 -0.3943663151065372,0.3245366290106416 l -5.4511693635806076 -6.741514679927449" fill="#ff6709" stroke="none" /><path d="M 113.20401910651253 116.32954008644616 l 4.538607463154124 5.612940416729974 a28.218314057060635,28.218314057060635 0 0,0 -0.3803324934285552,0.3021591350183504 l -4.4413174770082176 -5.69023346575345" fill="#ff5307" stroke="none" /><path d="M 112.92097659922987 116.55440617244103 l 4.667168678013966 5.979594915119874 a28.585381916420694,28.585381916420694 0 0,0 -0.3904916598506045,0.29941235335485 l -4.563548289669868 -6.059046610302095" fill="#ff5808" stroke="none" /><path d="M 112.34349029814194 116.9893568818739 l 4.249572079445339 5.849034179887652 a28.229803849060872,28.229803849060872 0 0,0 -0.3955838006173803,0.2822385383391655 l -4.148260950979074 -5.921316980071037" fill="#ff5307" stroke="none" /><path d="M 112.04921762599082 117.19931262002967 l 4.146441182744419 5.918719403719164 a28.226632262812373,28.226632262812373 0 0,0 -0.4003384804647748,0.27535645734483377 l -4.043945817656761 -5.989216650429093" fill="#ff5307" stroke="none" /><path d="M 111.1453310114006 117.79835938074945 l 9.973422595095215 15.926898844190024 a39.791893599459776,39.791893599459776 0 0,0 -0.5836538525101925,0.3585278664645634 l -9.697789542652712 -16.096215177482968" fill="#ffec16" stroke="none" /><line stroke="#e1ed5e" stroke-width="0.3" x1="143.8653032363475" x2="146.44561519142675" y1="172.8068346515853" y2="177.08958963109032" /><path d="M 144.38136562736335 173.6633856474863 a86.0,86.0 0 0,1 -40.68145358897372,12.25698825130547" fill="none" id="id18" stroke="none" /><text fill="#e1ed5e" style="font-size:6.75px; font-family:Arial;" text-anchor="middle"><textPath startOffset="21.466115282336833" xlink:href="#id18">June</textPath></text><path d="M 110.8373102113329 117.98757091392108 l 11.156746595358868 18.517765629962774 a42.61898791616486,42.61898791616486 0 0,0 -0.6316380163696975,0.3731828735914206 l -10.836340707960789 -18.707067075847945" fill="#f0ff19" stroke="none" /><path d="M 109.89434966115114 118.52300852407294 l 2.044023321351401 3.826574024713711 a25.338283082607923,25.338283082607923 0 0,0 -0.38648012312944324,0.2021881342426601 l -1.977852295695462 -3.8611915779010877" fill="#ff2a04" stroke="none" /><path d="M 108.92500713936063 119.00905698771935 l 4.907820284192806 10.452992811206801 a32.54780319597955,32.54780319597955 0 0,0 -0.5091902389210834,0.2337442644845549 l -4.727162049504304 -10.535924146025431" fill="#ff8e0d" stroke="none" /><path d="M 108.59647513512805 119.15986991738527 l 4.725710305406525 10.532688490988972 a32.54425678590168,32.54425678590168 0 0,0 -0.5130824085924356,0.22492024982484854 l -4.5437072221563355 -10.612473294108275" fill="#ff8e0d" stroke="none" /><path d="M 108.2653958097858 119.30500536409082 l 7.384141296113602 17.246710334416743 a39.76098504983807,39.76098504983807 0 0,0 -0.631496348219798,0.2639655247717459 l -7.0861734883963425 -17.371260902208462" fill="#ffeb16" stroke="none" /><path d="M 107.93186726928326 119.44442032107085 l 2.631865099441111 6.451834036616973 a27.9679894042475,27.9679894042475 0 0,0 -0.44732658030338746,0.17800047807120511 l -2.520417443095857 -6.496181359094247" fill="#ff4f07" stroke="none" /><path d="M 107.59598834532513 119.57807347666477 l 2.4360717075963323 6.27878673814682 a27.734805733477373,27.734805733477373 0 0,0 -0.44656970190082707,0.16885444980846329 l -2.3276317849352304 -6.319789438061914" fill="#ff4c07" stroke="none" /><path d="M 107.2578585660854 119.70592522655815 l 2.2421777648579466 6.087771892580864 a27.487551752804826,27.487551752804826 0 0,0 -0.4454036279836824,0.15970589429290813 l -2.1370545762445294 -6.125465327913732" fill="#ff4906" stroke="none" /><path d="M 106.91757812671514 119.82793768551818 l 2.8674422410782303 8.218984308012434 a29.70482211542972,29.70482211542972 0 0,0 -0.4842314137060582,0.1642775864385041 l -2.725541094434945 -8.26712488134906" fill="#ff6709" stroke="none" /><path d="M 105.88484417918355 120.15858648285463 l 4.042883357744398 13.848933179143428 a35.426983608665616,35.426983608665616 0 0,0 -0.5868544478820851,0.16585092890211542 l -3.803897741757707 -13.916472901384063" fill="#ffb410" stroke="none" /><path d="M 104.83641907484287 120.43548508189849 l 1.0025642341844203 4.236168564856294 a25.353189537975855,25.353189537975855 0 0,0 -0.42554706956000865,0.09685312756954767 l -0.9294970152315495 -4.252798426003527" fill="#ff2a04" stroke="none" /><path d="M 104.13013068566511 120.58985236759428 l 1.419978414625294 7.078988087176494 a28.22000076429279,28.22000076429279 0 0,0 -0.4770959137207236,0.09143656736242153 l -1.297914886332866 -7.102381852887384" fill="#ff5307" stroke="none" /><path d="M 103.06178313531738 120.77559828337769 l 3.1598563947260376 21.441070183171345 a42.6726598052701,42.6726598052701 0 0,0 -0.7276123530608656,0.10084044211537534 l -2.7903154504783414 -21.49228519077932" fill="#efff19" stroke="none" /><path d="M 102.70371172650421 120.8252237178851 l 1.3218317252108354 10.18135222223027 a31.26679951021189,31.26679951021189 0 0,0 -0.5343236625316943,0.06469915434127212 l -1.1463806396277607 -10.202596905296893" fill="#ff7d0b" stroke="none" /><path d="M 101.98527174616119 120.90594882070398 l 0.8480092175392296 8.929980157951098 a29.970154137718694,29.970154137718694 0 0,0 -0.513996252898154,0.04434975948349133 l -0.694168646899534 -8.943254169713253" fill="#ff6b09" stroke="none" /><path d="M 101.26447882468166 120.96189622390904 l 0.8685631535113478 14.398604652315672 a35.424777914592795,35.424777914592795 0 0,0 -0.6089889286176502,0.031477771490113535 l -0.6205861564802181 -14.411422230567988" fill="#ffb410" stroke="none" /><path d="M 100.90346689309514 120.98055641714683 l 0.3122263085504354 7.250605120701488 a28.257324567917138,28.257324567917138 0 0,0 -0.48613315631011006,0.016743408835137395 l -0.18737280056567304 -7.254905327962719" fill="#ff5307" stroke="none" /><line stroke="#e1ed5e" stroke-width="0.3" x1="102.19456741930631" x2="102.32365962044197" y1="184.97166512339345" y2="189.96999836594603" /><path d="M 102.22038585953345 185.97133177190398 a86.0,86.0 0 0,1 -42.740103519485714,-10.115201625700543" fill="none" id="id19" stroke="none" /><text fill="#e1ed5e" style="font-size:6.75px; font-family:Arial;" text-anchor="middle"><textPath startOffset="22.20632615414155" xlink:href="#id19">July</textPath></text><path d="M 100.54218724476979 120.99299961872073 l 0.18640580831506753 7.217464262824999 a28.219871017582626,28.219871017582626 0 0,0 -0.4857047110373322,0.008361847075528176 l -0.06214140738506737 -7.219603587179686" fill="#ff5307" stroke="none" /><path d="M 99.81925306533755 120.99922214144158 l -0.11599506859845896 13.476334839978088 a34.476834033820644,34.476834033820644 0 0,0 -0.593396075462055,-0.010215851577051927 l 0.3479508339531818 -13.472341511121877" fill="#ffa80f" stroke="none" /><path d="M 99.45781275523022 120.99299961872073 l -0.1886799894741079 7.305518499927189 a28.307954617484043,28.307954617484043 0 0,0 -0.48700418519118094,-0.01677340883096872 l 0.3144045263399319 -7.301188292670126" fill="#ff5407" stroke="none" /><path d="M 99.09653310690486 120.98055641714683 l -0.8075823083355521 18.753898245765075 a39.771278288844556,39.771278288844556 0 0,0 -0.6837098093676403,-0.03533998753257542 l 1.1302801861166811 -18.737218451470298" fill="#ffeb16" stroke="none" /><path d="M 98.73552117531835 120.96189622390904 l -1.4625100107232067 24.244757976810174 a45.28882922014905,45.28882922014905 0 0,0 -0.7777542065480512,-0.05363848369639737 l 1.879626978050188 -24.215991148597492" fill="#d0ff1d" stroke="none" /><path d="M 98.37488393609728 120.93702456842531 l -0.912773484751341 11.75962831217821 a32.79499951144757,32.79499951144757 0 0,0 -0.5624431154148194,-0.048529958635195304 l 1.115060917907702 -11.742174101264352" fill="#ff910d" stroke="none" /><path d="M 98.01472825383883 120.90594882070398 l -1.5097958436850727 15.898939124492623 a36.970464889098594,36.970464889098594 0 0,0 -0.6330178124979648,-0.06561488451908705 l 1.7832462527886308 -15.870594871517774" fill="#ffc812" stroke="none" /><path d="M 97.65516085044442 120.86867818915974 l -2.0041129344087665 17.83627158000833 a38.94851115078009,38.94851115078009 0 0,0 -0.6655977411901023,-0.08059461709485778 l 2.310838098650258 -17.799131434188123" fill="#ffe115" stroke="none" /><path d="M 97.2962882734958 120.8252237178851 l -2.494858406269588 19.216539968256054 a40.37781532626721,40.37781532626721 0 0,0 -0.6884829151749745,-0.09541745857263655 l 2.8252699126313936 -19.17074794419081" fill="#fff316" stroke="none" /><path d="M 96.58105272829116 120.7198165907248 l -1.7154254266838536 10.395977881867173 a31.53655733694763,31.53655733694763 0 0,0 -0.5348465396087889,-0.09298992661226615 l 1.8941209377646924 -10.364909376733902" fill="#ff800b" stroke="none" /><path d="M 96.22490169976321 120.6578951692458 l -3.1147655958509897 17.04445713422274 a38.326721666762396,38.326721666762396 0 0,0 -0.6479632104284454,-0.1241836914440468 l 3.40769642085113 -16.988316244430226" fill="#ffd914" stroke="none" /><path d="M 95.86986931433489 120.58985236759428 l -3.68895207410518 18.390454050420644 a39.75678990620938,39.75678990620938 0 0,0 -0.6698234159511832,-0.1403680093836591 l 4.004966951485749 -18.324230060310445" fill="#ffeb16" stroke="none" /><path d="M 95.51606077576429 120.51570834832081 l -4.624688061640045 21.159687214703574 a42.65918056371399,42.65918056371399 0 0,0 -0.7160238853390859,-0.16296470512954261 l 4.988232096371994 -21.076945775996343" fill="#efff19" stroke="none" /><path d="M 95.16358092515715 120.4354850818985 l -3.3230610302895673 14.041042155332095 a35.42891539301697,35.42891539301697 0 0,0 -0.5922478273252054,-0.14556010663848568 l 3.5642621423579834 -13.98176079037958" fill="#ffb410" stroke="none" /><path d="M 94.81253420990036 120.34920634021253 l -3.3934588900698204 13.311739865899526 a34.73746634194139,34.73746634194139 0 0,0 -0.5781464990010825,-0.1526937450779456 l 3.622095831882392 -13.251354771517999" fill="#ffab0f" stroke="none" /><path d="M 94.46302465271185 120.25689768951611 l -5.244663338384185 19.187480889478405 a40.89135280510328,40.89135280510328 0 0,0 -0.6773727207111142,-0.19143229696618774 l 5.574167227199913 -19.0943597991737" fill="#fff917" stroke="none" /><path d="M 94.11515582081647 120.15858648285463 l -3.2898317395764667 11.269348111353615 a32.73972741291696,32.73972741291696 0 0,0 -0.5396209041721556,-0.1625833518492954 l 3.483327618188868 -11.211049390398594" fill="#ff910d" stroke="none" /><path d="M 93.76903079525671 120.05430185196036 l -8.5575307065749 27.542312962553474 a49.841122293024824,49.841122293024824 0 0,0 -0.8171064067714539,-0.2616116680783602 l 9.030358458437295 -27.39092844781541" fill="#9cff22" stroke="none" /><path d="M 93.42475214034765 119.94407469862007 l -5.436317400606036 16.489465133079776 a38.362488509864754,38.362488509864754 0 0,0 -0.6253638541321241,-0.21215737289003653 l 5.719350987675386 -16.393444773291616" fill="#ffda14" stroke="none" /><path d="M 93.08242187328487 119.8279376855182 l -7.150317774127366 20.495042146256782 a42.70653811292449,42.70653811292449 0 0,0 -0.6920095025261558,-0.2481299870870799 l 7.502046837283248 -20.368924618129746" fill="#efff19" stroke="none" /><path d="M 92.7421414339146 119.70592522655815 l -6.4815212581153 17.598079668237 a39.75373365036992,39.75373365036992 0 0,0 -0.6400914849120996,-0.24202782914260065 l 6.783482963787682 -17.483903588987765" fill="#ffeb16" stroke="none" /><path d="M 92.40401165467489 119.57807347666478 l -3.8339999374849167 9.881838817170426 a31.599542156582544,31.599542156582544 0 0,0 -0.5054104865296613,-0.20111326307384692 l 4.003531500056436 -9.814378709690512" fill="#ff810b" stroke="none" /><path d="M 92.06813273071674 119.44442032107085 l -2.725592496778973 6.681600225026997 a28.21613719559008,28.21613719559008 0 0,0 -0.4481374789268822,-0.18732150253646312 l 2.8402014352033174 -6.633693679470561" fill="#ff5307" stroke="none" /><path d="M 91.7346041902142 119.30500536409082 l -5.582921558386763 13.03970591515422 a35.18460233777485,35.18460233777485 0 0,0 -0.5547092573536231,-0.24316823702142923 l 5.80655149039813 -12.94167312483834" fill="#ffb110" stroke="none" /><path d="M 91.40352486487194 119.15986991738527 l -3.9064427195608045 8.706700498748882 a30.54289936529374,30.54289936529374 0 0,0 -0.47782475921685547,-0.21934591113197568 l 4.055735474545079 -8.638167517282833" fill="#ff730a" stroke="none" /><path d="M 91.07499286063937 119.00905698771935 l -7.845451777256252 16.70975021079387 a39.459871768145604,39.459871768145604 0 0,0 -0.6123558253130258,-0.2939680089524777 l 8.13192027056952 -16.57222792534183" fill="#ffe715" stroke="none" /><path d="M 90.7491055286396 118.85261126421891 l -9.807825434547842 19.987593722670415 a43.264261554722566,43.264261554722566 0 0,0 -0.665746526590456,-0.33381912910363676 l 10.150425868821058 -19.815806752657473" fill="#e8ff1a" stroke="none" /><path d="M 90.42595943632237 118.69057910512821 l -9.864476625548317 19.257572544655776 a42.63705154148016,42.63705154148016 0 0,0 -0.6503350237229905,-0.34022454768047095 l 10.194502551797804 -19.08491857803059" fill="#f0ff19" stroke="none" /><path d="M 90.10565033884886 118.52300852407294 l -8.302078300357385 15.542150054473577 a38.620525883782186,38.620525883782186 0 0,0 -0.5836797099594846,-0.3182687161020209 l 8.568380822185508 -15.39694068661179" fill="#ffdd14" stroke="none" /><line stroke="#e1ed5e" stroke-width="0.3" x1="58.666819895761336" x2="56.23545636021788" y1="174.27360380694188" y2="178.64263932499728" /><path d="M 58.180547188652646 175.14741091055294 a86.0,86.0 0 0,1 -31.652253787137756,-30.449443065178592" fill="none" id="id20" stroke="none" /><text fill="#e1ed5e" style="font-size:6.75px; font-family:Arial;" text-anchor="middle"><textPath startOffset="22.20632615414155" xlink:href="#id20">August</textPath></text><path d="M 89.7882731507175 118.34994917583269 l -9.119449861322048 16.387183474122402 a39.753776899273305,39.753776899273305 0 0,0 -0.59507851370599,-0.33790111067746337 l 9.400177141949245 -16.227779197650303" fill="#ffeb16" stroke="none" /><path d="M 89.4739219176387 118.17145234162733 l -4.769194928087908 8.233189765987301 a30.514758745488898,30.514758745488898 0 0,0 -0.452246349019705,-0.267195114487252 l 4.910209148135995 -8.1498760792063" fill="#ff720a" stroke="none" /><path d="M 89.1626897886671 117.98757091392108 l -5.958270971673132 9.889430083421615 a32.545640750810115,32.545640750810115 0 0,0 -0.4773683001323899,-0.29323859926255225 l 6.12761847173783 -9.785403017330685" fill="#ff8e0d" stroke="none" /><path d="M 88.8546689885994 117.79835938074946 l -6.886047773512496 10.996564647619495 a33.97467101657577,33.97467101657577 0 0,0 -0.49298573943902796,-0.3146468237229563 l 7.074315314998447 -10.876403395072735" fill="#ffa10e" stroke="none" /><path d="M 88.54995079064634 117.60387380957326 l -8.43772452460705 12.972576366727123 a36.47523611269703,36.47523611269703 0 0,0 -0.5233767385804504,-0.3468655634698573 l 8.659775961927462 -12.825412782165948" fill="#ffc212" stroke="none" /><path d="M 88.24862548938628 117.40417183066458 l -7.1381393180295785 10.571818907652329 a33.75603339364534,33.75603339364534 0 0,0 -0.478762007082718,-0.32929687405654623 l 7.319058209735187 -10.44738124423068" fill="#ff9e0e" stroke="none" /><path d="M 87.95078237400918 117.19931262002967 l -9.386869126446197 13.399019060026067 a37.35992126411281,37.35992126411281 0 0,0 -0.5235239934164604,-0.3735204688785074 l 9.616120447711545 -13.23545432930334" fill="#ffcd13" stroke="none" /><path d="M 87.65650970185807 116.9893568818739 l -11.02447301324479 15.173885338152495 a39.755953760743864,39.755953760743864 0 0,0 -0.5501751275341318,-0.40700640652008513 l 11.284033111197486 -14.981868982892644" fill="#ffeb16" stroke="none" /><path d="M 87.36589467227662 116.77436683061367 l -13.262987035912802 17.609336319358096 a43.04530677316728,43.04530677316728 0 0,0 -0.5880219945907822,-0.45087019090803726 l 13.564137758997072 -17.378426786622693" fill="#ebff1a" stroke="none" /><path d="M 87.07902340077011 116.55440617244103 l -13.60588945183872 17.43191922013804 a43.113164302583975,43.113164302583975 0 0,0 -0.5810884819567553,-0.46165183388456094 l 13.903935426512835 -17.195133472248347" fill="#eaff1a" stroke="none" /><path d="M 86.79598089348748 116.32954008644616 l -7.257312239482056 8.975189310050867 a32.542209671141286,32.542209671141286 0 0,0 -0.4325477524941644,-0.3559573526016292 l 7.41073012052091 -8.848936838592058" fill="#ff8e0d" stroke="none" /><path d="M 86.51685102203217 116.09983520530335 l -3.9988560232717067 4.774917423934936 a27.228216911785736,27.228216911785736 0 0,0 -0.3567344039847951,-0.3040167982634622 l 4.080455903833559 -4.705376235448523" fill="#ff4506" stroke="none" /><path d="M 86.24171649860922 115.8653595955263 l -14.174140679648158 16.344905148775524 a42.63474493329943,42.63474493329943 0 0,0 -0.550308268859425,-0.4855830640231612 l 14.45339130141417 -16.098498942980076" fill="#f0ff19" stroke="none" /><path d="M 85.97065885151581 115.62618273729859 l -12.129505675038446 13.510105013857313 a39.15620680115322,39.15620680115322 0 0,0 -0.49765758268556215,-0.4545984024358602 l 12.360262807190862 -13.299313844834876" fill="#ffe415" stroke="none" /><path d="M 85.70375840098266 115.38237550388516 l -7.861378468289747 8.458634022084688 a32.54771669817277,32.54771669817277 0 0,0 -0.4071008975718869,-0.38493930861105785 l 8.005815200252451 -8.3220600767277" fill="#ff8e0d" stroke="none" /><path d="M 85.44109423537348 115.13401014063109 l -5.003751936131258 5.201409622871856 a28.217492327896252,28.217492327896252 0 0,0 -0.34714240413084085,-0.3397519062329403 l 5.092544292637894 -5.114507613716346" fill="#ff5307" stroke="none" /><path d="M 85.18274418774928 114.88116024355367 l -8.146384366239758 8.181518406354611 a32.54559750190673,32.54559750190673 0 0,0 -0.3935837904180205,-0.398698301735459 l 8.286008781713312 -8.040079610638488" fill="#ff8e0d" stroke="none" /><path d="M 84.9287848128048 114.62390073753433 l -8.284829309612167 8.038935145330576 a32.54395404357796,32.54395404357796 0 0,0 -0.38664301552842795,-0.40539365600315064 l 8.421978876519553 -7.895134372744926" fill="#ff8e0d" stroke="none" /><path d="M 84.67929136418377 114.36230785411682 l -11.653066623058855 10.924098503749672 a36.97278591358045,36.97278591358045 0 0,0 -0.43126746266364024,-0.46805565436304297 l 11.839380493718224 -10.721891594585285" fill="#ffc812" stroke="none" /><path d="M 84.43433777217949 114.09645910891817 l -13.899023886890767 12.58713050609901 a39.75149912369484,39.75149912369484 0 0,0 -0.4549486203615186,-0.5111395978533815 l 14.113631356900624 -12.346016738504765" fill="#ffeb16" stroke="none" /><path d="M 84.19399662182784 113.82643327865904 l -7.426134563585907 6.496073144180107 a30.86642999524262,30.86642999524262 0 0,0 -0.34637644910419596,-0.40291406327730755 l 7.5368535222608815 -6.367281981741269" fill="#ff770b" stroke="none" /><path d="M 83.95833913139862 113.55231037782056 l -14.386420147903298 12.153930485572928 a39.833138636991364,39.833138636991364 0 0,0 -0.4379824308607921,-0.527578052652669 l 14.593498578657627 -11.904491175806498" fill="#ffec16" stroke="none" /><path d="M 83.72743513129214 113.27417163493432 l -11.226950540757617 9.158265437399923 a35.48855563078983,35.48855563078983 0 0,0 -0.38206317881743745,-0.4766825604740639 l 11.382931631629916 -8.9636550433476" fill="#ffb510" stroke="none" /><path d="M 83.50135304334701 112.99209946851258 l -9.069619083021289 7.14200343687073 a32.544098206589254,32.544098206589254 0 0,0 -0.3427872696706299,-0.4430987542382522 l 9.191213169909986 -6.984826688519225" fill="#ff8e0d" stroke="none" /><path d="M 83.28015986056508 112.70617746262583 l -9.197353906286363 6.98949331723689 a32.55181092769355,32.55181092769355 0 0,0 -0.3351886838945496,-0.4490400178286184 l 9.316303856875997 -6.830140419898963" fill="#ff8e0d" stroke="none" /><path d="M 83.06392112726016 112.41649034213515 l -11.551060182508168 8.468526172748751 a35.322811416703644,35.322811416703644 0 0,0 -0.35528055053873364,-0.4934536109832249 l 11.695120525422508 -8.26843895631439" fill="#ffb310" stroke="none" /><path d="M 82.6465618267979 111.8261652097733 l -5.968362716282662 4.067369406000883 a28.222523616990458,28.222523616990458 0 0,0 -0.2701256954517811,-0.4038012635647643 l 6.037491517145173 -3.9640312282302976" fill="#ff5307" stroke="none" /><path d="M 82.44556493220864 111.52570212397912 l -11.82774567365595 7.7657340100260415 a35.14928240000751,35.14928240000751 0 0,0 -0.3277170737956321,-0.5086241761725465 l 11.959667610828628 -7.560988233932046" fill="#ffb010" stroke="none" /><path d="M 82.05923443525364 110.91462005526583 l -10.075177737944784 6.129433919755621 a32.79318305750525,32.79318305750525 0 0,0 -0.2892345070942239,-0.4847736706276851 l 10.17919312073724 -5.955098155241824" fill="#ff910d" stroke="none" /><line stroke="#e1ed5e" stroke-width="0.3" x1="26.63291911575756" x2="22.317208475507996" y1="142.92168965132927" y2="145.44649492493687" /><path d="M 25.769776987707644 143.4266507060508 a86.0,86.0 0 0,1 -11.730757126820373,-40.83630448921669" fill="none" id="id21" stroke="none" /><text fill="#e1ed5e" style="font-size:6.75px; font-family:Arial;" text-anchor="middle"><textPath startOffset="21.46611528233685" xlink:href="#id21">September</textPath></text><path d="M 81.87401531095188 110.60418214915194 l -7.898071835127438 4.620581656862045 a30.150372318138935,30.150372318138935 0 0,0 -0.25821353698475763,-0.45021706661673533 l 7.976437368264573 -4.483944744387003" fill="#ff6d0a" stroke="none" /><path d="M 81.69416730710424 110.29060199501025 l -10.35671131713525 5.822012903199875 a32.88096391508295,32.88096391508295 0 0,0 -0.27310551365542324,-0.49576583614345804 l 10.45539324024219 -5.642876548658594" fill="#ff920d" stroke="none" /><path d="M 81.51974371655577 109.97397251340807 l -10.180818867751118 5.49468611222154 a32.56895190973657,32.56895190973657 0 0,0 -0.2620210826140143,-0.49564514308256397 l 10.273892458590018 -5.31862595405285" fill="#ff8e0d" stroke="none" /><path d="M 81.35079622478065 109.6543875284942 l -10.322964447925441 5.344029719679983 a32.62420959196605,32.62420959196605 0 0,0 -0.2538805585090823,-0.5009304275932532 l 10.413423676220791 -5.165545080384045" fill="#ff8f0d" stroke="none" /><path d="M 81.18737489456691 109.33194174019688 l -10.344330090183687 5.131271430858476 a32.54708238092307,32.54708238092307 0 0,0 -0.24464052192957933,-0.5040319353039941 l 10.431123868727987 -4.952450539589197" fill="#ff8e0d" stroke="none" /><path d="M 81.02952815118164 109.00673069616217 l -10.431748975093107 4.952747325284986 a32.547774363377286,32.547774363377286 0 0,0 -0.23593321064171302,-0.508179146118479 l 10.515456802574647 -4.77244811188768" fill="#ff8e0d" stroke="none" /><path d="M 80.87730276802145 108.67885076344099 l -10.525459996099372 4.776988068919145 a32.558759584837986,32.558759584837986 0 0,0 -0.2272274517737571,-0.5123379174544808 l 10.606128532604407 -4.595101814971969" fill="#ff8e0d" stroke="none" /><path d="M 80.45479744820244 107.68017299344265 l -10.740772547274414 4.22052373351846 a32.54023463788654,32.54023463788654 0 0,0 -0.20036373724038894,-0.5230864925461842 l 10.811830564108313 -4.035013674139119" fill="#ff8e0d" stroke="none" /><path d="M 80.32549172779594 107.34259656027581 l -10.865302257643602 4.054969500612253 a32.59730877405835,32.59730877405835 0 0,0 -0.19166556143417796,-0.5273813079837215 l 10.933492080083004 -3.867340395622414" fill="#ff8f0d" stroke="none" /><path d="M 80.20201598880116 107.00284435728193 l -9.194806188686737 3.252341076663333 a30.753060203160008,30.753060203160008 0 0,0 -0.17223056459269134,-0.5005826400465859 l 9.249427584222657 -3.0935857335274504" fill="#ff760a" stroke="none" /><path d="M 80.0844068197444 106.66101706037122 l -10.948758511385341 3.6619480310797554 a32.54491993575364,32.54491993575364 0 0,0 -0.17311998794663958,-0.5328085368593533 l 11.01017075034823 -3.4729405942425986" fill="#ff8e0d" stroke="none" /><path d="M 79.86692584326677 105.97154293290107 l -5.589085527757712 1.6577430711692525 a26.829750348565568,26.829750348565568 0 0,0 -0.12751460168068854,-0.44389505679462227 l 5.6167927663245045 -1.5612905388700344" fill="#ff3f05" stroke="none" /><path d="M 79.67330655649465 105.27499134158121 l -6.983278752263591 1.8122344913805115 a28.214594651369218,28.214594651369218 0 0,0 -0.11794867534006548,-0.47114632699630643 l 7.013438741898716 -1.6917603249868132" fill="#ff5307" stroke="none" /><path d="M 79.58551787078972 104.9243191809786 l -11.286469704537886 2.722487834852551 a32.610182530967016,32.610182530967016 0 0,0 -0.12693037452297812,-0.5468127313684517 l 11.33166064499142 -2.5278064461355254" fill="#ff8f0d" stroke="none" /><path d="M 79.50377843672027 104.57218783832718 l -6.1207353943002945 1.3653810213281292 a27.271177489151732,27.271177489151732 0 0,0 -0.09826189808728848,-0.4590468747935304 l 6.143331331112024 -1.259820327118435" fill="#ff4506" stroke="none" /><path d="M 79.4281124754447 104.21870165774334 l -20.601412767968586 4.22475643483583 a42.03013968022813,42.03013968022813 0 0,0 -0.13923998259978915,-0.7099816714751137 l 20.671082683544043 -3.8695110362927614" fill="#f7ff18" stroke="none" /><path d="M 79.23777060512086 103.15116336523772 l -7.176023602847788 1.0891326868275744 a28.258203962286043,28.258203962286043 0 0,0 -0.06885037249032702,-0.4815393448383546 l 7.193708026354715 -0.9654478700088193" fill="#ff5307" stroke="none" /><path d="M 79.18660465613746 102.79330883721812 l -7.573474062266309 1.0164152305312801 a28.641374830007784,28.641374830007784 0 0,0 -0.0613723162116982,-0.48919774496777535 l 7.589847887724854 -0.8858997312760961" fill="#ff5908" stroke="none" /><path d="M 79.1416061653843 102.43462659150553 l -10.948633833756382 1.2779428408377047 a32.02296333705793,32.02296333705793 0 0,0 -0.059193225517180204,-0.5480557527374949 l 10.969009360774614 -1.0892907662154276" fill="#ff870c" stroke="none" /><path d="M 79.07016306316243 101.71520430193888 l -4.327279909379528 0.3546214496873629 a25.341786243782398,25.341786243782398 0 0,0 -0.03188653343588275,-0.43506641476382885 l 4.332743001479746 -0.28008189842677345" fill="#ff2a04" stroke="none" /><path d="M 79.04373962182676 101.35467743843564 l -4.340209477837999 0.28056455453452417 a25.349268304068623,25.349268304068623 0 0,0 -0.024400057845536154,-0.4356794238638086 l 4.344395886571068 -0.20581341433527797" fill="#ff2a04" stroke="none" /><line stroke="#e1ed5e" stroke-width="0.3" x1="15.007084014347285" x2="10.007500721073583" y1="101.09737516637583" y2="101.16192664675087" /><path d="M 14.007167355692545 101.11028546245083 a86.0,86.0 0 0,1 10.666146001902534,-42.60595125391555" fill="none" id="id22" stroke="none" /><text fill="#e1ed5e" style="font-size:6.75px; font-family:Arial;" text-anchor="middle"><textPath startOffset="22.20632615414155" xlink:href="#id22">October</textPath></text><path d="M 79.00175016825051 100.2711162175752 l -8.074733392880912 0.1042558876547891 a29.075406408114503,29.075406408114503 0 0,0 -0.0021539375503764374,-0.5004992301861673 l 8.075331627720793 0.03475282073505352" fill="#ff5f08" stroke="none" /><path d="M 79.00019446554 99.90962569577889 l -7.215681135729927 -0.031053247662363358 a28.21574795545958,28.21574795545958 0 0,0 0.006270604517926754,-0.48566523036204795 l 7.214077524094285 0.1552547360848833" fill="#ff5307" stroke="none" /><path d="M 79.00486145842228 99.54816195383935 l -7.217061007597646 -0.15531894387061623 a28.21873212979339,28.21873212979339 0 0,0 0.014631151309690294,-0.48553668191961047 l 7.21331816183231 0.2795257732152211" fill="#ff5307" stroke="none" /><path d="M 79.01574976396665 99.18683210126434 l -10.231844340662471 -0.396497719437202 a31.23952386847482,31.23952386847482 0 0,0 0.025447406375861677,-0.5371545287281746 l 10.22350332605311 0.5725633547883857" fill="#ff7c0b" stroke="none" /><path d="M 79.05617556472873 98.46500227214037 l -7.199249294375537 -0.527641517589831 a28.218559134179838,28.218559134179838 0 0,0 0.039674644014605014,-0.4841311491663961 l 7.189100166541435 0.6514865839640055" fill="#ff5307" stroke="none" /><path d="M 79.21141760316559 97.0276538004421 l -7.516023188701845 -1.07463907515545 a28.592460320275293,28.592460320275293 0 0,0 0.07385583164026362,-0.48661765225525133 l 7.4964114636222785 1.2038558398027932" fill="#ff5808" stroke="none" /><path d="M 79.26566170972629 96.67025291283419 l -17.17344629158245 -2.757900057645885 a38.39348355729324,38.39348355729324 0 0,0 0.11040528579899354,-0.6516182464705662 l 17.123429144263234 3.053104092432279" fill="#ffda14" stroke="none" /><path d="M 79.32604984820605 96.31383870115002 l -8.52707784666482 -1.5203763247890705 a29.661558795740007,29.661558795740007 0 0,0 0.09394843385732016,-0.5018762903218703 l 8.499643688897638 1.6669306925735135" fill="#ff6709" stroke="none" /><path d="M 79.3925641242962 95.95851677861259 l -16.990318300524226 -3.332102390213309 a38.31397765656389,38.31397765656389 0 0,0 0.1324946682722303,-0.6460910570190832 l 16.930444336337004 3.6240691033957946" fill="#ffd914" stroke="none" /><path d="M 79.46518482838121 95.60439243477599 l -11.369209232056722 -2.433651420447802 a32.62676127726597,32.62676127726597 0 0,0 0.12228139268882864,-0.5481635064524519 l 11.325633452365857 2.6289930964502135" fill="#ff8f0d" stroke="none" /><path d="M 79.54389044137918 95.25157060432595 l -16.623074321630593 -3.8586757921444628 a38.06505138496032,38.06505138496032 0 0,0 0.15365084827768002,-0.6369819625866184 l 16.5541906730921 4.144242986390478" fill="#ffd614" stroke="none" /><path d="M 79.62865764111835 94.90015583598534 l -18.197047254197383 -4.555522341469895 a39.7586063601517,39.7586063601517 0 0,0 0.17191558558220488,-0.6624608800291789 l 18.115935336744872 4.868079647047938" fill="#ffeb16" stroke="none" /><path d="M 79.71946130924805 94.55025226153421 l -12.651101847929525 -3.399579998153291 a34.099905424487986,34.099905424487986 0 0,0 0.15720580797744546,-0.5655529339920119 l 12.590709269385718 3.6168442355642454" fill="#ffa30f" stroke="none" /><path d="M 79.81627453868168 94.20196356495316 l -11.09460068186197 -3.187067675341325 a32.543290893726,32.543290893726 0 0,0 0.15929801868825338,-0.5370737277297327 l 11.03809676606201 3.377570789817597" fill="#ff8e0d" stroke="none" /><path d="M 79.91906864156998 93.8553929516997 l -1.387359557363994 -0.4245211122205678 a22.450856545675762,22.450856545675762 0 0,0 0.11625750162137928,-0.3685680503669601 l 1.3798465719744109 0.4483393290139424" fill="#ff0000" stroke="none" /><path d="M 80.02781315780177 93.51064311812611 l -18.447084362708374 -5.993821047513998 a40.396412354724305,40.396412354724305 0 0,0 0.22056961726209987,-0.6594750809828811 l 18.341177451674504 6.310469231419201" fill="#fff316" stroke="none" /><path d="M 80.14247586403 93.16781622104843 l -14.354389332337607 -4.938774103036579 a36.180249758984615,36.180249758984615 0 0,0 0.207686554475106,-0.5871578568733329 l 14.267249697052693 5.185129586336523" fill="#ffbe11" stroke="none" /><path d="M 80.2630227832202 92.82701384747504 l -11.934109847857844 -4.3371993462412615 a33.697805953383174,33.697805953383174 0 0,0 0.20282133571762714,-0.5434603432993236 l 11.85768392363859 4.541982826569926" fill="#ff9d0e" stroke="none" /><path d="M 80.38941819471856 92.48833698450439 l -10.779622092087486 -4.129040606451859 a32.54336297523165,32.54336297523165 0 0,0 0.2048782139936659,-0.5213927074788123 l 10.70695032821213 4.313982318826436" fill="#ff8e0d" stroke="none" /><path d="M 80.52162464483688 92.15188598940014 l -11.993349928601022 -4.832290983843819 a33.930254392795696,33.930254392795696 0 0,0 0.22293520307809817,-0.5398552773152993 l 11.908393038636724 5.03802083161243" fill="#ffa00e" stroke="none" /><path d="M 80.65960295795068 91.81776055985345 l -10.633495723774384 -4.498656770516701 a32.54595790943497,32.54595790943497 0 0,0 0.2227217385073757,-0.5140724799432436 l 10.554483275424328 4.6810283950465434" fill="#ff8e0d" stroke="none" /><path d="M 80.803312248108 91.48605970444005 l -13.19243199871863 -5.850987412099508 a35.4317121554361,35.4317121554361 0 0,0 0.2520674143830287,-0.5553971347910682 l 13.08976226737225 6.077206555732648" fill="#ffb410" stroke="none" /><path d="M 80.95270993114464 91.15688171328213 l -15.719119419873035 -7.297942746211078 a38.33062848436849,38.33062848436849 0 0,0 0.2829928510189189,-0.596055116420742 l 15.591168375012364 7.567440278272352" fill="#ffd914" stroke="none" /><path d="M 81.10775173730289 90.83032412892265 l -8.10505232113318 -3.933925791651865 a30.009308811586497,30.009308811586497 0 0,0 0.2295569037509662,-0.4627727102098053 l 8.0361354044288 4.072858090360632" fill="#ff6c09" stroke="none" /><path d="M 81.26839172434947 90.50648371742162 l -13.704709965124348 -6.945793724025748 a36.364345924408696,36.364345924408696 0 0,0 0.2877814886637704,-0.5559022370903042 l 13.583119043300464 7.180668683376387" fill="#ffc011" stroke="none" /><path d="M 81.43458229118936 90.18545643968196 l -10.626448569500363 -5.617635111293279 a33.01995147427274,33.01995147427274 0 0,0 0.2699646777300814,-0.5002035473050053 l 10.528175792551808 5.799719641930757" fill="#ff940d" stroke="none" /><path d="M 81.6062741919709 89.86733742301443 l -9.481842238686543 -5.223319571877146 a31.825359097475477,31.825359097475477 0 0,0 0.2684580560591527,-0.47755692637435926 l 9.390526541334959 5.385760008186289" fill="#ff840c" stroke="none" /><line stroke="#e1ed5e" stroke-width="0.3" x1="26.266209847984243" x2="21.928928074336255" y1="57.711370442889674" y2="55.22380399835377" /><path d="M 25.398753493254645 57.213857153982495 a86.0,86.0 0 0,1 29.58750427330803,-30.492523968695096" fill="none" id="id23" stroke="none" /><text fill="#e1ed5e" style="font-size:6.75px; font-family:Arial;" text-anchor="middle"><textPath startOffset="21.46611528233685" xlink:href="#id23">November</textPath></text><path d="M 81.96595687620814 89.24020034530311 l -19.82119512251846 -11.826082868438377 a44.08107476042052,44.08107476042052 0 0,0 0.39438750200224765,-0.6482693560802903 l 19.614691822229997 12.165519997725742" fill="#deff1b" stroke="none" /><path d="M 82.15384107792192 88.93136811851018 l -18.48476188496155 -11.464709331290022 a42.7514593072441,42.7514593072441 0 0,0 0.39325724563682163,-0.6220385216656394 l 18.284677043078766 11.781195500669877" fill="#eeff19" stroke="none" /><path d="M 82.34701348167596 88.62581576622439 l -6.074949158344655 -3.914215357617131 a28.226762009522538,28.226762009522538 0 0,0 0.2666802169352621,-0.4061722662704362 l 6.006672306051472 4.018205687865234" fill="#ff5307" stroke="none" /><path d="M 82.7489923806493 88.02491185347247 l -9.484141575349227 -6.583582470368654 a32.54523709437849,32.54523709437849 0 0,0 0.32341810795654713,-0.45745197765140333 l 9.369410847588803 6.745860948351844" fill="#ff8e0d" stroke="none" /><path d="M 82.95767976084542 87.72973835380427 l -5.879447278977255 -4.2331299632733135 a28.24481121853671,28.24481121853671 0 0,0 0.287474864756936,-0.39211539245771315 l 5.805709801706686 4.333707799402528" fill="#ff5307" stroke="none" /><path d="M 83.39014120810768 87.1503855733568 l -25.433243248552273 -19.675505581206135 a53.15548758790797,53.15548758790797 0 0,0 0.566095613955878,-0.7188839418142966 l 25.090793554002424 20.11038191697348" fill="#78ff26" stroke="none" /><path d="M 83.84228863543731 86.58626213691792 l -5.5645262918115685 -4.61953399998792 a28.23215370614498,28.23215370614498 0 0,0 0.31363151514494164,-0.3712407894593868 l 5.484184163179502 4.714633739076422" fill="#ff5307" stroke="none" /><path d="M 84.07557802195018 86.31012108654704 l -8.753355465635012 -7.5250691407281005 a32.54330531002714,32.54330531002714 0 0,0 0.36883673570746794,-0.4216441487903115 l 8.6225268663497 7.6746288457213545" fill="#ff8e0d" stroke="none" /><path d="M 84.31358615837235 86.03803664274999 l -14.410097259099706 -12.825955756187213 a40.2913463520923,40.2913463520923 0 0,0 0.4655691152607959,-0.5140930453428606 l 14.187184503222865 13.07210158879963" fill="#fff216" stroke="none" /><path d="M 84.5562425177563 85.77008943001954 l -8.488941788392605 -7.821728787277432 a32.54303140030567,32.54303140030567 0 0,0 0.38312860972843404,-0.4086948879885019 l 8.353045856693717 7.966693092143983" fill="#ff8e0d" stroke="none" /><path d="M 84.80347519578584 85.50635884689758 l -1.4078766150625075 -1.34275821014696 a22.94553750263441,22.94553750263441 0 0,0 0.27505770371206584,-0.2834711419300364 l 1.3845546476473234 1.36679354762712" fill="#ff0701" stroke="none" /><path d="M 85.05521093208273 85.24692304244772 l -44.83436720375183 -44.259230872656865 a84.0,84.0 0 0,0 1.0246567993307472,-1.0202565973995625 l 44.06587460425377 45.02442332070654" fill="#4dd2ff" stroke="none" /><path d="M 85.83668400450813 84.49514656593479 l -7.786242012889446 -8.523748340461932 a32.544689274935564,32.544689274935564 0 0,0 0.41686494414575714,-0.3742654628187029 l 7.6383660811477165 8.656512812049915" fill="#ff8e0d" stroke="none" /><path d="M 86.65592168130627 83.78471172551755 l -4.955371785723728 -6.021605995835684 a28.798426014512867,28.798426014512867 0 0,0 0.3854828418748212,-0.31170031626136724 l 4.850985545284407 6.106012409361186" fill="#ff5b08" stroke="none" /><path d="M 86.93701828274178 83.55741782278169 l -11.212323415654422 -14.113129234183903 a39.024888714164334,39.024888714164334 0 0,0 0.529562991526818,-0.41333231467566406 l 10.96772786896818 14.30403993808279" fill="#ffe215" stroke="none" /><path d="M 87.22198572758235 83.33499621200491 l -7.042308087902228 -9.184532781001039 a32.57366604020592,32.57366604020592 0 0,0 0.4478938740618655,-0.3373443801295865 l 6.883168060081973 9.30439375063648" fill="#ff8e0d" stroke="none" /><path d="M 87.51073957382395 83.11751280151077 l -6.862068039160838 -9.275871578711687 a32.53818752312615,32.53818752312615 0 0,0 0.45314025421415166,-0.3292256658377426 l 6.701382468592905 9.392616479366097" fill="#ff8e0d" stroke="none" /><path d="M 87.80319425747018 82.90503203632743 l -6.705058211922084 -9.397768378624106 a32.54451627932201,32.54451627932201 0 0,0 0.4588294213152326,-0.3214393314879526 l 6.542297651023191 9.511792552876" fill="#ff8e0d" stroke="none" /><path d="M 88.09926311788651 82.69761687909137 l -12.263977279660317 -17.83049533661457 a42.6409727753874,42.6409727753874 0 0,0 0.608335012830696,-0.4107505162122755 l 11.955237572423082 18.038957765125513" fill="#f0ff19" stroke="none" /><path d="M 88.39885842347998 82.49532879139004 l -10.35601969122242 -15.625938062133084 a39.74612184337352,39.74612184337352 0 0,0 0.5735421674160757,-0.37304777980072035 l 10.085510498022057 15.80188476609334" fill="#ffeb16" stroke="none" /><path d="M 88.70189139769569 82.29822771554957 l -3.884134044184891 -6.085625372588405 a28.219510610054385,28.219510610054385 0 0,0 0.4117103609689984,-0.2578129902684068 l 3.7788045308436504 6.1515827041797415" fill="#ff5307" stroke="none" /><path d="M 89.00827224532344 82.1063720568725 l -3.593700546830205 -5.850248656007196 a27.86586432704592,27.86586432704592 0 0,0 0.4108727930136103,-0.24754626050364417 l 3.4924656875989455 5.9112415259694595" fill="#ff4e07" stroke="none" /><line stroke="#e1ed5e" stroke-width="0.3" x1="56.762969772571076" x2="54.21961505331055" y1="26.818313649435495" y2="22.513508569990535" /><path d="M 56.25429882871897 25.957352633546506 a86.0,86.0 0 0,1 42.265352541879196,-11.944610805530505" fill="none" id="id24" stroke="none" /><text fill="#e1ed5e" style="font-size:6.75px; font-family:Arial;" text-anchor="middle"><textPath startOffset="22.20632615414155" xlink:href="#id24">December</textPath></text><path d="M 89.3179101791058 81.91981866633112 l -13.275867769234376 -22.470331241745217 a47.09912740188735,47.09912740188735 0 0,0 0.7015600452067876,-0.40638886075135694 l 12.887110991562267 22.69552425988662" fill="#bbff1f" stroke="none" /><path d="M 89.63071344664047 81.73862282372117 l -10.693641970555744 -18.832600334411186 a42.65688837183439,42.65688837183439 0 0,0 0.6416325462764407,-0.35706781732202353 l 10.367885335207257 19.013883549293396" fill="#efff19" stroke="none" /><path d="M 89.94658935756843 81.56283822128135 l -10.515371911751364 -19.284362292144724 a42.964964726972426,42.964964726972426 0 0,0 0.6523615156634188,-0.348468928957398 l 10.18186534955964 19.46250994760387" fill="#ecff1a" stroke="none" /><path d="M 90.26544431104013 81.39251694778311 l -8.868671893024596 -16.952356863321825 a40.13206064091213,40.13206064091213 0 0,0 0.6148604582221541,-0.31495540801114913 l 8.575550947213678 17.10250479664548" fill="#fff016" stroke="none" /><path d="M 90.58718382345135 81.22770947309562 l -6.548442641103641 -13.059775677319202 a35.60958047877223,35.60958047877223 0 0,0 0.5503015254793439,-0.2700305686194276 l 6.322669848613871 13.170561406073459" fill="#ffb610" stroke="none" /><path d="M 90.91171255644093 81.06846463323043 l -13.927427782805307 -29.011801538602384 a53.181638758156936,53.181638758156936 0 0,0 0.8286757600220087,-0.38907438065915645 l 13.42597381148369 29.24724090190155" fill="#78ff26" stroke="none" /><path d="M 91.23893434514133 80.91482961587045 l -3.2660776453812392 -7.114847760024362 a28.828685830583748,28.828685830583748 0 0,0 0.45277219466809765,-0.20314568575488615 l 3.143123332246367 7.170013776295777" fill="#ff5b08" stroke="none" /><path d="M 91.56875222667455 80.76684994638697 l -8.694465435380069 -19.833595554345948 a42.65560532103386,42.65560532103386 0 0,0 0.6750071652126526,-0.2890028409576089 l 8.351774512377109 19.98031792326634" fill="#efff19" stroke="none" /><path d="M 91.90106846888425 80.62456947434976 l -8.580695356263096 -20.527975338265517 a43.24918210374108,43.24918210374108 0 0,0 0.6893428036776991,-0.2812002379871385 l 8.226068682997017 20.67263646243623" fill="#e8ff1a" stroke="none" /><path d="M 92.23578459929587 80.48803036053334 l -8.629991316083727 -21.687719860659133 a44.341678235939014,44.341678235939014 0 0,0 0.711613907508519,-0.27609514052793177 l 8.255394243575532 21.833057705077614" fill="#dbff1b" stroke="none" /><path d="M 92.57280143429618 80.3572730644239 l -5.102250175848356 -13.493931268240871 a35.42633487511479,35.42633487511479 0 0,0 0.5722494725113595,-0.21076431013789326 l 4.869218377564427 13.579758846185086" fill="#ffb410" stroke="none" /><path d="M 92.91201910852362 80.23233633223022 l -7.01382399353048 -19.56084756037839 a41.78029076535228,41.78029076535228 0 0,0 0.6790650054134889,-0.2369124465978643 l 6.676076984053705 19.678680860148464" fill="#faff18" stroke="none" /><path d="M 93.25333710446033 80.11325718540243 l -4.637105800084133 -13.668524999421276 a35.43368718869085,35.43368718869085 0 0,0 0.5792854039603161,-0.1909812899357721 l 4.401137573881408 13.746320013616282" fill="#ffb410" stroke="none" /><path d="M 93.94186890950719 79.89281104454417 l -3.330290330297668 -11.053372062699193 a32.544170288094904,32.544170288094904 0 0,0 0.5377688307639864,-0.15698946829230687 l 3.1395312818102603 11.109059859910198" fill="#ff8e0d" stroke="none" /><path d="M 94.28887869178378 79.79150937346287 l -5.934909601332498 -21.00035327131456 a42.82287766303978,42.82287766303978 0 0,0 0.7110679919341084,-0.1943617429446031 l 5.572543720174667 21.099401555085457" fill="#edff19" stroke="none" /><path d="M 94.63758080256005 79.69619591428918 l -2.7824948975906048 -10.53540001071546 a31.896647706560998,31.896647706560998 0 0,0 0.5320529605883008,-0.13563214630729517 l 2.6007330483173043 10.581735153191618" fill="#ff850c" stroke="none" /><path d="M 94.98787191387505 79.60689891045804 l -1.7683984150179708 -7.195172793744166 a28.40930121442463,28.40930121442463 0 0,0 0.4758913922467191,-0.11262811711057948 l 1.6442833358087177 7.224546822995617" fill="#ff5507" stroke="none" /><path d="M 96.04723909329186 79.375362276772 l -1.8966374088928823 -9.896237180536827 a31.07634575598969,31.07634575598969 0 0,0 0.5262333413868252,-0.09616577953957532 l 1.7260089464031638 9.92741844142714" fill="#ff7a0b" stroke="none" /><path d="M 96.75951476605007 79.25152402106235 l -1.3367885019396701 -8.559311991558342 a29.663072507358606,29.663072507358606 0 0,0 0.5051635649726465,-0.07444797799385311 l 1.189255956538375 8.581054453713163" fill="#ff6709" stroke="none" /><path d="M 97.11714578562143 79.19881850522333 l -2.695211707228088 -19.44725043995452 a40.63312801927117,40.63312801927117 0 0,0 0.6936370442649237,-0.09005399586205623 l 2.3600599344553066 19.49076275898071" fill="#fff617" stroke="none" /><path d="M 97.47563105711357 79.15227682838746 l -1.017809747673344 -8.405671413704027 a29.467068477201536,29.467068477201536 0 0,0 0.5040739117604753,-0.056638577290420156 l 0.8729691324031508 8.421945944465046" fill="#ff6409" stroke="none" /><path d="M 98.19473922651362 79.07773832637324 l -1.0886433162296858 -12.616947460401974 a33.66382673162087,33.66382673162087 0 0,0 0.5777511151277462,-0.04484460602619675 l 0.8713020117396053 12.633817328616633" fill="#ff9d0e" stroke="none" /></svg>