<?xml version="1.0" encoding="utf-8" ?>
<svg baseProfile="full" height="200mm" version="1.1" viewBox="0,0,200,200" width="200mm" xmlns="http://www.w3.org/2000/svg" xmlns:ev="http://www.w3.org/2001/xml-events" xmlns:xlink="http://www.w3.org/1999/xlink"><defs /><rect fill="#1a1a1a" height="200" width="200" x="0" y="0" /><rect fill="#1a1a1a" height="200" width="180" x="10" y="0" /><text alignment-baseline="middle" fill="#e1ed5e" style="dominant-baseline: central; font-size:9.0px; font-family:Arial;" text-anchor="middle" x="100.0" y="100.0">2026</text><line stroke="#e1ed5e" stroke-width="0.3" x1="100.0" x2="100.0" y1="15.0" y2="10.0" /><path d="M 100.0 14.0 a86.0,86.0 0 0,1 42.46469731375804,11.215312516191453" fill="none" id="id25" stroke="none" /><text fill="#e1ed5e" style="font-size:6.75px; font-family:Arial;" text-anchor="middle"><textPath startOffset="22.20632615414155" xlink:href="#id25">January</textPath></text><path d="M 100.0 79.0 l 0.0 -30.038192294008354 a51.038192294008354,51.038192294008354 0 0,0 0.878538581506743,0.007561858935557482 l -0.5170581022342147 30.033741811681356" fill="#90ff24" stroke="none" /><path d="M 100.36148047927253 79.00311137660856 l 0.2552866615910446 -14.828534064278998 a35.83073139717219,35.83073139717219 0 0,0 0.61658437944881,0.015924555420051834 l -0.5104976762347223 14.821942716716586" fill="#ffb811" stroke="none" /><path d="M 100.72285384407766 79.0124445844662 l 0.4088002382443442 -11.869228785777645 a32.87626665261105,32.87626665261105 0 0,0 0.5654078618287326,0.02434765189737633 l -0.6130489324624083 11.860433407356075" fill="#ff910d" stroke="none" /><path d="M 101.08401301168833 79.027996857942 l 1.1485324091954685 -22.220236320676385 a43.249899524305235,43.249899524305235 0 0,0 0.7431526253449021,0.04482899582259365 l -1.5308470833799825 22.197174055473486" fill="#e9ff1a" stroke="none" /><path d="M 101.44485096284872 79.0497635885617 l 0.818237908349156 -11.864391595737533 a32.8925733637286,32.8925733637286 0 0,0 0.5645145779717489,0.043817195990333485 l -1.022342675683246 11.848549137558736" fill="#ff910d" stroke="none" /><path d="M 102.16513564639614 79.11191278185805 l 1.5297781778570179 -14.758493333512527 a35.837565391558726,35.837565391558726 0 0,0 0.6130498454188298,0.06888329318882201 l -1.783594726785573 14.729974086853105" fill="#ffb811" stroke="none" /><path d="M 102.52436894288641 79.15227682838746 l 0.7368152104185834 -6.085053287763926 a27.129499993411432,27.129499993411432 0 0,0 0.4631202938373564,0.06012630578151954 l -0.8414502327637859 6.07146865881827" fill="#ff4206" stroke="none" /><path d="M 102.88285421437855 79.19881850522331 l 2.6938711417240597 -19.437577614247385 a40.6233627403181,40.6233627403181 0 0,0 0.6918178397731676,0.10195596611164473 l -3.028057961925883 19.388327163974772" fill="#fff517" stroke="none" /><path d="M 103.2404852339499 79.25152402106235 l 3.4339161973066177 -21.98699348697687 a43.2535314735996,43.2535314735996 0 0,0 0.7346319718088532,0.12122056991809047 l -3.811877375254346 21.924626654119155" fill="#e9ff1a" stroke="none" /><path d="M 103.59715602781102 79.31037775812273 l 2.0461104774578067 -11.768533951948184 a32.945080973527126,32.945080973527126 0 0,0 0.55787769189744,0.10194858232979061 l -2.2483832904581478 11.731569888267655" fill="#ff920d" stroke="none" /><path d="M 103.95276090670814 79.375362276772 l 2.302046839775815 -12.011574495108702 a33.230181580993296,33.230181580993296 0 0,0 0.5608520272290881,0.11250164044022105 l -2.5084652764720285 11.970168898591274" fill="#ff950d" stroke="none" /><path d="M 104.66035177308747 79.52364482259891 l 1.6493154267718984 -7.246656502020743 a28.431976307501746,28.431976307501746 0 0,0 0.4762712284677071,0.11271801207207102 l -1.773810342202129 7.217192577807803" fill="#ff5407" stroke="none" /><path d="M 105.71112130821622 79.79150937346287 l 0.4352095625720788 -1.5399652522114158 a22.60028133194534,22.60028133194534 0 0,0 0.37345327163750697,0.10902125075397584 l -0.4616530519330129 1.5322456725387366" fill="#ff0000" stroke="none" /><path d="M 106.0581310904928 79.89281104454417 l 18.174393271478365 -60.321566866367476 a84.0,84.0 0 0,0 1.380858509157127,0.4290394604699177 l -19.21003715334621 59.99978727101504" fill="#4dd2ff" stroke="none" /><path d="M 107.08798089147638 80.2323363322302 l 4.009812876023068 -11.1829635995825 a32.88012096614793,32.88012096614793 0 0,0 0.5311199124977641,0.19561594607825103 l -4.201715114293408 11.112284385697924" fill="#ff910d" stroke="none" /><path d="M 107.76421540070413 80.48803036053334 l 4.390327917549384 -11.033174714183948 a32.874591508650795,32.874591508650795 0 0,0 0.5239836218399071,0.21374607579371468 l -4.579595408977679 10.955967752206654" fill="#ff910d" stroke="none" /><path d="M 108.09893153111575 80.62456947434976 l 7.241361642087045 -17.323828318380293 a39.77637734058955,39.77637734058955 0 0,0 0.629444583168532,0.2694953211404396 l -7.538489983045893 17.196613469277064" fill="#ffea16" stroke="none" /><path d="M 108.43124777332544 80.76684994638697 l 7.146696768316061 -16.30286465635205 a38.80052445018382,38.80052445018382 0 0,0 0.6093860369779774,0.2734137516154024 l -7.426264923760819 16.177430574220114" fill="#ffde14" stroke="none" /><path d="M 109.08828744355905 81.06846463323043 l 6.01109139325441 -12.521521795058367 a34.88962662572968,34.88962662572968 0 0,0 0.5391755392060551,0.2645710954747536 l -6.2257381994708965 12.41619553944878" fill="#ffab0f" stroke="none" /><path d="M 109.73455568895987 81.39251694778311 l 10.544001083289926 -20.154727933025722 a43.74618686502655,43.74618686502655 0 0,0 0.6642232560672308,0.35480505988302663 l -10.889369385885468 19.97024414664094" fill="#e4ff1b" stroke="none" /><path d="M 110.05341064243156 81.56283822128135 l 7.101931733988123 -13.024382369134518 a35.83482289923441,35.83482289923441 0 0,0 0.5390170155351413,0.2999623855639658 l -7.3250728385952995 12.900204586010373" fill="#ffb811" stroke="none" /><line stroke="#e1ed5e" stroke-width="0.3" x1="143.23703022742887" x2="145.7803849466894" y1="26.81831364943548" y2="22.513508569990506" /><path d="M 143.74570117128098 25.957352633546492 a86.0,86.0 0 0,1 28.547481713284135,27.462654790039103" fill="none" id="id26" stroke="none" /><text fill="#e1ed5e" style="font-size:6.75px; font-family:Arial;" text-anchor="middle"><textPath startOffset="19.985693538727396" xlink:href="#id26">February</textPath></text><path d="M 110.99172775467656 82.1063720568725 l 3.2355652828475012 -5.267233928018346 a27.181636996139098,27.181636996139098 0 0,0 0.3965682372755498,0.24833099380070928 l -3.3257526724953146 5.210758592894693" fill="#ff4206" stroke="none" /><path d="M 111.2981086023043 82.29822771554956 l 0.9171552931847251 -1.4369904486599765 a22.704733228794687,22.704733228794687 0 0,0 0.32763251614743516,0.21310130219363552 l -0.9417548351164404 1.420990222306813" fill="#ff0200" stroke="none" /><path d="M 113.06298171725822 83.55741782278167 l 1.857392213430318 -2.3379290246043096 a23.985936697018012,23.985936697018012 0 0,0 0.3210650137037627,0.25961224584003595 l -1.897360625698572 2.305610681500144" fill="#ff1402" stroke="none" /><path d="M 113.34407831869373 83.78471172551755 l 5.711279486866119 -6.9401603530709846 a29.988021979470016,29.988021979470016 0 0,0 0.39575972729116404,0.3314373901658903 l -5.829896751116401 6.8408218055112755" fill="#ff6909" stroke="none" /><path d="M 113.6212207817346 84.01681056812373 l 7.980482723595458 -9.364327116706393 a33.30360625387078,33.30360625387078 0 0,0 0.4331153045408818,0.3755933241087697 l -8.140491826783103 9.225568799177951" fill="#ff960d" stroke="none" /><path d="M 114.42810811169701 84.74124197986012 l 12.949779943451905 -13.695320068401692 a39.84830476090079,39.84830476090079 0 0,0 0.49434052875493834,0.4755551969967631 l -13.183603715819261 13.470381784642628" fill="#ffeb16" stroke="none" /><path d="M 114.68862486808459 84.99185889309783 l 10.390172610612558 -10.61618620296876 a35.85459849253515,35.85459849253515 0 0,0 0.4373649777696281,0.4354867935609531 l -10.571373388549508 10.435763558757689" fill="#ffb811" stroke="none" /><path d="M 115.19652480421416 85.50635884689758 l 3.927585908526152 -3.7459235903970525 a26.427510904083597,26.427510904083597 0 0,0 0.31113068068911337,0.33189251719978724 l -3.9914839111857283 3.6777616563192104" fill="#ff3805" stroke="none" /><path d="M 115.68641384162765 86.03803664274999 l 11.08363476325918 -9.865180403382114 a35.83808424145792,35.83808424145792 0 0,0 0.4061788401547374,0.46433262940899905 l -11.251805466991765 9.672932217770168" fill="#ffb811" stroke="none" /><path d="M 115.9244219780498 86.31012108654704 l 9.004122060728927 -7.740647723555571 a32.87399853733743,32.87399853733743 0 0,0 0.3651978548095645,0.4322790707615034 l -9.136030529025607 7.5845097031649615" fill="#ff910d" stroke="none" /><path d="M 116.15771136456269 86.58626213691792 l 11.520607917671413 -9.564127687657487 a35.9732075794911,35.9732075794911 0 0,0 0.39142534175057503,0.4798411863328243 l -11.683531751498396 9.364402331716564" fill="#ffba11" stroke="none" /><path d="M 116.38621287248628 86.86637796730983 l 5.7936573652907795 -4.6436419821205 a28.424949597438363,28.424949597438363 0 0,0 0.3027201898471112,0.3844238993892388 l -5.872731635731855 4.543225688778223" fill="#ff5407" stroke="none" /><path d="M 116.60985879189232 87.15038557335679 l 9.392203480336741 -7.265937347872786 a32.87465080578213,32.87465080578213 0 0,0 0.3424036708550136,0.45056309473804496 l -9.51588309141587 7.103189477253707" fill="#ff910d" stroke="none" /><path d="M 116.82858285166822 87.43820079747576 l 11.886196603275048 -8.872524580836327 a35.83251031111228,35.83251031111228 0 0,0 0.3647022448083659,0.49745345205798475 l -12.037161460597039 8.666608685106848" fill="#ffb811" stroke="none" /><path d="M 117.04232023915458 87.72973835380427 l 13.020605449940925 -9.374676301152691 a37.04433613567184,37.04433613567184 0 0,0 0.36812787901227184,0.5206907780976988 l -13.18004594875708 9.1491590227232" fill="#ffc712" stroke="none" /><path d="M 117.45458315368197 88.32363383020206 l 18.52130953328708 -12.389960284397276 a43.283402403510394,43.283402403510394 0 0,0 0.40893203190539723,0.6228315398060081 l -18.731838200550403 12.069310680613594" fill="#e9ff1a" stroke="none" /><path d="M 117.65298651832404 88.62581576622439 l 9.981302333922702 -6.431159482346315 a32.87376134881208,32.87376134881208 0 0,0 0.3023954047708011,0.4783169099338734 l -10.090525334939459 6.258394924698235" fill="#ff910d" stroke="none" /><line stroke="#e1ed5e" stroke-width="0.3" x1="172.23445277983987" x2="176.4835382374775" y1="55.19839476539836" y2="52.563006222186495" /><path d="M 173.08426987136738 54.67131705675599 a86.0,86.0 0 0,1 12.851231095245387,41.99856678651699" fill="none" id="id27" stroke="none" /><text fill="#e1ed5e" style="font-size:6.75px; font-family:Arial;" text-anchor="middle"><textPath startOffset="22.20632615414155" xlink:href="#id27">March</textPath></text><path d="M 117.84615892207809 88.93136811851018 l 12.612882663720269 -7.822823711181425 a35.84187925786346,35.84187925786346 0 0,0 0.32067251772786787,0.5271013039832806 l -12.745670979734362 7.6045546339910635" fill="#ffb811" stroke="none" /><path d="M 118.03404312379186 89.2402003453031 l 16.327846819973573 -9.741817703858073 a40.013195258864926,40.013195258864926 0 0,0 0.3478105565731219,0.5945209856318745 l -16.49311705101702 9.459317305872304" fill="#ffed16" stroke="none" /><path d="M 118.21658344932153 89.55222093294921 l 10.498737765986851 -6.021353727886792 a33.10290028857938,33.10290028857938 0 0,0 0.27923456367525484,0.4967271309483634 l -10.600829970954539 5.839743087003635" fill="#ff940d" stroke="none" /><path d="M 118.3937258080291 89.86733742301442 l 15.607938845619419 -8.598039325771236 a38.81948470792869,38.81948470792869 0 0,0 0.31738052937447686,0.5880579191822347 l -15.75362747421236 8.328100423256544" fill="#ffde14" stroke="none" /><path d="M 118.56541770881063 90.18545643968196 l 10.460799086902664 -5.530065087919787 a32.83257949109884,32.83257949109884 0 0,0 0.25983166649720263,0.5019120769142045 l -10.554440186559983 5.349180288745237" fill="#ff900d" stroke="none" /><path d="M 118.73160827565052 90.50648371742162 l 13.92898531175047 -7.05946050712541 a36.615780943219704,36.615780943219704 0 0,0 0.28009326554379327,0.5646509318135514 l -14.048438590247672 6.8186499868129085" fill="#ffc212" stroke="none" /><path d="M 118.89224826269711 90.83032412892265 l 13.41186638276014 -6.5096787765032085 a35.90818827498056,35.90818827498056 0 0,0 0.26510811266777423,0.5583852962763012 l -13.52193268926967 6.2778510645863665" fill="#ffb911" stroke="none" /><path d="M 119.04729006885535 91.15688171328212 l 20.61761950838563 -9.572177850187645 a43.73131810934392,43.73131810934392 0 0,0 0.31111226674641934,0.6854946402820262 l -20.779334092095397 9.215861201063555" fill="#e4ff1a" stroke="none" /><path d="M 119.196687751892 91.48605970444005 l 19.932757788050623 -8.840395381051838 a42.80521551212956,42.80521551212956 0 0,0 0.2929289112513909,0.6761203143584854 l -20.081977409144695 8.49597592210675" fill="#efff19" stroke="none" /><path d="M 119.34039704204932 91.81776055985345 l 10.93450585143014 -4.626003532479946 a32.872797770427866,32.872797770427866 0 0,0 0.21598729446165751,0.5230303654974243 l -11.012514832777995 4.437098596529219" fill="#ff910d" stroke="none" /><path d="M 119.47837535516314 92.15188598940014 l 19.28916425845519 -7.771878173064205 a41.79600798534702,41.79600798534702 0 0,0 0.2631286592789919,0.6696337370501784 l -19.42008646761588 7.438695431118242" fill="#fbff18" stroke="none" /><path d="M 119.61058180528143 92.48833698450437 l 18.014822268562998 -6.900421186333582 a40.2911802105707,40.2911802105707 0 0,0 0.24250572868905984,0.6497947866238997 l -18.130932585753683 6.58930326268035" fill="#fff016" stroke="none" /><path d="M 119.7369772167798 92.82701384747503 l 9.973606125497735 -3.624695810466446 a31.61184427255597,31.61184427255597 0 0,0 0.18146240176079473,0.5130186457675859 l -10.034521608068339 3.4524795382722453" fill="#ff800b" stroke="none" /><path d="M 119.85752413597 93.16781622104841 l 8.393557256989048 -2.8878890110486917 a29.87646925114312,29.87646925114312 0 0,0 0.16312937223240803,0.4877360594764901 l -8.442023922993227 2.7429798486498878" fill="#ff6809" stroke="none" /><path d="M 119.97218684219823 93.5106431181261 l 22.569346937843537 -7.333225351219197 a44.73081573087009,44.73081573087009 0 0,0 0.23163004368128481,0.7343305370870465 l -22.692232465293028 6.943644647705732" fill="#d8ff1c" stroke="none" /><path d="M 120.08093135843002 93.85539295169968 l 11.721277809470084 -3.5866188155122947 a33.25773992278196,33.25773992278196 0 0,0 0.1627952161645093,0.5488645390696647 l -11.781278922746296 3.3843248896961002" fill="#ff960d" stroke="none" /><path d="M 120.28053869075195 94.5502522615342 l 21.487301618585764 -5.774026774496809 a43.24957339008289,43.24957339008289 0 0,0 0.1870104718506702,0.720627634413206 l -21.58350842230674 5.403302714534753" fill="#e9ff1a" stroke="none" /><path d="M 120.37134235888165 94.90015583598534 l 21.589979648181867 -5.404922747369698 a43.25624431735825,43.25624431735825 0 0,0 0.17460527152458577,0.7238515750508848 l -21.67981771996727 5.032485940659407" fill="#e9ff1a" stroke="none" /><path d="M 120.45610955862082 95.25157060432595 l 17.295918021131026 -4.014861443782976 a38.75578476459039,38.75578476459039 0 0,0 0.14525227605305613,0.6511374724366858 l -17.36246468418612 3.716545801796327" fill="#ffdd14" stroke="none" /><path d="M 120.53481517161879 95.60439243477599 l 28.31265333788641 -6.0605032070404485 a49.95403319321642,49.95403319321642 0 0,0 0.17274747916080913,0.8423780584066148 l -28.412780112962217 5.572249492470422" fill="#9cff22" stroke="none" /><path d="M 120.6074358757038 95.95851677861258 l 19.351904037086857 -3.7952511869754937 a40.720550738578716,40.720550738578716 0 0,0 0.12897609306516228,0.6889954464388118 l -19.41436585406188 3.461577663074119" fill="#fff617" stroke="none" /><path d="M 120.73433829027371 96.67025291283417 l 15.048391273779592 -2.416635453174996 a36.24120096456667,36.24120096456667 0 0,0 0.09361293176236678,0.6167922567958599 l -15.087760098981258 2.157244083987054" fill="#ffbd11" stroke="none" /><path d="M 120.78858239683441 97.02765380044208 l 19.08926176340074 -2.7293777695707835 a40.28339746208278,40.28339746208278 0 0,0 0.09223747245334989,0.687276306189672 l -19.133415234911926 2.400383121316447" fill="#fff016" stroke="none" /><path d="M 120.83666639777658 97.38593545837742 l 12.850487997802553 -1.6121583163219748 a33.951219873762994,33.951219873762994 0 0,0 0.06775636380985446,0.5804951470087765 l -12.876334714615995 1.3907194309883455" fill="#ff9f0e" stroke="none" /><path d="M 120.87857604477298 97.74499172005257 l 11.801937363172385 -1.2746782355417108 a32.870574128002744,32.870574128002744 0 0,0 0.055915780396553705,0.5630642777922056 l -11.822130269251168 1.07133842704507" fill="#ff910d" stroke="none" /><path d="M 120.94382443527127 98.46500227214037 l 33.187659471626276 -2.4323629163035307 a54.27667547338877,54.27667547338877 0 0,0 0.060271428299264865,0.9323723190240284 l -33.22461149092995 1.8607315330264673" fill="#6dff28" stroke="none" /><path d="M 120.96714384426684 98.82574320788733 l 7.931148779660247 -0.44418092387527086 a28.94357713239073,28.94357713239073 0 0,0 0.023577150930985166,0.49767639224318183 l -7.937619538824729 0.30759342500908926" fill="#ff5b08" stroke="none" /><path d="M 120.98425023603335 99.18683210126433 l 9.1267759685619 -0.3536748348455444 a30.133626085466933,30.133626085466933 0 0,0 0.015624006094186103,0.5184846986196175 l -9.13151166911173 0.19651998880092778" fill="#ff6b09" stroke="none" /><line stroke="#e1ed5e" stroke-width="0.3" x1="184.98032266829074" x2="189.97916517819016" y1="98.17113171792111" y2="98.06355123074" /><path d="M 185.9800911702706 98.14961562048488 a86.0,86.0 0 0,1 -9.607161424134198,41.387399972396054" fill="none" id="id28" stroke="none" /><text fill="#e1ed5e" style="font-size:6.75px; font-family:Arial;" text-anchor="middle"><textPath startOffset="21.466115282336823" xlink:href="#id28">April</textPath></text><path d="M 120.99513854157772 99.54816195383933 l 18.436234624351467 -0.39676767146498804 a39.440503564416446,39.440503564416446 0 0,0 0.008765169019468857,0.6788720001130298 l -18.44033280048865 0.07935941329149548" fill="#ffe615" stroke="none" /><path d="M 120.99980553446 99.90962569577887 l 22.424811115835105 -0.09650692710264544 a43.425018777424924,43.425018777424924 0 0,0 -0.003216972353115357,0.7475110808031488 l -22.423149846192484 -0.2895136319041881" fill="#e7ff1a" stroke="none" /><path d="M 120.99824983174949 100.27111621757518 l 17.89709538880602 0.23107605854173754 a38.89858708113165,38.89858708113165 0 0,0 -0.014407179617086706,0.6694450248807643 l -17.890466146503925 -0.5391108992126167" fill="#ffdf14" stroke="none" /><path d="M 120.9904718944345 100.63252640178507 l 11.869011148915556 0.3576605115181331 a32.87439879297395,32.87439879297395 0 0,0 -0.0219129269952674,0.5654752778455944 l -11.861096089069084 -0.5619130363777337" fill="#ff910d" stroke="none" /><path d="M 120.9764740272857 100.99374915477107 l 7.42068884518783 0.3515511357214825 a28.42901145093492,28.42901145093492 0 0,0 -0.02736447914683857,0.4886111575841208 l -7.413538015153462 -0.47923400964102664" fill="#ff5407" stroke="none" /><path d="M 120.95626037817324 101.35467743843564 l 15.032364128667624 0.9717384764251725 a36.06373947475919,36.06373947475919 0 0,0 -0.04537752877885281,0.6191403275729783 l -15.013410041224432 -1.230351940494921" fill="#ffbb11" stroke="none" /><path d="M 120.92983693683757 101.71520430193887 l 19.940760766881166 1.634149312988212 a41.00760815137899,41.00760815137899 0 0,0 -0.06370903674524932,0.7030239116954182 l -19.909677133858843 -1.977154613232201" fill="#fff917" stroke="none" /><path d="M 120.8583938346157 102.4346265915055 l 9.11495806217987 1.0639131399375792 a30.17683886992845,30.17683886992845 0 0,0 -0.06466248594513474,0.5154236349701604 l -9.095294066987888 -1.2206545291951345" fill="#ff6c0a" stroke="none" /><path d="M 120.81339534386255 102.79330883721812 l 8.039913134019303 1.0790147420298004 a29.111995809669388,29.111995809669388 0 0,0 -0.07093061392392663,0.4960885485798829 l -8.020148469078775 -1.2172487625900925" fill="#ff5d08" stroke="none" /><path d="M 120.76222939487914 103.15116336523771 l 8.103631529841321 1.2299193076307775 a29.196434924692646,29.196434924692646 0 0,0 -0.07968992518039003,0.49622924016826253 l -8.081259850299642 -1.369227777492245" fill="#ff5e08" stroke="none" /><path d="M 120.70491114924044 103.5080841355445 l 16.971747730086552 2.875565054842758 a38.21363109278025,38.21363109278025 0 0,0 -0.11546623066546202,0.6475959415389793 l -16.9197350570819 -3.1672797471149554" fill="#ffd614" stroke="none" /><path d="M 120.64145759157962 103.86396538481128 l 7.310871605270673 1.3685542646508309 a28.437861547786902,28.437861547786902 0 0,0 -0.09421066351944375,0.48037814360093944 l -7.286231008775566 -1.4941961353197153" fill="#ff5407" stroke="none" /><path d="M 120.5718875245553 104.21870165774334 l 7.270343863721701 1.4909381394214027 a28.421643782366353,28.421643782366353 0 0,0 -0.10240719037258121,0.4784123003115652 l -7.2436026346246765 -1.6158642591491368" fill="#ff5407" stroke="none" /><path d="M 120.49622156327973 104.57218783832717 l 16.013417026398177 3.5721877006506713 a37.40701221520905,37.40701221520905 0 0,0 -0.1456013337476231,0.6272467350438189 l -15.949555126720002 -3.847303093043055" fill="#ffcc13" stroke="none" /><path d="M 120.41448212921028 104.9243191809786 l 11.572919242445357 2.7915843196407635 a32.90484786991527,32.90484786991527 0 0,0 -0.1375558737057537,0.5494673379449134 l -11.523152054444541 -2.990379496983073" fill="#ff910d" stroke="none" /><path d="M 120.32669344350535 105.2749913415812 l 14.39269046502194 3.7350549805879516 a35.86943759965212,35.86943759965212 0 0,0 -0.16023718770295003,0.5963021851396407 l -14.326265200977211 -3.9822480989031406" fill="#ffb811" stroke="none" /><path d="M 120.23288151984713 105.62410040840565 l 11.442547408764591 3.180665862729783 a32.876385246873724,32.876385246873724 0 0,0 -0.15625263429558145,0.5439359184027487 l -11.38610213758291 -3.3771592566371136" fill="#ff910d" stroke="none" /><path d="M 120.13307415673323 105.97154293290107 l 15.244941666785758 4.521705079119176 a36.90138557630223,36.90138557630223 0 0,0 -0.18586565006672046,0.607419698532583 l -15.164849244212904 -4.783451750203817" fill="#ffc612" stroke="none" /><path d="M 120.02730092923936 106.31721596034902 l 4.448463978349638 1.403179976291261 a25.664519890893278,25.664519890893278 0 0,0 -0.13652027360764013,0.4201661985728983 l -4.423651453725752 -1.4795450748419543" fill="#ff2d04" stroke="none" /><path d="M 119.9155931802556 106.66101706037122 l 11.262657596589094 3.7669354719685364 a32.87591086982303,32.87591086982303 0 0,0 -0.18411945520877587,0.5351373212432712 l -11.196147310437086 -3.9602454963011082" fill="#ff910d" stroke="none" /><path d="M 119.79798401119884 107.00284435728193 l 5.604544431095991 1.9824115587847573 a26.944819077863723,26.944819077863723 0 0,0 -0.15843006893903278,0.43593150671311554 l -5.569590101151731 -2.078590862504004" fill="#ff3f05" stroke="none" /><line stroke="#e1ed5e" stroke-width="0.3" x1="174.80103733775053" x2="179.2010983576182" y1="140.37084112569926" y2="142.7455964860345" /><path d="M 175.68104954172406 140.8457921977663 a86.0,86.0 0 0,1 -30.038265399797805,32.042727171017184" fill="none" id="id29" stroke="none" /><text fill="#e1ed5e" style="font-size:6.75px; font-family:Arial;" text-anchor="middle"><textPath startOffset="22.206326154141568" xlink:href="#id29">May</textPath></text><line stroke="#e1ed5e" stroke-width="0.3" x1="143.8653032363475" x2="146.44561519142675" y1="172.8068346515853" y2="177.08958963109032" /><path d="M 144.38136562736335 173.6633856474863 a86.0,86.0 0 0,1 -40.68145358897372,12.25698825130547" fill="none" id="id30" stroke="none" /><text fill="#e1ed5e" style="font-size:6.75px; font-family:Arial;" text-anchor="middle"><textPath startOffset="21.466115282336833" xlink:href="#id30">June</textPath></text><line stroke="#e1ed5e" stroke-width="0.3" x1="102.19456741930631" x2="102.32365962044197" y1="184.97166512339345" y2="189.96999836594603" /><path d="M 102.22038585953345 185.97133177190398 a86.0,86.0 0 0,1 -42.740103519485714,-10.115201625700543" fill="none" id="id31" stroke="none" /><text fill="#e1ed5e" style="font-size:6.75px; font-family:Arial;" text-anchor="middle"><textPath startOffset="22.20632615414155" xlink:href="#id31">July</textPath></text><line stroke="#e1ed5e" stroke-width="0.3" x1="58.666819895761336" x2="56.23545636021788" y1="174.27360380694188" y2="178.64263932499728" /><path d="M 58.180547188652646 175.14741091055294 a86.0,86.0 0 0,1 -31.652253787137756,-30.449443065178592" fill="none" id="id32" stroke="none" /><text fill="#e1ed5e" style="font-size:6.75px; font-family:Arial;" text-anchor="middle"><textPath startOffset="22.20632615414155" xlink:href="#id32">August</textPath></text><line stroke="#e1ed5e" stroke-width="0.3" x1="26.63291911575756" x2="22.317208475507996" y1="142.92168965132927" y2="145.44649492493687" /><path d="M 25.769776987707644 143.4266507060508 a86.0,86.0 0 0,1 -11.730757126820373,-40.83630448921669" fill="none" id="id33" stroke="none" /><text fill="#e1ed5e" style="font-size:6.75px; font-family:Arial;" text-anchor="middle"><textPath startOffset="21.46611528233685" xlink:href="#id33">September</textPath></text><line stroke="#e1ed5e" stroke-width="0.3" x1="15.007084014347285" x2="10.007500721073583" y1="101.09737516637583" y2="101.16192664675087" /><path d="M 14.007167355692545 101.11028546245083 a86.0,86.0 0 0,1 10.666146001902534,-42.60595125391555" fill="none" id="id34" stroke="none" /><text fill="#e1ed5e" style="font-size:6.75px; font-family:Arial;" text-anchor="middle"><textPath startOffset="22.20632615414155" xlink:href="#id34">October</textPath></text><line stroke="#e1ed5e" stroke-width="0.3" x1="26.266209847984243" x2="21.928928074336255" y1="57.711370442889674" y2="55.22380399835377" /><path d="M 25.398753493254645 57.213857153982495 a86.0,86.0 0 0,1 29.58750427330803,-30.492523968695096" fill="none" id="id35" stroke="none" /><text fill="#e1ed5e" style="font-size:6.75px; font-family:Arial;" text-anchor="middle"><textPath startOffset="21.46611528233685" xlink:href="#id35">November</textPath></text><line stroke="#e1ed5e" stroke-width="0.3" x1="56.762969772571076" x2="54.21961505331055" y1="26.818313649435495" y2="22.513508569990535" /><path d="M 56.25429882871897 25.957352633546506 a86.0,86.0 0 0,1 42.265352541879196,-11.944610805530505" fill="none" id="id36" stroke="none" /><text fill="#e1ed5e" style="font-size:6.75px; font-family:Arial;" text-anchor="middle"><textPath startOffset="22.20632615414155" xlink:href="#id36">December</textPath></text></svg>